STARTFONT 2.1
FONT -Adobe-Times-Bold-R-Normal--34-240-100-100-P-177-ISO10646-1
SIZE 24 100 100
FONTBOUNDINGBOX 38 49 -5 -12
COMMENT ISO10646-1 extension by Markus Kuhn <mkuhn@acm.org>, 2001-03-20
COMMENT 
COMMENT +
COMMENT  Copyright 1984-1989, 1994 Adobe Systems Incorporated.
COMMENT  Copyright 1988, 1994 Digital Equipment Corporation.
COMMENT
COMMENT  Adobe is a trademark of Adobe Systems Incorporated which may be
COMMENT  registered in certain jurisdictions.
COMMENT  Permission to use these trademarks is hereby granted only in
COMMENT  association with the images described in this file.
COMMENT
COMMENT  Permission to use, copy, modify, distribute and sell this software
COMMENT  and its documentation for any purpose and without fee is hereby
COMMENT  granted, provided that the above copyright notices appear in all
COMMENT  copies and that both those copyright notices and this permission
COMMENT  notice appear in supporting documentation, and that the names of
COMMENT  Adobe Systems and Digital Equipment Corporation not be used in
COMMENT  advertising or publicity pertaining to distribution of the software
COMMENT  without specific, written prior permission.  Adobe Systems and
COMMENT  Digital Equipment Corporation make no representations about the
COMMENT  suitability of this software for any purpose.  It is provided "as
COMMENT  is" without express or implied warranty.
COMMENT -
STARTPROPERTIES 26
FOUNDRY "Adobe"
FAMILY_NAME "Times"
WEIGHT_NAME "Bold"
SLANT "R"
SETWIDTH_NAME "Normal"
ADD_STYLE_NAME ""
PIXEL_SIZE 34
POINT_SIZE 240
RESOLUTION_X 100
RESOLUTION_Y 100
SPACING "P"
AVERAGE_WIDTH 177
CHARSET_REGISTRY "ISO10646"
CHARSET_ENCODING "1"
CAP_HEIGHT 23
X_HEIGHT 16
FONT_ASCENT 27
FONT_DESCENT 7
FACE_NAME "Times Bold"
COPYRIGHT "Copyright (c) 1984, 1987 Adobe Systems Incorporated. All Rights Reserved. Copyright (c) 1988, 1991 Digital Equipment Corporation. All Rights Reserved."
NOTICE "Times is a trademark of Linotype-Hell AG and/or its subsidiaries."

STARTCHAR char0
ENCODING 0
SWIDTH 778 0
DWIDTH 25 0
BBX 23 23 0 0
BITMAP
AAAAAA
000000
800002
000000
800002
000000
800002
000000
800002
000000
800002
000000
800002
000000
800002
000000
800002
000000
800002
000000
800002
000000
AAAAAA
ENDCHAR
STARTCHAR space
ENCODING 32
SWIDTH 250 0
DWIDTH 8 0
BBX 1 1 0 0
BITMAP
00
ENDCHAR
STARTCHAR exclam
ENCODING 33
SWIDTH 333 0
DWIDTH 11 0
BBX 5 23 3 0
BITMAP
70
F8
F8
F8
F8
F8
F8
70
70
70
70
20
20
20
20
00
00
00
70
F8
F8
F8
70
ENDCHAR
STARTCHAR quotedbl
ENCODING 34
SWIDTH 555 0
DWIDTH 19 0
BBX 11 11 2 12
BITMAP
60C0
F1E0
F1E0
F1E0
F1E0
F1E0
F1E0
60C0
60C0
60C0
60C0
ENDCHAR
STARTCHAR numbersign
ENCODING 35
SWIDTH 500 0
DWIDTH 17 0
BBX 16 23 0 0
BITMAP
030C
030C
071C
071C
0618
0618
7FFF
7FFF
0E38
0C30
0C30
0C30
0C30
1C70
FFFE
FFFE
1860
1860
1860
38E0
38E0
30C0
30C0
ENDCHAR
STARTCHAR dollar
ENCODING 36
SWIDTH 500 0
DWIDTH 16 0
BBX 15 28 1 -3
BITMAP
0300
0300
0FE8
3FF8
7338
6318
E308
E308
F300
FB00
7F00
7F80
3FE0
0FF0
03F8
03FC
037C
833E
831E
831E
C31C
C33C
F378
FFE0
8300
0300
0300
0300
ENDCHAR
STARTCHAR percent
ENCODING 37
SWIDTH 1000 0
DWIDTH 33 0
BBX 24 23 4 0
BITMAP
078020
0FC0E0
1E7FC0
3C20C0
7C2180
782180
F86300
F04700
F0C600
F0CE00
F18C3C
7F187E
3C19F3
0031E1
0033C1
0063C1
00E7C3
00C782
01C786
018786
03038C
0303F8
0601E0
ENDCHAR
STARTCHAR ampersand
ENCODING 38
SWIDTH 833 0
DWIDTH 28 0
BBX 22 23 2 0
BITMAP
01F000
03BC00
071E00
070E00
0F0E00
0F0E00
0F8C00
07D800
07F000
03E0FC
07F070
1DF030
39F860
70FC40
F0FCC0
F07F80
F83F00
F81F80
FC1FC0
FE3FE4
7FF3FC
7FC1FC
1F0078
ENDCHAR
STARTCHAR quotesingle
ENCODING 39
SWIDTH 278 0
DWIDTH 9 0
BBX 4 11 2 12
BITMAP
60
F0
F0
F0
F0
F0
F0
60
60
60
60
ENDCHAR
STARTCHAR parenleft
ENCODING 40
SWIDTH 333 0
DWIDTH 11 0
BBX 8 29 2 -6
BITMAP
03
06
0C
18
18
30
30
70
60
E0
E0
E0
E0
E0
E0
E0
E0
E0
E0
E0
60
70
30
30
18
18
0C
06
03
ENDCHAR
STARTCHAR parenright
ENCODING 41
SWIDTH 333 0
DWIDTH 11 0
BBX 8 29 0 -6
BITMAP
C0
60
30
18
18
0C
0C
0E
06
07
07
07
07
07
07
07
07
07
07
07
06
0E
0C
0C
18
18
30
60
C0
ENDCHAR
STARTCHAR asterisk
ENCODING 42
SWIDTH 500 0
DWIDTH 17 0
BBX 13 14 1 9
BITMAP
0300
0700
0700
E738
F278
7AF0
0F80
0F80
7AF0
F278
E738
0700
0700
0600
ENDCHAR
STARTCHAR plus
ENCODING 43
SWIDTH 570 0
DWIDTH 19 0
BBX 15 15 2 0
BITMAP
0380
0380
0380
0380
0380
0380
FFFE
FFFE
FFFE
0380
0380
0380
0380
0380
0380
ENDCHAR
STARTCHAR comma
ENCODING 44
SWIDTH 250 0
DWIDTH 8 0
BBX 6 11 1 -6
BITMAP
38
7C
7C
7C
3C
0C
08
18
30
60
C0
ENDCHAR
STARTCHAR hyphen
ENCODING 45
SWIDTH 333 0
DWIDTH 11 0
BBX 8 4 1 6
BITMAP
FF
FF
FF
FF
ENDCHAR
STARTCHAR period
ENCODING 46
SWIDTH 250 0
DWIDTH 8 0
BBX 5 5 1 0
BITMAP
70
F8
F8
F8
70
ENDCHAR
STARTCHAR slash
ENCODING 47
SWIDTH 278 0
DWIDTH 9 0
BBX 9 25 0 0
BITMAP
0180
0180
0100
0300
0300
0300
0600
0600
0600
0400
0C00
0C00
0C00
1800
1800
1800
3000
3000
3000
3000
6000
6000
6000
C000
C000
ENDCHAR
STARTCHAR zero
ENCODING 48
SWIDTH 500 0
DWIDTH 16 0
BBX 14 23 1 0
BITMAP
0780
1FE0
1CE0
3870
7870
7878
7878
F87C
F87C
F87C
F87C
F87C
F87C
F87C
F87C
F87C
7878
7878
7878
3870
1CE0
0FC0
0780
ENDCHAR
STARTCHAR one
ENCODING 49
SWIDTH 500 0
DWIDTH 16 0
BBX 13 23 2 0
BITMAP
0180
0780
1F80
FF80
0F80
0F80
0F80
0F80
0F80
0F80
0F80
0F80
0F80
0F80
0F80
0F80
0F80
0F80
0F80
0F80
0F80
1FC0
FFF8
ENDCHAR
STARTCHAR two
ENCODING 50
SWIDTH 500 0
DWIDTH 16 0
BBX 16 23 0 0
BITMAP
03C0
0FF0
1FF8
3FF8
30FC
607C
407C
007C
0078
0078
0078
00F0
00E0
01C0
0180
0300
0701
0E03
1C06
3FFE
7FFE
FFFC
FFFC
ENDCHAR
STARTCHAR three
ENCODING 51
SWIDTH 500 0
DWIDTH 16 0
BBX 14 23 1 0
BITMAP
07C0
1FF0
3FF0
30F8
6078
4078
0078
0070
00C0
03E0
0FF0
0FF8
03F8
00FC
007C
003C
003C
003C
6038
F038
F870
7FC0
1F00
ENDCHAR
STARTCHAR four
ENCODING 52
SWIDTH 500 0
DWIDTH 16 0
BBX 14 23 1 0
BITMAP
0070
00F0
00F0
01F0
03F0
06F0
06F0
0CF0
18F0
18F0
30F0
60F0
60F0
C0F0
FFFC
FFFC
FFFC
FFFC
00F0
00F0
00F0
00F0
00F0
ENDCHAR
STARTCHAR five
ENCODING 53
SWIDTH 500 0
DWIDTH 16 0
BBX 13 23 1 0
BITMAP
1FF8
1FF8
1FF8
1FF8
3000
3000
2000
3E00
7F80
7FE0
7FF0
7FF0
03F8
00F8
0078
0038
0038
0038
6030
F030
F860
7FC0
1F00
ENDCHAR
STARTCHAR six
ENCODING 54
SWIDTH 500 0
DWIDTH 16 0
BBX 14 23 1 0
BITMAP
001C
00F0
03C0
0780
0F00
1E00
3E00
3C00
7C00
7FE0
FDF0
F8F8
F878
F87C
F87C
F87C
F87C
787C
7878
7878
3870
1CE0
0FC0
ENDCHAR
STARTCHAR seven
ENCODING 55
SWIDTH 500 0
DWIDTH 16 0
BBX 13 23 2 0
BITMAP
7FF8
7FF8
FFF8
FFF8
C030
8070
8070
0060
00E0
00E0
00C0
01C0
01C0
0380
0380
0380
0700
0700
0700
0E00
0E00
0E00
1C00
ENDCHAR
STARTCHAR eight
ENCODING 56
SWIDTH 500 0
DWIDTH 16 0
BBX 14 23 1 0
BITMAP
0FE0
3EF0
3C78
7878
7838
7838
7C38
7E70
3FE0
3F80
1FC0
0FE0
3FF0
71F8
70FC
E07C
E03C
E03C
E03C
F038
7878
7FF0
1FC0
ENDCHAR
STARTCHAR nine
ENCODING 57
SWIDTH 500 0
DWIDTH 16 0
BBX 14 23 1 0
BITMAP
0FC0
1CE0
3870
7878
7878
F878
F87C
F87C
F87C
F87C
787C
7C7C
3EFC
1FF8
00F8
00F0
01F0
01E0
03C0
0780
0F00
3C00
E000
ENDCHAR
STARTCHAR colon
ENCODING 58
SWIDTH 333 0
DWIDTH 11 0
BBX 5 16 3 0
BITMAP
70
F8
F8
F8
70
00
00
00
00
00
00
70
F8
F8
F8
70
ENDCHAR
STARTCHAR semicolon
ENCODING 59
SWIDTH 333 0
DWIDTH 11 0
BBX 6 22 2 -6
BITMAP
38
7C
7C
7C
38
00
00
00
00
00
00
38
7C
7C
7C
3C
0C
08
18
30
60
C0
ENDCHAR
STARTCHAR less
ENCODING 60
SWIDTH 570 0
DWIDTH 19 0
BBX 16 15 1 0
BITMAP
0003
000F
007F
01FC
0FE0
3F80
FC00
F000
FC00
3F80
0FE0
01FC
007F
000F
0003
ENDCHAR
STARTCHAR equal
ENCODING 61
SWIDTH 570 0
DWIDTH 19 0
BBX 15 10 2 3
BITMAP
FFFE
FFFE
FFFE
0000
0000
0000
0000
FFFE
FFFE
FFFE
ENDCHAR
STARTCHAR greater
ENCODING 62
SWIDTH 570 0
DWIDTH 19 0
BBX 16 15 2 0
BITMAP
C000
F000
FE00
3F80
07F0
01FC
003F
000F
003F
01FC
07F0
3F80
FE00
F000
C000
ENDCHAR
STARTCHAR question
ENCODING 63
SWIDTH 500 0
DWIDTH 16 0
BBX 12 23 2 0
BITMAP
3F00
73C0
E1E0
E1F0
F1F0
F1F0
61F0
01E0
01E0
03C0
0380
0300
0600
0400
0400
0000
0000
0000
0E00
1F00
1F00
1F00
0E00
ENDCHAR
STARTCHAR at
ENCODING 64
SWIDTH 930 0
DWIDTH 31 0
BBX 26 27 2 -5
BITMAP
001FE000
00FC3C00
03E00E00
07800300
0F000100
1E000180
3E0F3880
3C1FF8C0
7C7CF840
78787840
F8F8F040
F8F0F040
F1F0F040
F1F0F040
F1E0F0C0
F1E1E080
F1E1E180
F1E3E300
71F3E300
78FEFE00
78787800
3C000000
1C000000
0E000180
07800700
01E03C00
003FE000
ENDCHAR
STARTCHAR A
ENCODING 65
SWIDTH 722 0
DWIDTH 24 0
BBX 21 23 1 0
BITMAP
002000
006000
007000
00F000
00F800
00F800
01F800
017C00
017C00
033E00
023E00
063E00
061F00
041F00
0C0F00
0FFF80
180F80
1807C0
1007C0
3003E0
3003E0
7007F0
FC1FF8
ENDCHAR
STARTCHAR B
ENCODING 66
SWIDTH 667 0
DWIDTH 22 0
BBX 19 23 1 0
BITMAP
FFFC00
3F1F00
1F0F80
1F07C0
1F07C0
1F07C0
1F07C0
1F07C0
1F0780
1F0F80
1F3E00
1FFC00
1F0F80
1F07C0
1F07E0
1F03E0
1F03E0
1F03E0
1F03E0
1F03C0
1F07C0
3F0F00
FFFC00
ENDCHAR
STARTCHAR C
ENCODING 67
SWIDTH 722 0
DWIDTH 24 0
BBX 19 23 2 0
BITMAP
01FC20
07FF60
0F07E0
1E01E0
3C00E0
7C0060
7C0060
F80020
F80000
F80000
F80000
F80000
F80000
F80000
F80000
F80000
7C0000
7C0000
3C0020
1E0060
0F81C0
03FF80
00FE00
ENDCHAR
STARTCHAR D
ENCODING 68
SWIDTH 722 0
DWIDTH 24 0
BBX 22 23 0 0
BITMAP
FFFC00
3FFF80
1F07E0
1F01F0
1F01F0
1F00F8
1F00F8
1F00FC
1F007C
1F007C
1F007C
1F007C
1F007C
1F007C
1F007C
1F00F8
1F00F8
1F00F8
1F01F0
1F01E0
1F07C0
3FFF00
FFFC00
ENDCHAR
STARTCHAR E
ENCODING 69
SWIDTH 667 0
DWIDTH 22 0
BBX 21 23 0 0
BITMAP
FFFFE0
3FFFE0
1F00E0
1F0060
1F0060
1F0020
1F0020
1F0400
1F0400
1F0C00
1F1C00
1FFC00
1F1C00
1F0C00
1F0400
1F0400
1F0008
1F0018
1F0030
1F0070
1F01F0
3FFFE0
FFFFE0
ENDCHAR
STARTCHAR F
ENCODING 70
SWIDTH 611 0
DWIDTH 20 0
BBX 19 23 0 0
BITMAP
FFFFE0
3FFFE0
1F00E0
1F0060
1F0060
1F0020
1F0020
1F0400
1F0400
1F0C00
1F1C00
1FFC00
1F1C00
1F0C00
1F0400
1F0400
1F0000
1F0000
1F0000
1F0000
1F0000
3F8000
FFE000
ENDCHAR
STARTCHAR G
ENCODING 71
SWIDTH 778 0
DWIDTH 25 0
BBX 22 23 2 0
BITMAP
01FC20
07FF60
0F07E0
1E01E0
3C00E0
7C0060
7C0060
F80020
F80000
F80000
F80000
F80000
F80000
F81FFC
F807F0
F803E0
7C03E0
7C03E0
3C03E0
3E03E0
1E07E0
0F8FE0
03FF00
ENDCHAR
STARTCHAR H
ENCODING 72
SWIDTH 778 0
DWIDTH 25 0
BBX 24 23 0 0
BITMAP
FFE7FF
3F81FC
1F00F8
1F00F8
1F00F8
1F00F8
1F00F8
1F00F8
1F00F8
1F00F8
1FFFF8
1FFFF8
1F00F8
1F00F8
1F00F8
1F00F8
1F00F8
1F00F8
1F00F8
1F00F8
1F00F8
3F81FC
FFE7FF
ENDCHAR
STARTCHAR I
ENCODING 73
SWIDTH 389 0
DWIDTH 13 0
BBX 11 23 1 0
BITMAP
FFE0
3F80
1F00
1F00
1F00
1F00
1F00
1F00
1F00
1F00
1F00
1F00
1F00
1F00
1F00
1F00
1F00
1F00
1F00
1F00
1F00
3F80
FFE0
ENDCHAR
STARTCHAR J
ENCODING 74
SWIDTH 500 0
DWIDTH 16 0
BBX 15 26 0 -3
BITMAP
0FFE
03F8
01F0
01F0
01F0
01F0
01F0
01F0
01F0
01F0
01F0
01F0
01F0
01F0
01F0
01F0
01F0
01F0
01F0
61F0
F1F0
F1F0
F3E0
E3E0
7FC0
1F00
ENDCHAR
STARTCHAR K
ENCODING 75
SWIDTH 778 0
DWIDTH 25 0
BBX 24 23 1 0
BITMAP
FFCFFC
7F03E0
3E01C0
3E0380
3E0700
3E0E00
3E1C00
3E3800
3E7000
3EE000
3FF000
3FF800
3FFC00
3EFE00
3E7F00
3E3F80
3E1FC0
3E0FE0
3E07F0
3E03F8
3E01FC
7F00FE
FFC3FF
ENDCHAR
STARTCHAR L
ENCODING 76
SWIDTH 667 0
DWIDTH 22 0
BBX 20 23 1 0
BITMAP
FFE000
3F8000
1F0000
1F0000
1F0000
1F0000
1F0000
1F0000
1F0000
1F0000
1F0000
1F0000
1F0000
1F0000
1F0000
1F0000
1F0010
1F0030
1F0060
1F00E0
1F81E0
3FFFC0
FFFFC0
ENDCHAR
STARTCHAR M
ENCODING 77
SWIDTH 944 0
DWIDTH 31 0
BBX 28 23 1 0
BITMAP
FF000FF0
3F001FC0
1F801F80
1F803F80
17C03F80
17C02F80
17C06F80
13E04F80
13E0CF80
13E0CF80
11F08F80
11F18F80
10F90F80
10FB0F80
10FB0F80
107E0F80
107E0F80
107C0F80
103C0F80
103C0F80
10180F80
38181FC0
FE183FF0
ENDCHAR
STARTCHAR N
ENCODING 78
SWIDTH 722 0
DWIDTH 24 0
BBX 22 23 1 0
BITMAP
FE01FC
7F0070
3F8020
1F8020
1FC020
1FE020
17F020
13F820
11F820
11FC20
10FE20
107F20
103F20
101FA0
101FE0
100FE0
1007E0
1003E0
1003E0
1001E0
1000E0
380060
FE0020
ENDCHAR
STARTCHAR O
ENCODING 79
SWIDTH 778 0
DWIDTH 25 0
BBX 21 23 2 0
BITMAP
01FC00
07FF00
0F8F80
1E03C0
3C01E0
7C01F0
7800F0
F800F8
F800F8
F800F8
F800F8
F800F8
F800F8
F800F8
F800F8
F800F8
7800F0
7C01F0
3C01E0
1E03C0
0F8F80
07FF00
01FC00
ENDCHAR
STARTCHAR P
ENCODING 80
SWIDTH 611 0
DWIDTH 20 0
BBX 19 23 0 0
BITMAP
FFFC00
3F1F80
1F0FC0
1F07C0
1F07E0
1F03E0
1F03E0
1F03E0
1F03E0
1F07C0
1F07C0
1F1F80
1FFE00
1F0000
1F0000
1F0000
1F0000
1F0000
1F0000
1F0000
1F0000
3F8000
FFE000
ENDCHAR
STARTCHAR Q
ENCODING 81
SWIDTH 778 0
DWIDTH 26 0
BBX 22 27 2 -4
BITMAP
01FC00
07FF00
0F8F80
1E03C0
3C01E0
7C01F0
7800F0
F800F8
F800F8
F800F8
F800F8
F800F8
F800F8
F800F8
F800F8
F800F8
F800F8
7C01F0
7C01F0
3E03E0
1F07C0
07FF00
01FC00
00FE00
007F84
001FF8
0007E0
ENDCHAR
STARTCHAR R
ENCODING 82
SWIDTH 722 0
DWIDTH 24 0
BBX 22 23 1 0
BITMAP
FFFC00
3F1F80
1F07C0
1F07E0
1F03E0
1F03E0
1F03E0
1F03E0
1F07E0
1F07C0
1F1F80
1FFC00
1F7E00
1F3E00
1F3F00
1F1F80
1F1F80
1F0FC0
1F07E0
1F07E0
1F03F0
3F81F8
FFE1FC
ENDCHAR
STARTCHAR S
ENCODING 83
SWIDTH 556 0
DWIDTH 18 0
BBX 15 23 1 0
BITMAP
0FC4
387C
703C
701C
F00C
F00C
F804
FC00
FF00
7FC0
3FF0
1FF8
0FFC
03FC
01FE
807E
803E
C01E
C01E
E01C
F01C
F838
8FE0
ENDCHAR
STARTCHAR T
ENCODING 84
SWIDTH 667 0
DWIDTH 22 0
BBX 19 23 1 0
BITMAP
FFFFE0
F9F3E0
E1F0E0
C1F060
81F020
81F020
81F020
01F000
01F000
01F000
01F000
01F000
01F000
01F000
01F000
01F000
01F000
01F000
01F000
01F000
01F000
03F800
0FFE00
ENDCHAR
STARTCHAR U
ENCODING 85
SWIDTH 722 0
DWIDTH 24 0
BBX 23 23 0 0
BITMAP
FFE0FE
3F8038
1F0010
1F0010
1F0010
1F0010
1F0010
1F0010
1F0010
1F0010
1F0010
1F0010
1F0010
1F0010
1F0010
1F0010
1F0010
1F0010
0F8030
0F8060
07C0C0
03FF80
00FE00
ENDCHAR
STARTCHAR V
ENCODING 86
SWIDTH 722 0
DWIDTH 24 0
BBX 22 23 1 0
BITMAP
FFC3FC
7F00F0
3E0060
3F0040
1F00C0
1F80C0
0F8080
0F8180
0FC100
07C100
07C300
03E200
03E600
03F600
01F400
01FC00
00F800
00F800
00F800
007000
007000
002000
002000
ENDCHAR
STARTCHAR W
ENCODING 87
SWIDTH 1000 0
DWIDTH 33 0
BBX 32 23 0 0
BITMAP
FFEFFF3F
7F03F80E
3F01F80C
1F01F80C
1F01F808
1F81FC18
0F81FC18
0F817C10
0FC37C30
07C27E30
07C63E20
07E63E60
03E43E60
03EC1F40
03F81FC0
01F81FC0
01F80F80
01F00F80
00F00F80
00E00700
00E00700
00E00700
00400200
ENDCHAR
STARTCHAR X
ENCODING 88
SWIDTH 722 0
DWIDTH 24 0
BBX 21 23 1 0
BITMAP
FFCFE0
7F0300
3F0200
1F8600
1F8400
0FCC00
0FC800
07F800
03F000
03F000
01F800
00F800
01FC00
017C00
033E00
023F00
061F00
041F80
0C0FC0
080FC0
1807E0
3807F0
FE3FF8
ENDCHAR
STARTCHAR Y
ENCODING 89
SWIDTH 722 0
DWIDTH 24 0
BBX 22 23 1 0
BITMAP
FFC3FC
7F00F0
3F0060
3F0060
1F80C0
1F8080
0FC180
0FC300
07E300
03E600
03F400
01FC00
01F800
00F800
00F800
00F800
00F800
00F800
00F800
00F800
00F800
01FC00
07FF00
ENDCHAR
STARTCHAR Z
ENCODING 90
SWIDTH 667 0
DWIDTH 22 0
BBX 19 23 1 0
BITMAP
3FFFC0
7E0F80
781F80
701F00
603F00
407E00
007E00
00FC00
00FC00
01F800
01F000
03F000
03E000
07E000
07C000
0FC020
1F8020
1F8060
3F0060
3F00E0
7E01E0
7E07C0
FFFFC0
ENDCHAR
STARTCHAR bracketleft
ENCODING 91
SWIDTH 333 0
DWIDTH 11 0
BBX 7 28 2 -5
BITMAP
FE
F0
E0
E0
E0
E0
E0
E0
E0
E0
E0
E0
E0
E0
E0
E0
E0
E0
E0
E0
E0
E0
E0
E0
E0
E0
F0
FE
ENDCHAR
STARTCHAR backslash
ENCODING 92
SWIDTH 278 0
DWIDTH 9 0
BBX 8 26 0 0
BITMAP
80
C0
C0
C0
60
60
60
60
30
30
30
18
18
18
18
0C
0C
0C
04
06
06
06
03
03
03
03
ENDCHAR
STARTCHAR bracketright
ENCODING 93
SWIDTH 333 0
DWIDTH 11 0
BBX 7 28 1 -5
BITMAP
FE
1E
0E
0E
0E
0E
0E
0E
0E
0E
0E
0E
0E
0E
0E
0E
0E
0E
0E
0E
0E
0E
0E
0E
0E
0E
1E
FE
ENDCHAR
STARTCHAR asciicircum
ENCODING 94
SWIDTH 581 0
DWIDTH 19 0
BBX 11 13 4 10
BITMAP
0E00
0E00
1F00
1F00
1B00
3B80
3B80
71C0
71C0
61C0
E0E0
E0E0
C060
ENDCHAR
STARTCHAR underscore
ENCODING 95
SWIDTH 500 0
DWIDTH 16 0
BBX 16 3 0 -5
BITMAP
FFFF
FFFF
FFFF
ENDCHAR
STARTCHAR grave
ENCODING 96
SWIDTH 333 0
DWIDTH 11 0
BBX 7 6 1 17
BITMAP
C0
E0
70
38
0C
02
ENDCHAR
STARTCHAR a
ENCODING 97
SWIDTH 500 0
DWIDTH 16 0
BBX 14 16 1 0
BITMAP
1F80
31E0
70F0
78F0
78F0
30F0
01F0
07F0
1CF0
38F0
78F0
F0F0
F9F0
FFF4
7EFC
3C78
ENDCHAR
STARTCHAR b
ENCODING 98
SWIDTH 556 0
DWIDTH 18 0
BBX 17 22 0 0
BITMAP
FC0000
7C0000
3C0000
3C0000
3C0000
3C0000
3C7800
3DFE00
3FFE00
3E1F00
3C1F00
3C0F80
3C0F80
3C0F80
3C0F80
3C0F80
3C0F80
3C0F00
3C1F00
3E3E00
37FC00
21F000
ENDCHAR
STARTCHAR c
ENCODING 99
SWIDTH 444 0
DWIDTH 15 0
BBX 14 16 1 0
BITMAP
07F0
1E78
3C3C
7C3C
7818
F800
F800
F800
F800
F800
F800
F800
7C00
3E18
1FF0
0FE0
ENDCHAR
STARTCHAR d
ENCODING 100
SWIDTH 556 0
DWIDTH 18 0
BBX 16 22 1 0
BITMAP
00FC
007C
003C
003C
003C
003C
0FBC
3FFC
7C3C
783C
F83C
F03C
F03C
F03C
F03C
F03C
F03C
F03C
783C
7C7E
3FFF
0FB8
ENDCHAR
STARTCHAR e
ENCODING 101
SWIDTH 444 0
DWIDTH 15 0
BBX 14 16 0 0
BITMAP
07C0
1EF0
3C70
7838
783C
F83C
F83C
FFFC
F800
F800
F800
7800
7C00
3E18
1FF0
07E0
ENDCHAR
STARTCHAR f
ENCODING 102
SWIDTH 333 0
DWIDTH 11 0
BBX 12 23 0 0
BITMAP
07E0
1E70
1CF0
3CF0
3C60
3C00
3C00
FF80
FF80
3C00
3C00
3C00
3C00
3C00
3C00
3C00
3C00
3C00
3C00
3C00
3C00
7E00
FF00
ENDCHAR
STARTCHAR g
ENCODING 103
SWIDTH 500 0
DWIDTH 16 0
BBX 14 23 1 -7
BITMAP
0FC0
3DFC
70FC
F0F0
F078
F078
F078
F078
78F8
3FF0
1FC0
3C00
6000
E000
FFE0
FFF8
7FFC
303C
601C
C00C
E01C
7FF8
1FE0
ENDCHAR
STARTCHAR h
ENCODING 104
SWIDTH 556 0
DWIDTH 18 0
BBX 17 22 0 0
BITMAP
FC0000
7C0000
3C0000
3C0000
3C0000
3C0000
3C7800
3DFC00
3FFE00
3E3E00
3C1E00
3C1E00
3C1E00
3C1E00
3C1E00
3C1E00
3C1E00
3C1E00
3C1E00
3C1E00
7E3F00
FF7F80
ENDCHAR
STARTCHAR i
ENCODING 105
SWIDTH 278 0
DWIDTH 9 0
BBX 8 23 0 0
BITMAP
18
3C
3C
3C
18
00
00
FC
7C
3C
3C
3C
3C
3C
3C
3C
3C
3C
3C
3C
3C
7E
FF
ENDCHAR
STARTCHAR j
ENCODING 106
SWIDTH 333 0
DWIDTH 11 0
BBX 10 30 -2 -7
BITMAP
0180
03C0
03C0
03C0
0180
0000
0000
0FC0
07C0
03C0
03C0
03C0
03C0
03C0
03C0
03C0
03C0
03C0
03C0
03C0
03C0
03C0
03C0
03C0
03C0
63C0
F3C0
F380
7780
3E00
ENDCHAR
STARTCHAR k
ENCODING 107
SWIDTH 556 0
DWIDTH 18 0
BBX 18 22 0 0
BITMAP
FC0000
7C0000
3C0000
3C0000
3C0000
3C0000
3C1F00
3C0E00
3C0C00
3C1800
3C3000
3C6000
3CC000
3DC000
3FE000
3DF000
3CF800
3C7C00
3C3E00
3C1F00
7E0F80
FF1FC0
ENDCHAR
STARTCHAR l
ENCODING 108
SWIDTH 278 0
DWIDTH 9 0
BBX 8 22 0 0
BITMAP
FC
7C
3C
3C
3C
3C
3C
3C
3C
3C
3C
3C
3C
3C
3C
3C
3C
3C
3C
3C
7E
FF
ENDCHAR
STARTCHAR m
ENCODING 109
SWIDTH 833 0
DWIDTH 27 0
BBX 26 16 0 0
BITMAP
FC783C00
7DFEFE00
3F3F9F00
3E3F1F00
3E1E0F00
3C1E0F00
3C1E0F00
3C1E0F00
3C1E0F00
3C1E0F00
3C1E0F00
3C1E0F00
3C1E0F00
3C1E0F00
7E3F1F80
FF7FBFC0
ENDCHAR
STARTCHAR n
ENCODING 110
SWIDTH 556 0
DWIDTH 18 0
BBX 17 16 0 0
BITMAP
FC7800
7DFC00
3F3E00
3E1E00
3E1E00
3C1E00
3C1E00
3C1E00
3C1E00
3C1E00
3C1E00
3C1E00
3C1E00
3C1E00
7E3F00
FF7F80
ENDCHAR
STARTCHAR o
ENCODING 111
SWIDTH 500 0
DWIDTH 17 0
BBX 14 16 1 0
BITMAP
0FC0
3CF0
7878
7878
F03C
F03C
F03C
F03C
F03C
F03C
F03C
F03C
7878
7878
3CF0
0FC0
ENDCHAR
STARTCHAR p
ENCODING 112
SWIDTH 556 0
DWIDTH 18 0
BBX 17 23 0 -7
BITMAP
FCF800
7DFE00
3F1F00
3E0F00
3C0F80
3C0780
3C0780
3C0780
3C0780
3C0780
3C0780
3C0780
3E0F00
3F0F00
3FFE00
3CF800
3C0000
3C0000
3C0000
3C0000
3C0000
7E0000
FF0000
ENDCHAR
STARTCHAR q
ENCODING 113
SWIDTH 556 0
DWIDTH 18 0
BBX 16 23 1 -7
BITMAP
0FC4
3EEC
7C3C
783C
F83C
F03C
F03C
F03C
F03C
F03C
F03C
F03C
783C
787C
3FFC
0F3C
003C
003C
003C
003C
003C
007E
00FF
ENDCHAR
STARTCHAR r
ENCODING 114
SWIDTH 444 0
DWIDTH 15 0
BBX 13 16 1 0
BITMAP
FC70
7CF8
3FF8
3F78
3E30
3C00
3C00
3C00
3C00
3C00
3C00
3C00
3C00
3C00
7E00
FF00
ENDCHAR
STARTCHAR s
ENCODING 115
SWIDTH 389 0
DWIDTH 13 0
BBX 10 16 1 0
BITMAP
1F40
71C0
60C0
E0C0
F040
FC00
7F00
7F80
3F80
0FC0
03C0
81C0
C1C0
C1C0
E380
BF00
ENDCHAR
STARTCHAR t
ENCODING 116
SWIDTH 333 0
DWIDTH 11 0
BBX 10 21 0 0
BITMAP
0400
0C00
1C00
1C00
3C00
7F80
FF80
3C00
3C00
3C00
3C00
3C00
3C00
3C00
3C00
3C00
3C00
3C40
3EC0
3F80
1E00
ENDCHAR
STARTCHAR u
ENCODING 117
SWIDTH 556 0
DWIDTH 18 0
BBX 17 16 0 0
BITMAP
FC7E00
7C3E00
3C1E00
3C1E00
3C1E00
3C1E00
3C1E00
3C1E00
3C1E00
3C1E00
3C1E00
3C1E00
3C3E00
3E5F00
1FDF80
078C00
ENDCHAR
STARTCHAR v
ENCODING 118
SWIDTH 500 0
DWIDTH 17 0
BBX 15 16 0 0
BITMAP
FF3E
7C0C
3C08
3E18
1E10
1F10
1F30
0F20
0F20
07E0
07C0
07C0
0380
0380
0100
0100
ENDCHAR
STARTCHAR w
ENCODING 119
SWIDTH 722 0
DWIDTH 24 0
BBX 23 16 0 0
BITMAP
FF7FBE
7E3E1C
3C1E08
3E1E18
1E1F10
1F1F30
1F3F30
0F2FA0
0FE7E0
07E7C0
07C7C0
07C3C0
038380
038380
010100
010100
ENDCHAR
STARTCHAR x
ENCODING 120
SWIDTH 500 0
DWIDTH 17 0
BBX 16 16 0 0
BITMAP
FF3E
7E18
3E18
1F30
1F60
0FC0
0FC0
07C0
03E0
03E0
07F0
0DF8
18F8
187C
307C
FCFF
ENDCHAR
STARTCHAR y
ENCODING 121
SWIDTH 500 0
DWIDTH 17 0
BBX 15 23 0 -7
BITMAP
FFBE
7E0C
3E08
3E08
1F18
1F10
0F10
0FB0
0FA0
07A0
07E0
07C0
03C0
03C0
0180
0180
0180
0100
7300
F300
F600
FE00
7800
ENDCHAR
STARTCHAR z
ENCODING 122
SWIDTH 444 0
DWIDTH 15 0
BBX 12 16 1 0
BITMAP
FFF0
E3F0
C3E0
87E0
87C0
0F80
0F80
1F00
1F00
3E00
3E10
7C10
7C30
F830
F8F0
FFF0
ENDCHAR
STARTCHAR braceleft
ENCODING 123
SWIDTH 394 0
DWIDTH 13 0
BBX 10 27 1 -4
BITMAP
07C0
0E00
1C00
1C00
1C00
1C00
1C00
1C00
1C00
1C00
1C00
3800
7000
E000
7000
3800
1C00
1C00
1C00
1C00
1C00
1C00
1C00
1C00
1C00
0E00
07C0
ENDCHAR
STARTCHAR bar
ENCODING 124
SWIDTH 220 0
DWIDTH 7 0
BBX 2 30 3 -7
BITMAP
C0
C0
C0
C0
C0
C0
C0
C0
C0
C0
C0
C0
C0
C0
C0
C0
C0
C0
C0
C0
C0
C0
C0
C0
C0
C0
C0
C0
C0
C0
ENDCHAR
STARTCHAR braceright
ENCODING 125
SWIDTH 394 0
DWIDTH 13 0
BBX 10 27 1 -4
BITMAP
F800
1C00
0E00
0E00
0E00
0E00
0E00
0E00
0E00
0E00
0E00
0700
0380
01C0
0380
0700
0E00
0E00
0E00
0E00
0E00
0E00
0E00
0E00
0E00
1C00
F800
ENDCHAR
STARTCHAR asciitilde
ENCODING 126
SWIDTH 520 0
DWIDTH 17 0
BBX 15 8 1 8
BITMAP
1C00
3F00
7F82
FFC6
8FFE
83FC
01F8
0070
ENDCHAR
STARTCHAR space
ENCODING 160
SWIDTH 250 0
DWIDTH 8 0
BBX 1 1 0 0
BITMAP
00
ENDCHAR
STARTCHAR exclamdown
ENCODING 161
SWIDTH 333 0
DWIDTH 11 0
BBX 5 23 3 -7
BITMAP
70
F8
F8
F8
70
00
00
00
20
20
20
20
70
70
70
70
F8
F8
F8
F8
F8
F8
70
ENDCHAR
STARTCHAR cent
ENCODING 162
SWIDTH 500 0
DWIDTH 17 0
BBX 13 25 1 -5
BITMAP
0008
0008
0018
0010
07F0
1CE0
38F0
78F0
F0F0
F0E0
F080
F180
F100
F300
F200
FA10
7E30
7FE0
3FC0
0F00
0800
1000
1000
2000
2000
ENDCHAR
STARTCHAR sterling
ENCODING 163
SWIDTH 500 0
DWIDTH 17 0
BBX 16 23 1 0
BITMAP
00F0
03FC
071E
0E1E
0E1E
1E0C
1E00
1E00
1F00
0F00
0F00
7FF0
7FF0
0780
0780
0780
3780
7F01
EF03
C787
C7FF
EEFE
7C7C
ENDCHAR
STARTCHAR currency
ENCODING 164
SWIDTH 500 0
DWIDTH 17 0
BBX 14 15 1 4
BITMAP
6018
F7BC
FFFC
7FF8
3CF0
7878
7038
7038
7038
7878
3CF0
7FF8
FFFC
F7BC
6018
ENDCHAR
STARTCHAR yen
ENCODING 165
SWIDTH 500 0
DWIDTH 17 0
BBX 18 23 1 0
BITMAP
FF87C0
3E0380
3E0300
1F0300
1F0600
1F8600
0F8400
0F8C00
07C800
07D800
07D000
03F000
1FFC00
1FFC00
03E000
1FFC00
1FFC00
01E000
01E000
01E000
01E000
03F000
0FFC00
ENDCHAR
STARTCHAR brokenbar
ENCODING 166
SWIDTH 220 0
DWIDTH 7 0
BBX 2 30 3 -7
BITMAP
C0
C0
C0
C0
C0
C0
C0
C0
C0
C0
C0
C0
00
00
00
00
00
00
C0
C0
C0
C0
C0
C0
C0
C0
C0
C0
C0
C0
ENDCHAR
STARTCHAR section
ENCODING 167
SWIDTH 500 0
DWIDTH 17 0
BBX 12 28 2 -5
BITMAP
0F80
18C0
30E0
71E0
71E0
78C0
3C00
3E00
1F00
0F80
3FC0
63E0
C1E0
C0F0
E070
F030
7830
7C60
3FC0
1F80
0780
03C0
31E0
78E0
78E0
70C0
3180
1F00
ENDCHAR
STARTCHAR dieresis
ENCODING 168
SWIDTH 333 0
DWIDTH 11 0
BBX 8 4 2 18
BITMAP
42
E7
E7
42
ENDCHAR
STARTCHAR copyright
ENCODING 169
SWIDTH 747 0
DWIDTH 25 0
BBX 22 23 1 0
BITMAP
01FE00
07FF80
0F03C0
1C00E0
380070
30FE30
71C738
638318
E7831C
C7000C
C7000C
C7000C
C7000C
C7800C
C3C30C
E3E61C
60FC18
700038
380070
1C00E0
0F03C0
07FF80
01FE00
ENDCHAR
STARTCHAR ordfeminine
ENCODING 170
SWIDTH 300 0
DWIDTH 10 0
BBX 9 14 0 9
BITMAP
3C00
6600
6700
6700
1F00
6700
C700
C700
EF80
7300
0000
0000
FF80
FF80
ENDCHAR
STARTCHAR guillemotleft
ENCODING 171
SWIDTH 500 0
DWIDTH 17 0
BBX 14 14 2 1
BITMAP
0204
060C
0E1C
1C38
3870
70E0
E1C0
E1C0
70E0
3870
1C38
0E1C
060C
0204
ENDCHAR
STARTCHAR logicalnot
ENCODING 172
SWIDTH 570 0
DWIDTH 19 0
BBX 16 9 1 3
BITMAP
FFFF
FFFF
FFFF
0007
0007
0007
0007
0007
0007
ENDCHAR
STARTCHAR hyphen
ENCODING 173
SWIDTH 333 0
DWIDTH 11 0
BBX 8 4 1 6
BITMAP
FF
FF
FF
FF
ENDCHAR
STARTCHAR registered
ENCODING 174
SWIDTH 747 0
DWIDTH 25 0
BBX 22 23 2 0
BITMAP
01FE00
07FF80
0F03C0
1C00E0
380070
33FC30
71CE38
60C718
E0C71C
C0C70C
C0CE0C
C0F80C
C0DC0C
C0CE0C
C0C60C
E0C71C
61C398
73E3F8
380070
1C00E0
0F03C0
07FF80
01FE00
ENDCHAR
STARTCHAR macron
ENCODING 175
SWIDTH 333 0
DWIDTH 11 0
BBX 9 2 1 18
BITMAP
FF80
FF80
ENDCHAR
STARTCHAR degree
ENCODING 176
SWIDTH 400 0
DWIDTH 13 0
BBX 9 10 2 13
BITMAP
1C00
7F00
6300
C180
C180
C180
C180
6300
7F00
3C00
ENDCHAR
STARTCHAR plusminus
ENCODING 177
SWIDTH 570 0
DWIDTH 19 0
BBX 15 19 2 0
BITMAP
0380
0380
0380
0380
0380
0380
FFFE
FFFE
FFFE
0380
0380
0380
0380
0380
0380
0000
FFFE
FFFE
FFFE
ENDCHAR
STARTCHAR twosuperior
ENCODING 178
SWIDTH 300 0
DWIDTH 10 0
BBX 10 14 1 9
BITMAP
3E00
7F00
C780
8380
0380
0380
0300
0600
0C00
1800
3040
7FC0
FF80
FF80
ENDCHAR
STARTCHAR threesuperior
ENCODING 179
SWIDTH 300 0
DWIDTH 10 0
BBX 9 14 1 9
BITMAP
1E00
3F00
6780
4380
0300
0600
1F00
0780
0380
0380
0380
C380
E700
7E00
ENDCHAR
STARTCHAR acute
ENCODING 180
SWIDTH 333 0
DWIDTH 11 0
BBX 7 6 3 17
BITMAP
06
0E
1C
38
60
80
ENDCHAR
STARTCHAR mu
ENCODING 181
SWIDTH 556 0
DWIDTH 19 0
BBX 16 22 2 -6
BITMAP
F8FC
787C
783C
783C
783C
783C
783C
783C
783C
783C
783C
783C
787C
7CFC
7FBF
5F38
4000
E000
E000
E000
E000
E000
ENDCHAR
STARTCHAR paragraph
ENCODING 182
SWIDTH 540 0
DWIDTH 18 0
BBX 16 29 1 -6
BITMAP
0FFF
3FFF
3F8C
7F8C
FF8C
FF8C
FF8C
FF8C
FF8C
FF8C
FF8C
7F8C
3F8C
3F8C
0F8C
018C
018C
018C
018C
018C
018C
018C
018C
018C
018C
018C
018C
018C
018C
ENDCHAR
STARTCHAR periodcentered
ENCODING 183
SWIDTH 250 0
DWIDTH 8 0
BBX 4 4 2 9
BITMAP
60
F0
F0
60
ENDCHAR
STARTCHAR cedilla
ENCODING 184
SWIDTH 333 0
DWIDTH 11 0
BBX 7 7 1 -7
BITMAP
06
0C
1C
0E
C6
EE
7C
ENDCHAR
STARTCHAR onesuperior
ENCODING 185
SWIDTH 300 0
DWIDTH 10 0
BBX 9 14 0 9
BITMAP
0C00
7C00
1C00
1C00
1C00
1C00
1C00
1C00
1C00
1C00
1C00
1C00
1C00
FF80
ENDCHAR
STARTCHAR ordmasculine
ENCODING 186
SWIDTH 330 0
DWIDTH 11 0
BBX 9 14 1 9
BITMAP
1C00
7700
6300
E380
E380
E380
E380
6300
7700
1C00
0000
0000
FF80
FF80
ENDCHAR
STARTCHAR guillemotright
ENCODING 187
SWIDTH 500 0
DWIDTH 17 0
BBX 14 14 1 1
BITMAP
8100
C180
E1C0
70E0
3870
1C38
0E1C
0E1C
1C38
3870
70E0
E1C0
C180
8100
ENDCHAR
STARTCHAR onequarter
ENCODING 188
SWIDTH 750 0
DWIDTH 25 0
BBX 23 23 0 0
BITMAP
0C0008
7C0018
1C0030
1C0030
1C0060
1C0060
1C00C0
1C0180
1C0180
1C030C
1C061C
1C063C
1C0C7C
FF98FC
0018DC
00319C
00639C
00631C
00C7FE
01C7FE
01801C
03001C
03001C
ENDCHAR
STARTCHAR onehalf
ENCODING 189
SWIDTH 750 0
DWIDTH 25 0
BBX 23 23 0 0
BITMAP
0C0030
7C0060
1C0060
1C00C0
1C0080
1C0180
1C0300
1C0200
1C0600
1C0CF0
1C19F8
1C1B3C
1C321C
FFB01C
00601C
006018
00C030
018060
0180C0
030182
0603FE
0607FC
0C0FFC
ENDCHAR
STARTCHAR threequarters
ENCODING 190
SWIDTH 750 0
DWIDTH 25 0
BBX 22 23 1 0
BITMAP
1E0010
3F0030
678060
438060
0300C0
0600C0
1F0180
078300
038300
038618
038C38
C38C78
E718F8
7E31F8
0031B8
006338
00C738
00C638
018FFC
038FFC
030038
060038
060038
ENDCHAR
STARTCHAR questiondown
ENCODING 191
SWIDTH 500 0
DWIDTH 16 0
BBX 12 23 2 -7
BITMAP
0700
0F80
0F80
0F80
0700
0000
0000
0000
0200
0200
0600
0C00
1C00
3C00
7800
7800
F860
F8F0
F8F0
F870
7870
3CE0
1FC0
ENDCHAR
STARTCHAR Agrave
ENCODING 192
SWIDTH 722 0
DWIDTH 24 0
BBX 21 30 1 0
BITMAP
060000
070000
038000
01C000
006000
000000
002000
002000
006000
007000
00F000
00F800
00F800
01F800
017C00
017C00
033E00
023E00
063E00
061F00
041F00
0C0F00
0FFF80
180F80
1807C0
1007C0
3003E0
3003E0
7007F0
FC1FF8
ENDCHAR
STARTCHAR Aacute
ENCODING 193
SWIDTH 722 0
DWIDTH 24 0
BBX 21 30 1 0
BITMAP
000300
000700
000E00
001C00
003000
004000
000000
002000
006000
007000
00F000
00F800
00F800
01F800
017C00
017C00
033E00
023E00
063E00
061F00
041F00
0C0F00
0FFF80
180F80
1807C0
1007C0
3003E0
3003E0
7007F0
FC1FF8
ENDCHAR
STARTCHAR Acircumflex
ENCODING 194
SWIDTH 722 0
DWIDTH 24 0
BBX 21 30 1 0
BITMAP
006000
00F000
01F800
019800
030C00
020400
000000
002000
006000
007000
00F000
00F800
00F800
01F800
017C00
017C00
033E00
023E00
063E00
061F00
041F00
0C0F00
0FFF80
180F80
1807C0
1007C0
3003E0
3003E0
7007F0
FC1FF8
ENDCHAR
STARTCHAR Atilde
ENCODING 195
SWIDTH 722 0
DWIDTH 24 0
BBX 21 29 1 0
BITMAP
00C200
01F600
037C00
021800
000000
000000
002000
006000
007000
00F000
00F800
00F800
01F800
017C00
017C00
033E00
023E00
063E00
061F00
041F00
0C0F00
0FFF80
180F80
1807C0
1007C0
3003E0
3003E0
7007F0
FC1FF8
ENDCHAR
STARTCHAR Adieresis
ENCODING 196
SWIDTH 722 0
DWIDTH 24 0
BBX 21 29 1 0
BITMAP
010800
039C00
039C00
010800
000000
000000
002000
006000
007000
00F000
00F800
00F800
01F800
017C00
017C00
033E00
023E00
063E00
061F00
041F00
0C0F00
0FFF80
180F80
1807C0
1007C0
3003E0
3003E0
7007F0
FC1FF8
ENDCHAR
STARTCHAR Aring
ENCODING 197
SWIDTH 722 0
DWIDTH 24 0
BBX 21 30 1 0
BITMAP
00E000
01B000
031800
020800
031800
01B000
00E000
000000
006000
007000
00F000
00F800
00F800
01F800
017C00
017C00
033E00
023E00
063E00
061F00
041F00
0C0F00
0FFF80
180F80
1807C0
1007C0
3003E0
3003E0
7007F0
FC1FF8
ENDCHAR
STARTCHAR AE
ENCODING 198
SWIDTH 1000 0
DWIDTH 33 0
BBX 32 23 0 0
BITMAP
03FFFFFC
00FFFFFC
0063E01C
0063E00C
00C3E00C
00C3E004
0183E004
0183E080
0303E080
0303E180
0203E380
07FFFF80
07FFE380
0C03E180
0C03E080
1803E080
1803E001
3803E003
3003E006
7003E00E
7003E03E
F807FFFC
FE1FFFFC
ENDCHAR
STARTCHAR Ccedilla
ENCODING 199
SWIDTH 722 0
DWIDTH 24 0
BBX 19 30 2 -7
BITMAP
01FC20
07FF60
0F07E0
1E01E0
3C00E0
7C0060
7C0060
F80020
F80000
F80000
F80000
F80000
F80000
F80000
F80000
F80000
7C0000
7C0000
3C0020
1E0060
0F81C0
03FF80
00FE00
001800
003000
007000
003800
031800
03B800
01F000
ENDCHAR
STARTCHAR Egrave
ENCODING 200
SWIDTH 667 0
DWIDTH 22 0
BBX 21 30 0 0
BITMAP
060000
070000
038000
01C000
006000
003000
000000
FFFFE0
3FFFE0
1F00E0
1F0060
1F0060
1F0020
1F0020
1F0400
1F0400
1F0C00
1F1C00
1FFC00
1F1C00
1F0C00
1F0400
1F0400
1F0008
1F0018
1F0030
1F0070
1F01F0
3FFFE0
FFFFE0
ENDCHAR
STARTCHAR Eacute
ENCODING 201
SWIDTH 667 0
DWIDTH 22 0
BBX 21 30 0 0
BITMAP
000180
000380
000700
000E00
001800
003000
000000
FFFFE0
3FFFE0
1F00E0
1F0060
1F0060
1F0020
1F0020
1F0400
1F0400
1F0C00
1F1C00
1FFC00
1F1C00
1F0C00
1F0400
1F0400
1F0008
1F0018
1F0030
1F0070
1F01F0
3FFFE0
FFFFE0
ENDCHAR
STARTCHAR Ecircumflex
ENCODING 202
SWIDTH 667 0
DWIDTH 22 0
BBX 21 30 0 0
BITMAP
003000
007800
00FC00
00CC00
018600
010200
000000
FFFFE0
3FFFE0
1F00E0
1F0060
1F0060
1F0020
1F0020
1F0400
1F0400
1F0C00
1F1C00
1FFC00
1F1C00
1F0C00
1F0400
1F0400
1F0008
1F0018
1F0030
1F0070
1F01F0
3FFFE0
FFFFE0
ENDCHAR
STARTCHAR Edieresis
ENCODING 203
SWIDTH 667 0
DWIDTH 22 0
BBX 21 29 0 0
BITMAP
008400
01CE00
01CE00
008400
000000
000000
FFFFE0
3FFFE0
1F00E0
1F0060
1F0060
1F0020
1F0020
1F0400
1F0400
1F0C00
1F1C00
1FFC00
1F1C00
1F0C00
1F0400
1F0400
1F0008
1F0018
1F0030
1F0070
1F01F0
3FFFE0
FFFFE0
ENDCHAR
STARTCHAR Igrave
ENCODING 204
SWIDTH 389 0
DWIDTH 13 0
BBX 11 30 1 0
BITMAP
C000
E000
7000
3800
0C00
0600
0000
FFE0
3F80
1F00
1F00
1F00
1F00
1F00
1F00
1F00
1F00
1F00
1F00
1F00
1F00
1F00
1F00
1F00
1F00
1F00
1F00
1F00
3F80
FFE0
ENDCHAR
STARTCHAR Iacute
ENCODING 205
SWIDTH 389 0
DWIDTH 13 0
BBX 12 30 1 0
BITMAP
0030
0070
00E0
01C0
0300
0600
0000
FFE0
3F80
1F00
1F00
1F00
1F00
1F00
1F00
1F00
1F00
1F00
1F00
1F00
1F00
1F00
1F00
1F00
1F00
1F00
1F00
1F00
3F80
FFE0
ENDCHAR
STARTCHAR Icircumflex
ENCODING 206
SWIDTH 389 0
DWIDTH 13 0
BBX 11 30 1 0
BITMAP
0600
0F00
1F80
1980
30C0
2040
0000
FFE0
3F80
1F00
1F00
1F00
1F00
1F00
1F00
1F00
1F00
1F00
1F00
1F00
1F00
1F00
1F00
1F00
1F00
1F00
1F00
1F00
3F80
FFE0
ENDCHAR
STARTCHAR Idieresis
ENCODING 207
SWIDTH 389 0
DWIDTH 13 0
BBX 11 29 1 0
BITMAP
1080
39C0
39C0
1080
0000
0000
FFE0
3F80
1F00
1F00
1F00
1F00
1F00
1F00
1F00
1F00
1F00
1F00
1F00
1F00
1F00
1F00
1F00
1F00
1F00
1F00
1F00
3F80
FFE0
ENDCHAR
STARTCHAR Eth
ENCODING 208
SWIDTH 722 0
DWIDTH 24 0
BBX 22 23 0 0
BITMAP
FFFE00
3F0F80
1F03E0
1F01F0
1F01F0
1F00F8
1F00F8
1F00FC
1F00FC
1F00FC
FFF07C
FFF07C
FFF07C
1F007C
1F00FC
1F00F8
1F00F8
1F00F8
1F01F0
1F01E0
1F03C0
3F0F80
7FFE00
ENDCHAR
STARTCHAR Ntilde
ENCODING 209
SWIDTH 722 0
DWIDTH 24 0
BBX 22 29 1 0
BITMAP
006100
00FB00
01BE00
010C00
000000
000000
FE01FC
7F0070
3F8020
1F8020
1FC020
1FE020
17F020
13F820
11F820
11FC20
10FE20
107F20
103F20
101FA0
101FE0
100FE0
1007E0
1003E0
1003E0
1001E0
1000E0
380060
FE0020
ENDCHAR
STARTCHAR Ograve
ENCODING 210
SWIDTH 778 0
DWIDTH 25 0
BBX 21 30 2 0
BITMAP
060000
070000
038000
01C000
006000
003000
000000
01FC00
07FF00
0F8F80
1E03C0
3C01E0
7C01F0
7800F0
F800F8
F800F8
F800F8
F800F8
F800F8
F800F8
F800F8
F800F8
F800F8
7800F0
7C01F0
3C01E0
1E03C0
0F8F80
07FF00
01FC00
ENDCHAR
STARTCHAR Oacute
ENCODING 211
SWIDTH 778 0
DWIDTH 25 0
BBX 21 30 2 0
BITMAP
000380
000700
000E00
001800
003000
006000
000000
01FC00
07FF00
0F8F80
1E03C0
3C01E0
7C01F0
7800F0
F800F8
F800F8
F800F8
F800F8
F800F8
F800F8
F800F8
F800F8
F800F8
7800F0
7C01F0
3C01E0
1E03C0
0F8F80
07FF00
01FC00
ENDCHAR
STARTCHAR Ocircumflex
ENCODING 212
SWIDTH 778 0
DWIDTH 25 0
BBX 21 30 2 0
BITMAP
003000
007800
00FC00
00CC00
018600
010200
000000
01FC00
07FF00
0F8F80
1E03C0
3C01E0
7C01F0
7800F0
F800F8
F800F8
F800F8
F800F8
F800F8
F800F8
F800F8
F800F8
F800F8
7800F0
7C01F0
3C01E0
1E03C0
0F8F80
07FF00
01FC00
ENDCHAR
STARTCHAR Otilde
ENCODING 213
SWIDTH 778 0
DWIDTH 25 0
BBX 21 29 2 0
BITMAP
00C200
01F600
037C00
021800
000000
000000
01FC00
07FF00
0F8F80
1E03C0
3C01E0
7C01F0
7800F0
F800F8
F800F8
F800F8
F800F8
F800F8
F800F8
F800F8
F800F8
F800F8
7800F0
7C01F0
3C01E0
1E03C0
0F8F80
07FF00
01FC00
ENDCHAR
STARTCHAR Odieresis
ENCODING 214
SWIDTH 778 0
DWIDTH 25 0
BBX 21 29 2 0
BITMAP
008400
01CE00
01CE00
008400
000000
000000
01FC00
07FF00
0F8F80
1E03C0
3C01E0
7C01F0
7800F0
F800F8
F800F8
F800F8
F800F8
F800F8
F800F8
F800F8
F800F8
F800F8
7800F0
7C01F0
3C01E0
1E03C0
0F8F80
07FF00
01FC00
ENDCHAR
STARTCHAR multiply
ENCODING 215
SWIDTH 570 0
DWIDTH 19 0
BBX 15 16 2 0
BITMAP
4004
E00E
F01E
783C
3C78
1EF0
0FE0
07C0
07C0
0FE0
1EF0
3C78
783C
F01E
E00E
4004
ENDCHAR
STARTCHAR Oslash
ENCODING 216
SWIDTH 778 0
DWIDTH 26 0
BBX 21 27 2 -2
BITMAP
000030
000060
01FC40
078FC0
0E0380
1E01C0
3C03E0
7C06F0
7804F0
F80CF8
F818F8
F818F8
F830F8
F820F8
F860F8
F8C0F8
F880F8
F980F8
7B00F0
7E01F0
3E01E0
1C03C0
0E0780
1FFE00
11F800
300000
600000
ENDCHAR
STARTCHAR Ugrave
ENCODING 217
SWIDTH 722 0
DWIDTH 24 0
BBX 23 30 0 0
BITMAP
00C000
00E000
007000
003800
000C00
000200
000000
FFE0FE
3F8038
1F0010
1F0010
1F0010
1F0010
1F0010
1F0010
1F0010
1F0010
1F0010
1F0010
1F0010
1F0010
1F0010
1F0010
1F0010
1F0030
0F8030
0F8060
07C0C0
03FF80
00FE00
ENDCHAR
STARTCHAR Uacute
ENCODING 218
SWIDTH 722 0
DWIDTH 24 0
BBX 23 30 0 0
BITMAP
0000C0
0001C0
000380
000700
000C00
001000
000000
FFE0FE
3F8038
1F0010
1F0010
1F0010
1F0010
1F0010
1F0010
1F0010
1F0010
1F0010
1F0010
1F0010
1F0010
1F0010
1F0010
1F0010
1F0030
0F8030
0F8060
07C0C0
03FF80
00FE00
ENDCHAR
STARTCHAR Ucircumflex
ENCODING 219
SWIDTH 722 0
DWIDTH 24 0
BBX 23 30 0 0
BITMAP
000C00
001E00
003F00
003300
006180
004080
000000
FFE0FE
3F8038
1F0010
1F0010
1F0010
1F0010
1F0010
1F0010
1F0010
1F0010
1F0010
1F0010
1F0010
1F0010
1F0010
1F0010
1F0010
1F0030
0F8030
0F8060
07C0C0
03FF80
00FE00
ENDCHAR
STARTCHAR Udieresis
ENCODING 220
SWIDTH 722 0
DWIDTH 24 0
BBX 23 29 0 0
BITMAP
002100
007380
007380
002100
000000
000000
FFE0FE
3F8038
1F0010
1F0010
1F0010
1F0010
1F0010
1F0010
1F0010
1F0010
1F0010
1F0010
1F0010
1F0010
1F0010
1F0010
1F0010
1F0030
0F8030
0F8060
07C0C0
03FF80
00FE00
ENDCHAR
STARTCHAR Yacute
ENCODING 221
SWIDTH 722 0
DWIDTH 24 0
BBX 22 30 1 0
BITMAP
0000C0
0001C0
000380
000700
000C00
001000
000000
FFC3FC
7F00F0
3F0060
3F0060
1F80C0
1F8080
0FC180
0FC300
07E300
03E600
03F400
01FC00
01F800
00F800
00F800
00F800
00F800
00F800
00F800
00F800
00F800
01FC00
07FF00
ENDCHAR
STARTCHAR Thorn
ENCODING 222
SWIDTH 611 0
DWIDTH 20 0
BBX 19 23 0 0
BITMAP
FFE000
3F8000
1F0000
1F0000
1FFE00
1F0F80
1F07C0
1F07E0
1F03E0
1F03E0
1F03E0
1F03E0
1F07E0
1F07C0
1F1F80
1FFE00
1F0000
1F0000
1F0000
1F0000
1F0000
3F8000
FFE000
ENDCHAR
STARTCHAR germandbls
ENCODING 223
SWIDTH 556 0
DWIDTH 19 0
BBX 17 23 0 0
BITMAP
03F000
0E3C00
1E3E00
1C1E00
3C1E00
3C1E00
3C1E00
3C1E00
3C1C00
3C3800
3CE000
3C3C00
3C1E00
3C0F00
3C0F00
3C0F80
3C0F80
3C0F80
3C0F80
3C0F00
3C0F00
3C1E00
FC7C00
ENDCHAR
STARTCHAR agrave
ENCODING 224
SWIDTH 500 0
DWIDTH 16 0
BBX 14 23 1 0
BITMAP
3000
3800
1C00
0E00
0300
0080
0000
1F80
31E0
70F0
78F0
78F0
30F0
01F0
07F0
1CF0
38F0
78F0
F0F0
F9F0
FFF4
7EFC
3C78
ENDCHAR
STARTCHAR aacute
ENCODING 225
SWIDTH 500 0
DWIDTH 16 0
BBX 14 23 1 0
BITMAP
0030
0070
00E0
01C0
0300
0400
0000
1F80
31E0
70F0
78F0
78F0
30F0
01F0
07F0
1CF0
38F0
78F0
F0F0
F9F0
FFF4
7EFC
3C78
ENDCHAR
STARTCHAR acircumflex
ENCODING 226
SWIDTH 500 0
DWIDTH 16 0
BBX 14 23 1 0
BITMAP
0300
0780
0FC0
0CC0
1860
1020
0000
1F80
31E0
70F0
78F0
78F0
30F0
01F0
07F0
1CF0
38F0
78F0
F0F0
F9F0
FFF4
7EFC
3C78
ENDCHAR
STARTCHAR atilde
ENCODING 227
SWIDTH 500 0
DWIDTH 16 0
BBX 14 22 1 0
BITMAP
0C20
1F60
37C0
2180
0000
0000
1F80
31E0
70F0
78F0
78F0
30F0
01F0
07F0
1CF0
38F0
78F0
F0F0
F9F0
FFF4
7EFC
3C78
ENDCHAR
STARTCHAR adieresis
ENCODING 228
SWIDTH 500 0
DWIDTH 16 0
BBX 14 22 1 0
BITMAP
0840
1CE0
1CE0
0840
0000
0000
1F80
31E0
70F0
78F0
78F0
30F0
01F0
07F0
1CF0
38F0
78F0
F0F0
F9F0
FFF4
7EFC
3C78
ENDCHAR
STARTCHAR aring
ENCODING 229
SWIDTH 500 0
DWIDTH 16 0
BBX 14 25 1 0
BITMAP
0700
0D80
18C0
1040
18C0
0D80
0700
0000
0000
1F80
31E0
70F0
78F0
78F0
30F0
01F0
07F0
1CF0
38F0
78F0
F0F0
F9F0
FFF4
7EFC
3C78
ENDCHAR
STARTCHAR ae
ENCODING 230
SWIDTH 722 0
DWIDTH 24 0
BBX 21 16 1 0
BITMAP
1F87C0
31EEE0
70FC70
78F870
78F838
30F838
01F838
07FFF8
1CF800
38F800
78FC00
F8FC08
F8FE18
FFFFF0
7E3FE0
3C0FC0
ENDCHAR
STARTCHAR ccedilla
ENCODING 231
SWIDTH 444 0
DWIDTH 15 0
BBX 13 23 1 -7
BITMAP
07E0
1EF0
3C78
7878
7830
F000
F000
F000
F000
F000
F800
7800
7800
3C30
1FE0
0FC0
0300
0600
0600
0380
3180
3B80
1F00
ENDCHAR
STARTCHAR egrave
ENCODING 232
SWIDTH 444 0
DWIDTH 15 0
BBX 14 23 0 0
BITMAP
3000
3800
1C00
0E00
0300
0080
0000
07C0
1EF0
3C70
7838
783C
F83C
F83C
FFFC
F800
F800
F800
7800
7C00
3E18
1FF0
07E0
ENDCHAR
STARTCHAR eacute
ENCODING 233
SWIDTH 444 0
DWIDTH 15 0
BBX 14 23 0 0
BITMAP
0018
0038
0070
00E0
0180
0200
0000
07C0
1EF0
3C70
7838
783C
F83C
F83C
FFFC
F800
F800
F800
7800
7C00
3E18
1FF0
07E0
ENDCHAR
STARTCHAR ecircumflex
ENCODING 234
SWIDTH 444 0
DWIDTH 15 0
BBX 14 23 0 0
BITMAP
0300
0780
0FC0
0CC0
1860
1020
0000
07C0
1EF0
3C70
7838
783C
F83C
F83C
FFFC
F800
F800
F800
7800
7C00
3E18
1FF0
07E0
ENDCHAR
STARTCHAR edieresis
ENCODING 235
SWIDTH 444 0
DWIDTH 15 0
BBX 14 22 0 0
BITMAP
0420
0E70
0E70
0420
0000
0000
07C0
1EF0
3C70
7838
783C
F83C
F83C
FFFC
F800
F800
F800
7800
7C00
3E18
1FF0
07E0
ENDCHAR
STARTCHAR igrave
ENCODING 236
SWIDTH 278 0
DWIDTH 9 0
BBX 8 23 0 0
BITMAP
C0
E0
70
38
0C
02
00
FC
7C
3C
3C
3C
3C
3C
3C
3C
3C
3C
3C
3C
3C
7E
FF
ENDCHAR
STARTCHAR iacute
ENCODING 237
SWIDTH 278 0
DWIDTH 9 0
BBX 8 23 0 0
BITMAP
03
07
0E
1C
30
40
00
FC
7C
3C
3C
3C
3C
3C
3C
3C
3C
3C
3C
3C
3C
7E
FF
ENDCHAR
STARTCHAR icircumflex
ENCODING 238
SWIDTH 278 0
DWIDTH 9 0
BBX 8 23 0 0
BITMAP
18
3C
7E
66
C3
81
00
FC
7C
3C
3C
3C
3C
3C
3C
3C
3C
3C
3C
3C
3C
7E
FF
ENDCHAR
STARTCHAR idieresis
ENCODING 239
SWIDTH 278 0
DWIDTH 9 0
BBX 8 22 0 0
BITMAP
42
E7
E7
42
00
00
FC
7C
3C
3C
3C
3C
3C
3C
3C
3C
3C
3C
3C
3C
7E
FF
ENDCHAR
STARTCHAR eth
ENCODING 240
SWIDTH 500 0
DWIDTH 17 0
BBX 14 22 1 0
BITMAP
3830
3EF8
0FF8
FF80
FBC0
61E0
0FF0
3CF8
7878
7878
F03C
F03C
F03C
F03C
F03C
F03C
F03C
F03C
7878
7878
3CF0
0FC0
ENDCHAR
STARTCHAR ntilde
ENCODING 241
SWIDTH 556 0
DWIDTH 18 0
BBX 17 22 0 0
BITMAP
030800
07D800
0DF000
086000
000000
000000
FC7800
7DFC00
3F3E00
3E1E00
3E1E00
3C1E00
3C1E00
3C1E00
3C1E00
3C1E00
3C1E00
3C1E00
3C1E00
3C1E00
7E3F00
FF7F80
ENDCHAR
STARTCHAR ograve
ENCODING 242
SWIDTH 500 0
DWIDTH 17 0
BBX 14 23 1 0
BITMAP
3000
3800
1C00
0E00
0300
0080
0000
0FC0
3CF0
7878
7878
F03C
F03C
F03C
F03C
F03C
F03C
F03C
F03C
7878
7878
3CF0
0FC0
ENDCHAR
STARTCHAR oacute
ENCODING 243
SWIDTH 500 0
DWIDTH 17 0
BBX 14 23 1 0
BITMAP
0018
0038
0070
00E0
0180
0200
0000
0FC0
3CF0
7878
7878
F03C
F03C
F03C
F03C
F03C
F03C
F03C
F03C
7878
7878
3CF0
0FC0
ENDCHAR
STARTCHAR ocircumflex
ENCODING 244
SWIDTH 500 0
DWIDTH 17 0
BBX 14 23 1 0
BITMAP
0300
0780
0FC0
0CC0
1860
1020
0000
0FC0
3CF0
7878
7878
F03C
F03C
F03C
F03C
F03C
F03C
F03C
F03C
7878
7878
3CF0
0FC0
ENDCHAR
STARTCHAR otilde
ENCODING 245
SWIDTH 500 0
DWIDTH 17 0
BBX 14 22 1 0
BITMAP
0C20
1F60
37C0
2180
0000
0000
0FC0
3CF0
7878
7878
F03C
F03C
F03C
F03C
F03C
F03C
F03C
F03C
7878
7878
3CF0
0FC0
ENDCHAR
STARTCHAR odieresis
ENCODING 246
SWIDTH 500 0
DWIDTH 17 0
BBX 14 22 1 0
BITMAP
0840
1CE0
1CE0
0840
0000
0000
0FC0
3CF0
7878
7878
F03C
F03C
F03C
F03C
F03C
F03C
F03C
F03C
7878
7878
3CF0
0FC0
ENDCHAR
STARTCHAR divide
ENCODING 247
SWIDTH 570 0
DWIDTH 19 0
BBX 14 15 2 1
BITMAP
0300
0780
0780
0300
0000
0000
FFFC
FFFC
FFFC
0000
0000
0300
0780
0780
0300
ENDCHAR
STARTCHAR oslash
ENCODING 248
SWIDTH 500 0
DWIDTH 17 0
BBX 14 22 1 -3
BITMAP
0008
0018
0018
0FF0
3CF0
7878
7878
F0FC
F1BC
F13C
F33C
F23C
F63C
FC3C
F83C
7878
7878
3CF0
6FC0
6000
C000
8000
ENDCHAR
STARTCHAR ugrave
ENCODING 249
SWIDTH 556 0
DWIDTH 18 0
BBX 17 23 0 0
BITMAP
180000
1C0000
0E0000
070000
018000
004000
000000
FC7E00
7C3E00
3C1E00
3C1E00
3C1E00
3C1E00
3C1E00
3C1E00
3C1E00
3C1E00
3C1E00
3C1E00
3C3E00
3E7F00
1FDF80
078C00
ENDCHAR
STARTCHAR uacute
ENCODING 250
SWIDTH 556 0
DWIDTH 18 0
BBX 17 23 0 0
BITMAP
000C00
001C00
003800
007000
00C000
010000
000000
FC7E00
7C3E00
3C1E00
3C1E00
3C1E00
3C1E00
3C1E00
3C1E00
3C1E00
3C1E00
3C1E00
3C1E00
3C3E00
3E7F00
1FDF80
078C00
ENDCHAR
STARTCHAR ucircumflex
ENCODING 251
SWIDTH 556 0
DWIDTH 18 0
BBX 17 23 0 0
BITMAP
018000
03C000
07E000
066000
0C3000
081000
000000
FC7E00
7C3E00
3C1E00
3C1E00
3C1E00
3C1E00
3C1E00
3C1E00
3C1E00
3C1E00
3C1E00
3C1E00
3C3E00
3E7F00
1FDF80
078C00
ENDCHAR
STARTCHAR udieresis
ENCODING 252
SWIDTH 556 0
DWIDTH 18 0
BBX 17 22 0 0
BITMAP
042000
0E7000
0E7000
042000
000000
000000
FC7E00
7C3E00
3C1E00
3C1E00
3C1E00
3C1E00
3C1E00
3C1E00
3C1E00
3C1E00
3C1E00
3C1E00
3C3E00
3E7F00
1FDF80
078C00
ENDCHAR
STARTCHAR yacute
ENCODING 253
SWIDTH 500 0
DWIDTH 17 0
BBX 15 30 0 -7
BITMAP
000C
001C
0038
0070
00C0
0100
0000
FFBE
7E0C
3E08
3E08
1F18
1F10
0F10
0FB0
0FA0
07A0
07E0
07C0
03C0
03C0
0180
0180
0180
0100
7300
F300
F600
FE00
7800
ENDCHAR
STARTCHAR thorn
ENCODING 254
SWIDTH 556 0
DWIDTH 19 0
BBX 15 29 1 -7
BITMAP
FC00
7C00
3C00
3C00
3C00
3C00
3CE0
3FF8
3E7C
3C3C
3C3E
3C1E
3C1E
3C1E
3C1E
3C1E
3C1E
3C1E
3C3C
3E3C
3FF8
3CE0
3C00
3C00
3C00
3C00
3C00
7E00
FF00
ENDCHAR
STARTCHAR ydieresis
ENCODING 255
SWIDTH 500 0
DWIDTH 17 0
BBX 15 29 0 -7
BITMAP
0420
0E70
0E70
0420
0000
0000
FFBE
7E0C
3E08
3E08
1F18
1F10
0F10
0FB0
0FA0
07A0
07E0
07C0
03C0
03C0
0180
0180
0180
0100
7300
F300
F600
FE00
7800
ENDCHAR
STARTCHAR Amacron
ENCODING 256
SWIDTH 722 0
DWIDTH 24 0
BBX 21 26 1 0
BITMAP
03FE00
03FE00
000000
002000
006000
007000
00F000
00F800
00F800
01F800
017C00
017C00
033E00
023E00
063E00
061F00
041F00
0C0F00
0FFF80
180F80
1807C0
1007C0
3003E0
3003E0
7007F0
FC1FF8
ENDCHAR
STARTCHAR amacron
ENCODING 257
SWIDTH 500 0
DWIDTH 16 0
BBX 14 19 1 0
BITMAP
3FE0
3FE0
0000
1F80
31E0
70F0
78F0
78F0
30F0
01F0
07F0
1CF0
38F0
78F0
F0F0
F9F0
FFF4
7EFC
3C78
ENDCHAR
STARTCHAR Abreve
ENCODING 258
SWIDTH 722 0
DWIDTH 24 0
BBX 21 28 1 0
BITMAP
020200
030600
01FC00
00F800
000000
002000
006000
007000
00F000
00F800
00F800
01F800
017C00
017C00
033E00
023E00
063E00
061F00
041F00
0C0F00
0FFF80
180F80
1807C0
1007C0
3003E0
3003E0
7007F0
FC1FF8
ENDCHAR
STARTCHAR abreve
ENCODING 259
SWIDTH 500 0
DWIDTH 16 0
BBX 14 21 1 0
BITMAP
2020
3060
1FC0
0F80
0000
1F80
31E0
70F0
78F0
78F0
30F0
01F0
07F0
1CF0
38F0
78F0
F0F0
F9F0
FFF4
7EFC
3C78
ENDCHAR
STARTCHAR Aogonek
ENCODING 260
SWIDTH 722 0
DWIDTH 24 0
BBX 21 29 1 -6
BITMAP
002000
006000
007000
00F000
00F800
00F800
01F800
017C00
017C00
033E00
023E00
063E00
061F00
041F00
0C0F00
0FFF80
180F80
1807C0
1007C0
3003E0
3003E0
701FF0
FC3FF8
003000
007000
006000
007300
003F00
001E00
ENDCHAR
STARTCHAR aogonek
ENCODING 261
SWIDTH 500 0
DWIDTH 16 0
BBX 14 22 1 -6
BITMAP
1F80
31E0
70F0
78F0
78F0
30F0
01F0
07F0
1CF0
38F0
78F0
F0F0
F9F0
FFF4
7FFC
3F78
0600
0E00
0C00
0E60
07E0
03C0
ENDCHAR
STARTCHAR Cacute
ENCODING 262
SWIDTH 722 0
DWIDTH 24 0
BBX 19 30 2 0
BITMAP
000600
000E00
001C00
003800
006000
008000
000000
01FC20
07FF60
0F07E0
1E01E0
3C00E0
7C0060
7C0060
F80020
F80000
F80000
F80000
F80000
F80000
F80000
F80000
F80000
7C0000
7C0000
3C0020
1E0060
0F81C0
03FF80
00FE00
ENDCHAR
STARTCHAR cacute
ENCODING 263
SWIDTH 444 0
DWIDTH 15 0
BBX 14 23 1 0
BITMAP
0030
0070
00E0
01C0
0300
0400
0000
07F0
1E78
3C3C
7C3C
7818
F800
F800
F800
F800
F800
F800
F800
7C00
3E18
1FF0
0FE0
ENDCHAR
STARTCHAR Ccircumflex
ENCODING 264
SWIDTH 722 0
DWIDTH 24 0
BBX 19 30 2 0
BITMAP
00F000
00F000
01F800
019800
030C00
030C00
000000
01FC20
07FF60
0F07E0
1E01E0
3C00E0
7C0060
7C0060
F80020
F80000
F80000
F80000
F80000
F80000
F80000
F80000
F80000
7C0000
7C0000
3C0020
1E0060
0F81C0
03FF80
00FE00
ENDCHAR
STARTCHAR ccircumflex
ENCODING 265
SWIDTH 444 0
DWIDTH 15 0
BBX 14 23 1 0
BITMAP
0780
0780
0FC0
0CC0
1860
1860
0000
07F0
1E78
3C3C
7C3C
7818
F800
F800
F800
F800
F800
F800
F800
7C00
3E18
1FF0
0FE0
ENDCHAR
STARTCHAR Cdotaccent
ENCODING 266
SWIDTH 722 0
DWIDTH 24 0
BBX 19 28 2 0
BITMAP
006000
00F000
00F000
006000
000000
01FC20
07FF60
0F07E0
1E01E0
3C00E0
7C0060
7C0060
F80020
F80000
F80000
F80000
F80000
F80000
F80000
F80000
F80000
7C0000
7C0000
3C0020
1E0060
0F81C0
03FF80
00FE00
ENDCHAR
STARTCHAR cdotaccent
ENCODING 267
SWIDTH 444 0
DWIDTH 15 0
BBX 14 21 1 0
BITMAP
0300
0780
0780
0300
0000
07F0
1E78
3C3C
7C3C
7818
F800
F800
F800
F800
F800
F800
F800
7C00
3E18
1FF0
0FE0
ENDCHAR
STARTCHAR Ccaron
ENCODING 268
SWIDTH 722 0
DWIDTH 24 0
BBX 19 30 2 0
BITMAP
030C00
030C00
019800
01F800
00F000
00F000
000000
01FC20
07FF60
0F07E0
1E01E0
3C00E0
7C0060
7C0060
F80020
F80000
F80000
F80000
F80000
F80000
F80000
F80000
F80000
7C0000
7C0000
3C0020
1E0060
0F81C0
03FF80
00FE00
ENDCHAR
STARTCHAR ccaron
ENCODING 269
SWIDTH 444 0
DWIDTH 15 0
BBX 14 23 1 0
BITMAP
1860
1860
0CC0
0FC0
0780
0780
0000
07F0
1E78
3C3C
7C3C
7818
F800
F800
F800
F800
F800
F800
F800
7C00
3E18
1FF0
0FE0
ENDCHAR
STARTCHAR Dcaron
ENCODING 270
SWIDTH 722 0
DWIDTH 24 0
BBX 22 30 0 0
BITMAP
030C00
030C00
019800
01F800
00F000
00F000
000000
FFFC00
3FFF80
1F07E0
1F01F0
1F01F0
1F00F8
1F00F8
1F00FC
1F007C
1F007C
1F007C
1F007C
1F007C
1F007C
1F007C
1F00F8
1F00F8
1F00F8
1F01F0
1F01E0
1F07C0
3FFF00
FFFC00
ENDCHAR
STARTCHAR dcaron
ENCODING 271
SWIDTH 861 0
DWIDTH 28 0
BBX 25 23 1 0
BITMAP
00000F00
00FC1F80
007C1F80
003C1F80
003C0F80
003C0180
003C0100
0FBC0300
3FFC0600
7C3C0C00
783C1800
F83C0000
F03C0000
F03C0000
F03C0000
F03C0000
F03C0000
F03C0000
F03C0000
783C0000
7C7E0000
3FFF0000
0FB80000
ENDCHAR
STARTCHAR Dcroat
ENCODING 272
SWIDTH 722 0
DWIDTH 24 0
BBX 22 23 0 0
BITMAP
FFFE00
3F0F80
1F03E0
1F01F0
1F01F0
1F00F8
1F00F8
1F00FC
1F00FC
1F00FC
FFF07C
FFF07C
FFF07C
1F007C
1F00FC
1F00F8
1F00F8
1F00F8
1F01F0
1F01E0
1F03C0
3F0F80
7FFE00
ENDCHAR
STARTCHAR dcroat
ENCODING 273
SWIDTH 556 0
DWIDTH 18 0
BBX 18 22 1 0
BITMAP
00FC00
007C00
003C00
01FFC0
01FFC0
01FFC0
0FBC00
3FFC00
7C3C00
783C00
F83C00
F03C00
F03C00
F03C00
F03C00
F03C00
F03C00
F03C00
783C00
7C7E00
3FFF00
0FB800
ENDCHAR
STARTCHAR Emacron
ENCODING 274
SWIDTH 667 0
DWIDTH 22 0
BBX 21 26 0 0
BITMAP
07FC00
07FC00
000000
FFFFE0
3FFFE0
1F00E0
1F0060
1F0060
1F0020
1F0020
1F0400
1F0400
1F0C00
1F1C00
1FFC00
1F1C00
1F0C00
1F0400
1F0400
1F0008
1F0018
1F0030
1F0070
1F01F0
3FFFE0
FFFFE0
ENDCHAR
STARTCHAR emacron
ENCODING 275
SWIDTH 444 0
DWIDTH 15 0
BBX 14 19 0 0
BITMAP
1FF0
1FF0
0000
07C0
1EF0
3C70
7838
783C
F83C
F83C
FFFC
F800
F800
F800
7800
7C00
3E18
1FF0
07E0
ENDCHAR
STARTCHAR Ebreve
ENCODING 276
SWIDTH 667 0
DWIDTH 22 0
BBX 21 28 0 0
BITMAP
040400
060C00
03F800
01F000
000000
FFFFE0
3FFFE0
1F00E0
1F0060
1F0060
1F0020
1F0020
1F0400
1F0400
1F0C00
1F1C00
1FFC00
1F1C00
1F0C00
1F0400
1F0400
1F0008
1F0018
1F0030
1F0070
1F01F0
3FFFE0
FFFFE0
ENDCHAR
STARTCHAR ebreve
ENCODING 277
SWIDTH 444 0
DWIDTH 15 0
BBX 14 21 0 0
BITMAP
1010
1830
0FE0
07C0
0000
07C0
1EF0
3C70
7838
783C
F83C
F83C
FFFC
F800
F800
F800
7800
7C00
3E18
1FF0
07E0
ENDCHAR
STARTCHAR Edotaccent
ENCODING 278
SWIDTH 667 0
DWIDTH 22 0
BBX 21 28 0 0
BITMAP
006000
00F000
00F000
006000
000000
FFFFE0
3FFFE0
1F00E0
1F0060
1F0060
1F0020
1F0020
1F0400
1F0400
1F0C00
1F1C00
1FFC00
1F1C00
1F0C00
1F0400
1F0400
1F0008
1F0018
1F0030
1F0070
1F01F0
3FFFE0
FFFFE0
ENDCHAR
STARTCHAR edotaccent
ENCODING 279
SWIDTH 444 0
DWIDTH 15 0
BBX 14 21 0 0
BITMAP
0300
0780
0780
0300
0000
07C0
1EF0
3C70
7838
783C
F83C
F83C
FFFC
F800
F800
F800
7800
7C00
3E18
1FF0
07E0
ENDCHAR
STARTCHAR Eogonek
ENCODING 280
SWIDTH 667 0
DWIDTH 22 0
BBX 21 29 0 -6
BITMAP
FFFFE0
3FFFE0
1F00E0
1F0060
1F0060
1F0020
1F0020
1F0400
1F0400
1F0C00
1F1C00
1FFC00
1F1C00
1F0C00
1F0400
1F0400
1F0008
1F0018
1F0030
1F0070
1F01F0
3FFFE0
FFFFE0
00C000
01C000
018000
01CC00
00FC00
007800
ENDCHAR
STARTCHAR eogonek
ENCODING 281
SWIDTH 444 0
DWIDTH 15 0
BBX 14 22 0 -6
BITMAP
07C0
1EF0
3C70
7838
783C
F83C
F83C
FFFC
F800
F800
F800
7800
7C00
3E18
1FF0
07E0
0600
0E00
0C00
0E60
07E0
03C0
ENDCHAR
STARTCHAR Ecaron
ENCODING 282
SWIDTH 667 0
DWIDTH 22 0
BBX 21 30 0 0
BITMAP
030C00
030C00
019800
01F800
00F000
00F000
000000
FFFFE0
3FFFE0
1F00E0
1F0060
1F0060
1F0020
1F0020
1F0400
1F0400
1F0C00
1F1C00
1FFC00
1F1C00
1F0C00
1F0400
1F0400
1F0008
1F0018
1F0030
1F0070
1F01F0
3FFFE0
FFFFE0
ENDCHAR
STARTCHAR ecaron
ENCODING 283
SWIDTH 444 0
DWIDTH 15 0
BBX 14 23 0 0
BITMAP
1860
1860
0CC0
0FC0
0780
0780
0000
07C0
1EF0
3C70
7838
783C
F83C
F83C
FFFC
F800
F800
F800
7800
7C00
3E18
1FF0
07E0
ENDCHAR
STARTCHAR Gcircumflex
ENCODING 284
SWIDTH 778 0
DWIDTH 25 0
BBX 22 30 2 0
BITMAP
007800
007800
00FC00
00CC00
018600
018600
000000
01FC20
07FF60
0F07E0
1E01E0
3C00E0
7C0060
7C0060
F80020
F80000
F80000
F80000
F80000
F80000
F81FFC
F807F0
F803E0
7C03E0
7C03E0
3C03E0
3E03E0
1E07E0
0F8FE0
03FF00
ENDCHAR
STARTCHAR gcircumflex
ENCODING 285
SWIDTH 500 0
DWIDTH 16 0
BBX 14 30 1 -7
BITMAP
0780
0780
0FC0
0CC0
1860
1860
0000
0FC0
3DFC
70FC
F0F0
F078
F078
F078
F078
78F8
3FF0
1FC0
3C00
6000
E000
FFE0
FFF8
7FFC
303C
601C
C00C
E01C
7FF8
1FE0
ENDCHAR
STARTCHAR Gbreve
ENCODING 286
SWIDTH 778 0
DWIDTH 25 0
BBX 22 28 2 0
BITMAP
020200
030600
01FC00
00F800
000000
01FC20
07FF60
0F07E0
1E01E0
3C00E0
7C0060
7C0060
F80020
F80000
F80000
F80000
F80000
F80000
F81FFC
F807F0
F803E0
7C03E0
7C03E0
3C03E0
3E03E0
1E07E0
0F8FE0
03FF00
ENDCHAR
STARTCHAR gbreve
ENCODING 287
SWIDTH 500 0
DWIDTH 16 0
BBX 14 28 1 -7
BITMAP
1010
1830
0FE0
07C0
0000
0FC0
3DFC
70FC
F0F0
F078
F078
F078
F078
78F8
3FF0
1FC0
3C00
6000
E000
FFE0
FFF8
7FFC
303C
601C
C00C
E01C
7FF8
1FE0
ENDCHAR
STARTCHAR Gdotaccent
ENCODING 288
SWIDTH 778 0
DWIDTH 25 0
BBX 22 28 2 0
BITMAP
003000
007800
007800
003000
000000
01FC20
07FF60
0F07E0
1E01E0
3C00E0
7C0060
7C0060
F80020
F80000
F80000
F80000
F80000
F80000
F81FFC
F807F0
F803E0
7C03E0
7C03E0
3C03E0
3E03E0
1E07E0
0F8FE0
03FF00
ENDCHAR
STARTCHAR gdotaccent
ENCODING 289
SWIDTH 500 0
DWIDTH 16 0
BBX 14 28 1 -7
BITMAP
0300
0780
0780
0300
0000
0FC0
3DFC
70FC
F0F0
F078
F078
F078
F078
78F8
3FF0
1FC0
3C00
6000
E000
FFE0
FFF8
7FFC
303C
601C
C00C
E01C
7FF8
1FE0
ENDCHAR
STARTCHAR Gcommaaccent
ENCODING 290
SWIDTH 778 0
DWIDTH 25 0
BBX 22 35 2 -12
BITMAP
01FC20
07FF60
0F07E0
1E01E0
3C00E0
7C0060
7C0060
F80020
F80000
F80000
F80000
F80000
F80000
F81FFC
F807F0
F803E0
7C03E0
7C03E0
3C03E0
3E03E0
1E07E0
0F8FE0
03FF00
000000
003800
007C00
007C00
007C00
003C00
000C00
000800
001800
003000
006000
00C000
ENDCHAR
STARTCHAR gcommaaccent
ENCODING 291
SWIDTH 500 0
DWIDTH 16 0
BBX 14 35 1 -7
BITMAP
00C0
0180
0300
0600
0400
0C00
0F80
0FC0
0FC0
0FC0
0780
0000
0FC0
3DFC
70FC
F0F0
F078
F078
F078
F078
78F8
3FF0
1FC0
3C00
6000
E000
FFE0
FFF8
7FFC
303C
601C
C00C
E01C
7FF8
1FE0
ENDCHAR
STARTCHAR Hcircumflex
ENCODING 292
SWIDTH 778 0
DWIDTH 25 0
BBX 24 30 0 0
BITMAP
003C00
003C00
007E00
006600
00C300
00C300
000000
FFE7FF
3F81FC
1F00F8
1F00F8
1F00F8
1F00F8
1F00F8
1F00F8
1F00F8
1F00F8
1FFFF8
1FFFF8
1F00F8
1F00F8
1F00F8
1F00F8
1F00F8
1F00F8
1F00F8
1F00F8
1F00F8
3F81FC
FFE7FF
ENDCHAR
STARTCHAR hcircumflex
ENCODING 293
SWIDTH 556 0
DWIDTH 18 0
BBX 17 29 0 0
BITMAP
1E0000
1E0000
3F0000
330000
618000
618000
000000
FC0000
7C0000
3C0000
3C0000
3C0000
3C0000
3C7800
3DFC00
3FFE00
3E3E00
3C1E00
3C1E00
3C1E00
3C1E00
3C1E00
3C1E00
3C1E00
3C1E00
3C1E00
3C1E00
7E3F00
FF7F80
ENDCHAR
STARTCHAR Hbar
ENCODING 294
SWIDTH 778 0
DWIDTH 25 0
BBX 24 23 0 0
BITMAP
FFE7FF
3F81FC
1F00F8
1F00F8
1F00F8
FFFFFF
FFFFFF
FFFFFF
1F00F8
1F00F8
1FFFF8
1FFFF8
1F00F8
1F00F8
1F00F8
1F00F8
1F00F8
1F00F8
1F00F8
1F00F8
1F00F8
3F81FC
FFE7FF
ENDCHAR
STARTCHAR hbar
ENCODING 295
SWIDTH 556 0
DWIDTH 18 0
BBX 18 22 -1 0
BITMAP
7E0000
3E0000
1E0000
FFE000
FFE000
FFE000
1E3C00
1EFE00
1FFF00
1F1F00
1E0F00
1E0F00
1E0F00
1E0F00
1E0F00
1E0F00
1E0F00
1E0F00
1E0F00
1E0F00
3F1F80
7FBFC0
ENDCHAR
STARTCHAR Itilde
ENCODING 296
SWIDTH 389 0
DWIDTH 13 0
BBX 11 28 1 0
BITMAP
1840
3CC0
6780
4300
0000
FFE0
3F80
1F00
1F00
1F00
1F00
1F00
1F00
1F00
1F00
1F00
1F00
1F00
1F00
1F00
1F00
1F00
1F00
1F00
1F00
1F00
3F80
FFE0
ENDCHAR
STARTCHAR itilde
ENCODING 297
SWIDTH 278 0
DWIDTH 9 0
BBX 9 21 -1 0
BITMAP
3080
7980
CF00
8600
0000
7E00
3E00
1E00
1E00
1E00
1E00
1E00
1E00
1E00
1E00
1E00
1E00
1E00
1E00
3F00
7F80
ENDCHAR
STARTCHAR Imacron
ENCODING 298
SWIDTH 389 0
DWIDTH 13 0
BBX 11 26 1 0
BITMAP
7FC0
7FC0
0000
FFE0
3F80
1F00
1F00
1F00
1F00
1F00
1F00
1F00
1F00
1F00
1F00
1F00
1F00
1F00
1F00
1F00
1F00
1F00
1F00
1F00
3F80
FFE0
ENDCHAR
STARTCHAR imacron
ENCODING 299
SWIDTH 278 0
DWIDTH 9 0
BBX 9 19 -1 0
BITMAP
FF80
FF80
0000
7E00
3E00
1E00
1E00
1E00
1E00
1E00
1E00
1E00
1E00
1E00
1E00
1E00
1E00
3F00
7F80
ENDCHAR
STARTCHAR Ibreve
ENCODING 300
SWIDTH 389 0
DWIDTH 13 0
BBX 11 28 1 0
BITMAP
4040
60C0
3F80
1F00
0000
FFE0
3F80
1F00
1F00
1F00
1F00
1F00
1F00
1F00
1F00
1F00
1F00
1F00
1F00
1F00
1F00
1F00
1F00
1F00
1F00
1F00
3F80
FFE0
ENDCHAR
STARTCHAR ibreve
ENCODING 301
SWIDTH 278 0
DWIDTH 9 0
BBX 9 21 -1 0
BITMAP
8080
C180
7F00
3E00
0000
7E00
3E00
1E00
1E00
1E00
1E00
1E00
1E00
1E00
1E00
1E00
1E00
1E00
1E00
3F00
7F80
ENDCHAR
STARTCHAR Iogonek
ENCODING 302
SWIDTH 389 0
DWIDTH 13 0
BBX 11 29 1 -6
BITMAP
FFE0
3F80
1F00
1F00
1F00
1F00
1F00
1F00
1F00
1F00
1F00
1F00
1F00
1F00
1F00
1F00
1F00
1F00
1F00
1F00
1F00
3F80
FFE0
0C00
1C00
1800
1CC0
0FC0
0780
ENDCHAR
STARTCHAR iogonek
ENCODING 303
SWIDTH 278 0
DWIDTH 9 0
BBX 8 29 0 -6
BITMAP
18
3C
3C
3C
18
00
00
FC
7C
3C
3C
3C
3C
3C
3C
3C
3C
3C
3C
3C
3C
7E
FF
30
70
60
73
3F
1E
ENDCHAR
STARTCHAR Idotaccent
ENCODING 304
SWIDTH 389 0
DWIDTH 13 0
BBX 11 28 1 0
BITMAP
0600
0F00
0F00
0600
0000
FFE0
3F80
1F00
1F00
1F00
1F00
1F00
1F00
1F00
1F00
1F00
1F00
1F00
1F00
1F00
1F00
1F00
1F00
1F00
1F00
1F00
3F80
FFE0
ENDCHAR
STARTCHAR dotlessi
ENCODING 305
SWIDTH 278 0
DWIDTH 9 0
BBX 8 16 0 0
BITMAP
FC
7C
3C
3C
3C
3C
3C
3C
3C
3C
3C
3C
3C
3C
7E
FF
ENDCHAR
STARTCHAR IJ
ENCODING 306
SWIDTH 870 0
DWIDTH 28 0
BBX 26 26 1 -3
BITMAP
FFE1FFC0
3F807F00
1F003E00
1F003E00
1F003E00
1F003E00
1F003E00
1F003E00
1F003E00
1F003E00
1F003E00
1F003E00
1F003E00
1F003E00
1F003E00
1F003E00
1F003E00
1F003E00
1F003E00
1F0C3E00
1F1E3E00
3F9E3E00
FFFE7C00
001C7C00
000FF800
0003E000
ENDCHAR
STARTCHAR ij
ENCODING 307
SWIDTH 597 0
DWIDTH 20 0
BBX 17 30 0 -7
BITMAP
180300
3C0780
3C0780
3C0780
180300
000000
000000
FC1F80
7C0F80
3C0780
3C0780
3C0780
3C0780
3C0780
3C0780
3C0780
3C0780
3C0780
3C0780
3C0780
3C0780
7E0780
FF0780
000780
000780
00C780
01E780
01E700
00EF00
007C00
ENDCHAR
STARTCHAR Jcircumflex
ENCODING 308
SWIDTH 500 0
DWIDTH 16 0
BBX 15 33 0 -3
BITMAP
01E0
01E0
03F0
0330
0618
0618
0000
0FFE
03F8
01F0
01F0
01F0
01F0
01F0
01F0
01F0
01F0
01F0
01F0
01F0
01F0
01F0
01F0
01F0
01F0
01F0
61F0
F1F0
F1F0
F3E0
E3E0
7FC0
1F00
ENDCHAR
STARTCHAR jcircumflex
ENCODING 309
SWIDTH 333 0
DWIDTH 11 0
BBX 11 30 -2 -7
BITMAP
0780
0780
0FC0
0CC0
1860
1860
0000
0FC0
07C0
03C0
03C0
03C0
03C0
03C0
03C0
03C0
03C0
03C0
03C0
03C0
03C0
03C0
03C0
03C0
03C0
63C0
F3C0
F380
7780
3E00
ENDCHAR
STARTCHAR Kcommaaccent
ENCODING 310
SWIDTH 778 0
DWIDTH 25 0
BBX 24 35 1 -12
BITMAP
FFCFFC
7F03E0
3E01C0
3E0380
3E0700
3E0E00
3E1C00
3E3800
3E7000
3EE000
3FF000
3FF800
3FFC00
3EFE00
3E7F00
3E3F80
3E1FC0
3E0FE0
3E07F0
3E03F8
3E01FC
7F00FE
FFC3FF
000000
001C00
003E00
003E00
003E00
001E00
000600
000400
000C00
001800
003000
006000
ENDCHAR
STARTCHAR kcommaaccent
ENCODING 311
SWIDTH 556 0
DWIDTH 18 0
BBX 18 34 0 -12
BITMAP
FC0000
7C0000
3C0000
3C0000
3C0000
3C0000
3C1F00
3C0E00
3C0C00
3C1800
3C3000
3C6000
3CC000
3DC000
3FE000
3DF000
3CF800
3C7C00
3C3E00
3C1F00
7E0F80
FF1FC0
000000
01C000
03E000
03E000
03E000
01E000
006000
004000
00C000
018000
030000
060000
ENDCHAR
STARTCHAR kgreenlandic
ENCODING 312
SWIDTH 556 0
DWIDTH 18 0
BBX 18 16 0 0
BITMAP
3C1F00
3C0E00
3C0C00
3C1800
3C3000
3C6000
3CC000
3DC000
3FE000
3DF000
3CF800
3C7C00
3C3E00
3C1F00
7E0F80
FF1FC0
ENDCHAR
STARTCHAR Lacute
ENCODING 313
SWIDTH 667 0
DWIDTH 22 0
BBX 20 30 1 0
BITMAP
003000
007000
00E000
01C000
030000
040000
000000
FFE000
3F8000
1F0000
1F0000
1F0000
1F0000
1F0000
1F0000
1F0000
1F0000
1F0000
1F0000
1F0000
1F0000
1F0000
1F0000
1F0010
1F0030
1F0060
1F00E0
1F81E0
3FFFC0
FFFFC0
ENDCHAR
STARTCHAR lacute
ENCODING 314
SWIDTH 278 0
DWIDTH 9 0
BBX 9 29 0 0
BITMAP
0180
0380
0700
0E00
1800
2000
0000
FC00
7C00
3C00
3C00
3C00
3C00
3C00
3C00
3C00
3C00
3C00
3C00
3C00
3C00
3C00
3C00
3C00
3C00
3C00
3C00
7E00
FF00
ENDCHAR
STARTCHAR Lcommaaccent
ENCODING 315
SWIDTH 667 0
DWIDTH 22 0
BBX 20 35 1 -12
BITMAP
FFE000
3F8000
1F0000
1F0000
1F0000
1F0000
1F0000
1F0000
1F0000
1F0000
1F0000
1F0000
1F0000
1F0000
1F0000
1F0000
1F0010
1F0030
1F0060
1F00E0
1F81E0
3FFFC0
FFFFC0
000000
00E000
01F000
01F000
01F000
00F000
003000
002000
006000
00C000
018000
030000
ENDCHAR
STARTCHAR lcommaaccent
ENCODING 316
SWIDTH 278 0
DWIDTH 9 0
BBX 8 34 0 -12
BITMAP
FC
7C
3C
3C
3C
3C
3C
3C
3C
3C
3C
3C
3C
3C
3C
3C
3C
3C
3C
3C
7E
FF
00
1C
3E
3E
3E
1E
06
04
0C
18
30
60
ENDCHAR
STARTCHAR Lcaron
ENCODING 317
SWIDTH 967 0
DWIDTH 32 0
BBX 29 23 1 0
BITMAP
FFE000F0
3F8001F8
1F0001F8
1F0001F8
1F0000F8
1F000018
1F000010
1F000030
1F000060
1F0000C0
1F000180
1F000000
1F000000
1F000000
1F000000
1F000000
1F001000
1F003000
1F006000
1F00E000
1F81E000
3FFFC000
FFFFC000
ENDCHAR
STARTCHAR lcaron
ENCODING 318
SWIDTH 597 0
DWIDTH 20 0
BBX 18 23 0 0
BITMAP
000780
FC0FC0
7C0FC0
3C0FC0
3C07C0
3C00C0
3C0080
3C0180
3C0300
3C0600
3C0C00
3C0000
3C0000
3C0000
3C0000
3C0000
3C0000
3C0000
3C0000
3C0000
3C0000
7E0000
FF0000
ENDCHAR
STARTCHAR Ldot
ENCODING 319
SWIDTH 884 0
DWIDTH 29 0
BBX 26 23 1 0
BITMAP
FFE00000
3F800000
1F000000
1F000000
1F000000
1F000000
1F000000
1F000000
1F000000
1F000000
1F000180
1F0003C0
1F0003C0
1F000180
1F000000
1F000000
1F001000
1F003000
1F006000
1F00E000
1F81E000
3FFFC000
FFFFC000
ENDCHAR
STARTCHAR ldot
ENCODING 320
SWIDTH 514 0
DWIDTH 17 0
BBX 15 22 0 0
BITMAP
FC00
7C00
3C00
3C00
3C00
3C00
3C00
3C00
3C00
3C0C
3C1E
3C1E
3C0C
3C00
3C00
3C00
3C00
3C00
3C00
3C00
7E00
FF00
ENDCHAR
STARTCHAR Lslash
ENCODING 321
SWIDTH 667 0
DWIDTH 22 0
BBX 20 23 0 0
BITMAP
FFE000
3F8000
1F0000
1F0000
1F0000
1F0000
1F1000
1F7000
1FC000
1F8000
1F0000
1F0000
7F0000
DF0000
1F0000
1F0000
1F0010
1F0030
1F0060
1F00E0
1F81E0
3FFFC0
FFFFC0
ENDCHAR
STARTCHAR lslash
ENCODING 322
SWIDTH 278 0
DWIDTH 9 0
BBX 10 22 0 0
BITMAP
7E00
3E00
1E00
1E00
1E00
1E00
1E40
1FC0
1F80
1E00
3E00
7E00
DE00
1E00
1E00
1E00
1E00
1E00
1E00
1E00
3F00
7F80
ENDCHAR
STARTCHAR Nacute
ENCODING 323
SWIDTH 722 0
DWIDTH 24 0
BBX 22 30 1 0
BITMAP
000C00
001C00
003800
007000
00C000
010000
000000
FE01FC
7F0070
3F8020
1F8020
1FC020
1FE020
17F020
13F820
11F820
11FC20
10FE20
107F20
103F20
101FA0
101FE0
100FE0
1007E0
1003E0
1003E0
1001E0
1000E0
380060
FE0020
ENDCHAR
STARTCHAR nacute
ENCODING 324
SWIDTH 556 0
DWIDTH 18 0
BBX 17 23 0 0
BITMAP
001800
003800
007000
00E000
018000
020000
000000
FC7800
7DFC00
3F3E00
3E1E00
3E1E00
3C1E00
3C1E00
3C1E00
3C1E00
3C1E00
3C1E00
3C1E00
3C1E00
3C1E00
7E3F00
FF7F80
ENDCHAR
STARTCHAR Ncommaaccent
ENCODING 325
SWIDTH 722 0
DWIDTH 24 0
BBX 22 35 1 -12
BITMAP
FE01FC
7F0070
3F8020
1F8020
1FC020
1FE020
17F020
13F820
11F820
11FC20
10FE20
107F20
103F20
101FA0
101FE0
100FE0
1007E0
1003E0
1003E0
1001E0
1000E0
380060
FE0020
000000
003800
007C00
007C00
007C00
003C00
000C00
000800
001800
003000
006000
00C000
ENDCHAR
STARTCHAR ncommaaccent
ENCODING 326
SWIDTH 556 0
DWIDTH 18 0
BBX 17 28 0 -12
BITMAP
FC7800
7DFC00
3F3E00
3E1E00
3E1E00
3C1E00
3C1E00
3C1E00
3C1E00
3C1E00
3C1E00
3C1E00
3C1E00
3C1E00
7E3F00
FF7F80
000000
01C000
03E000
03E000
03E000
01E000
006000
004000
00C000
018000
030000
060000
ENDCHAR
STARTCHAR Ncaron
ENCODING 327
SWIDTH 722 0
DWIDTH 24 0
BBX 22 30 1 0
BITMAP
030C00
030C00
019800
01F800
00F000
00F000
000000
FE01FC
7F0070
3F8020
1F8020
1FC020
1FE020
17F020
13F820
11F820
11FC20
10FE20
107F20
103F20
101FA0
101FE0
100FE0
1007E0
1003E0
1003E0
1001E0
1000E0
380060
FE0020
ENDCHAR
STARTCHAR ncaron
ENCODING 328
SWIDTH 556 0
DWIDTH 18 0
BBX 17 23 0 0
BITMAP
0C3000
0C3000
066000
07E000
03C000
03C000
000000
FC7800
7DFC00
3F3E00
3E1E00
3E1E00
3C1E00
3C1E00
3C1E00
3C1E00
3C1E00
3C1E00
3C1E00
3C1E00
3C1E00
7E3F00
FF7F80
ENDCHAR
STARTCHAR napostrophe
ENCODING 329
SWIDTH 872 0
DWIDTH 28 0
BBX 24 23 3 0
BITMAP
780000
FC0000
FC0000
FC0000
7C0000
0C0000
080000
19F8F0
30FBF8
607E7C
C07C3C
007C3C
00783C
00783C
00783C
00783C
00783C
00783C
00783C
00783C
00783C
00FC7E
01FEFF
ENDCHAR
STARTCHAR Eng
ENCODING 330
SWIDTH 722 0
DWIDTH 24 0
BBX 22 30 1 -7
BITMAP
FE01FC
7F0070
3F8020
1F8020
1FC020
1FE020
17F020
13F820
11F820
11FC20
10FE20
107F20
103F20
101FA0
101FE0
100FE0
1007E0
1003E0
1003E0
1001E0
1001E0
3801E0
FE01E0
0001E0
0001E0
0031E0
0079E0
0079C0
003BC0
001F00
ENDCHAR
STARTCHAR eng
ENCODING 331
SWIDTH 556 0
DWIDTH 18 0
BBX 15 23 0 -7
BITMAP
FC78
7DFC
3F3E
3E1E
3E1E
3C1E
3C1E
3C1E
3C1E
3C1E
3C1E
3C1E
3C1E
3C1E
7E1E
FF1E
001E
001E
031E
079E
079C
03BC
01F0
ENDCHAR
STARTCHAR Omacron
ENCODING 332
SWIDTH 778 0
DWIDTH 25 0
BBX 21 26 2 0
BITMAP
03FE00
03FE00
000000
01FC00
07FF00
0F8F80
1E03C0
3C01E0
7C01F0
7800F0
F800F8
F800F8
F800F8
F800F8
F800F8
F800F8
F800F8
F800F8
F800F8
7800F0
7C01F0
3C01E0
1E03C0
0F8F80
07FF00
01FC00
ENDCHAR
STARTCHAR omacron
ENCODING 333
SWIDTH 500 0
DWIDTH 17 0
BBX 14 19 1 0
BITMAP
1FF0
1FF0
0000
0FC0
3CF0
7878
7878
F03C
F03C
F03C
F03C
F03C
F03C
F03C
F03C
7878
7878
3CF0
0FC0
ENDCHAR
STARTCHAR Obreve
ENCODING 334
SWIDTH 778 0
DWIDTH 25 0
BBX 21 28 2 0
BITMAP
020200
030600
01FC00
00F800
000000
01FC00
07FF00
0F8F80
1E03C0
3C01E0
7C01F0
7800F0
F800F8
F800F8
F800F8
F800F8
F800F8
F800F8
F800F8
F800F8
F800F8
7800F0
7C01F0
3C01E0
1E03C0
0F8F80
07FF00
01FC00
ENDCHAR
STARTCHAR obreve
ENCODING 335
SWIDTH 500 0
DWIDTH 17 0
BBX 14 21 1 0
BITMAP
1010
1830
0FE0
07C0
0000
0FC0
3CF0
7878
7878
F03C
F03C
F03C
F03C
F03C
F03C
F03C
F03C
7878
7878
3CF0
0FC0
ENDCHAR
STARTCHAR Ohungarumlaut
ENCODING 336
SWIDTH 778 0
DWIDTH 25 0
BBX 21 31 2 0
BITMAP
006300
00E700
00E700
00C600
01CE00
018C00
018C00
000000
01FC00
07FF00
0F8F80
1E03C0
3C01E0
7C01F0
7800F0
F800F8
F800F8
F800F8
F800F8
F800F8
F800F8
F800F8
F800F8
F800F8
7800F0
7C01F0
3C01E0
1E03C0
0F8F80
07FF00
01FC00
ENDCHAR
STARTCHAR ohungarumlaut
ENCODING 337
SWIDTH 500 0
DWIDTH 17 0
BBX 14 24 1 0
BITMAP
0630
0E70
0E70
0C60
1CE0
18C0
18C0
0000
0FC0
3CF0
7878
7878
F03C
F03C
F03C
F03C
F03C
F03C
F03C
F03C
7878
7878
3CF0
0FC0
ENDCHAR
STARTCHAR OE
ENCODING 338
SWIDTH 1000 0
DWIDTH 33 0
BBX 31 23 2 0
BITMAP
01FFFFF8
078FFFF8
0F07E038
1E03C018
3C03C018
7C03C008
7C03C108
7803C100
F803C300
F803C300
F803CF00
F803FF00
F803CF00
F803C300
F803C300
F803C100
7C03C102
7C03C006
3C03C00C
1E03C01C
0F07E03C
078FFFF8
01FFFFF8
ENDCHAR
STARTCHAR oe
ENCODING 339
SWIDTH 722 0
DWIDTH 24 0
BBX 22 16 1 0
BITMAP
0FC3E0
3CEFF8
787F78
787E3C
F03E1C
F03C1C
F03C1C
F03FFC
F03C00
F03C00
F03C00
F03C00
787E00
787F04
3CEFF8
0F83F0
ENDCHAR
STARTCHAR Racute
ENCODING 340
SWIDTH 722 0
DWIDTH 24 0
BBX 22 30 1 0
BITMAP
000600
000E00
001C00
003800
006000
008000
000000
FFFC00
3F1F80
1F07C0
1F07E0
1F03E0
1F03E0
1F03E0
1F03E0
1F07E0
1F07C0
1F1F80
1FFC00
1F7E00
1F3E00
1F3F00
1F1F80
1F1F80
1F0FC0
1F07E0
1F07E0
1F03F0
3F81F8
FFE1FC
ENDCHAR
STARTCHAR racute
ENCODING 341
SWIDTH 444 0
DWIDTH 15 0
BBX 13 23 1 0
BITMAP
0030
0070
00E0
01C0
0300
0400
0000
FC70
7CF8
3FF8
3F78
3E30
3C00
3C00
3C00
3C00
3C00
3C00
3C00
3C00
3C00
7E00
FF00
ENDCHAR
STARTCHAR Rcommaaccent
ENCODING 342
SWIDTH 722 0
DWIDTH 24 0
BBX 22 35 1 -12
BITMAP
FFFC00
3F1F80
1F07C0
1F07E0
1F03E0
1F03E0
1F03E0
1F03E0
1F07E0
1F07C0
1F1F80
1FFC00
1F7E00
1F3E00
1F3F00
1F1F80
1F1F80
1F0FC0
1F07E0
1F07E0
1F03F0
3F81F8
FFE1FC
000000
003800
007C00
007C00
007C00
003C00
000C00
000800
001800
003000
006000
00C000
ENDCHAR
STARTCHAR rcommaaccent
ENCODING 343
SWIDTH 444 0
DWIDTH 15 0
BBX 13 28 1 -12
BITMAP
FC70
7CF8
3FF8
3F78
3E30
3C00
3C00
3C00
3C00
3C00
3C00
3C00
3C00
3C00
7E00
FF00
0000
0E00
1F00
1F00
1F00
0F00
0300
0200
0600
0C00
1800
3000
ENDCHAR
STARTCHAR Rcaron
ENCODING 344
SWIDTH 722 0
DWIDTH 24 0
BBX 22 30 1 0
BITMAP
030C00
030C00
019800
01F800
00F000
00F000
000000
FFFC00
3F1F80
1F07C0
1F07E0
1F03E0
1F03E0
1F03E0
1F03E0
1F07E0
1F07C0
1F1F80
1FFC00
1F7E00
1F3E00
1F3F00
1F1F80
1F1F80
1F0FC0
1F07E0
1F07E0
1F03F0
3F81F8
FFE1FC
ENDCHAR
STARTCHAR rcaron
ENCODING 345
SWIDTH 444 0
DWIDTH 15 0
BBX 13 23 1 0
BITMAP
1860
1860
0CC0
0FC0
0780
0780
0000
FC70
7CF8
3FF8
3F78
3E30
3C00
3C00
3C00
3C00
3C00
3C00
3C00
3C00
3C00
7E00
FF00
ENDCHAR
STARTCHAR Sacute
ENCODING 346
SWIDTH 556 0
DWIDTH 18 0
BBX 15 30 1 0
BITMAP
0030
0070
00E0
01C0
0300
0400
0000
0FC4
387C
703C
701C
F00C
F00C
F804
FC00
FF00
7FC0
3FF0
1FF8
0FFC
03FC
01FE
807E
803E
C01E
C01E
E01C
F01C
F838
8FE0
ENDCHAR
STARTCHAR sacute
ENCODING 347
SWIDTH 389 0
DWIDTH 13 0
BBX 10 23 1 0
BITMAP
00C0
01C0
0380
0700
0C00
1000
0000
1F40
71C0
60C0
E0C0
F040
FC00
7F00
7F80
3F80
0FC0
03C0
81C0
C1C0
C1C0
E380
BF00
ENDCHAR
STARTCHAR Scircumflex
ENCODING 348
SWIDTH 556 0
DWIDTH 18 0
BBX 15 30 1 0
BITMAP
0780
0780
0FC0
0CC0
1860
1860
0000
0FC4
387C
703C
701C
F00C
F00C
F804
FC00
FF00
7FC0
3FF0
1FF8
0FFC
03FC
01FE
807E
803E
C01E
C01E
E01C
F01C
F838
8FE0
ENDCHAR
STARTCHAR scircumflex
ENCODING 349
SWIDTH 389 0
DWIDTH 13 0
BBX 10 23 1 0
BITMAP
1E00
1E00
3F00
3300
6180
6180
0000
1F40
71C0
60C0
E0C0
F040
FC00
7F00
7F80
3F80
0FC0
03C0
81C0
C1C0
C1C0
E380
BF00
ENDCHAR
STARTCHAR Scedilla
ENCODING 350
SWIDTH 556 0
DWIDTH 18 0
BBX 15 30 1 -7
BITMAP
0FC4
387C
703C
701C
F00C
F00C
F804
FC00
FF00
7FC0
3FF0
1FF8
0FFC
03FC
01FE
807E
803E
C01E
C01E
E01C
F01C
F838
8FE0
0180
0300
0700
0380
3180
3B80
1F00
ENDCHAR
STARTCHAR scedilla
ENCODING 351
SWIDTH 389 0
DWIDTH 13 0
BBX 10 23 1 -7
BITMAP
1F40
71C0
60C0
E0C0
F040
FC00
7F00
7F80
3F80
0FC0
03C0
81C0
C1C0
C1C0
E380
BF00
0600
0C00
1C00
0E00
C600
EE00
7C00
ENDCHAR
STARTCHAR Scaron
ENCODING 352
SWIDTH 556 0
DWIDTH 18 0
BBX 15 27 1 0
BITMAP
1860
1860
0CC0
0FC0
0780
0780
0000
0000
0FC4
387C
703C
701C
F00C
F00C
FC04
7F80
7FE0
1FF8
07FC
80FE
803E
C01E
C01E
E01C
F01C
F838
8FE0
ENDCHAR
STARTCHAR scaron
ENCODING 353
SWIDTH 389 0
DWIDTH 13 0
BBX 10 24 1 0
BITMAP
6180
6180
3300
3F00
1E00
1E00
0000
0000
1F40
71C0
60C0
E0C0
F040
FC00
7F00
7F80
3F80
0FC0
03C0
81C0
C1C0
C1C0
E380
BF00
ENDCHAR
STARTCHAR Tcommaaccent
ENCODING 354
SWIDTH 667 0
DWIDTH 22 0
BBX 19 30 1 -7
BITMAP
FFFFE0
F9F3E0
E1F0E0
C1F060
81F020
81F020
81F020
01F000
01F000
01F000
01F000
01F000
01F000
01F000
01F000
01F000
01F000
01F000
01F000
01F000
01F000
03F800
0FFE00
003000
006000
00E000
007000
063000
077000
03E000
ENDCHAR
STARTCHAR tcommaaccent
ENCODING 355
SWIDTH 333 0
DWIDTH 11 0
BBX 10 28 0 -7
BITMAP
0400
0C00
1C00
1C00
3C00
7F80
FF80
3C00
3C00
3C00
3C00
3C00
3C00
3C00
3C00
3C00
3C00
3C40
3EC0
3F80
1E00
0600
0C00
1C00
0E00
C600
EE00
7C00
ENDCHAR
STARTCHAR Tcaron
ENCODING 356
SWIDTH 667 0
DWIDTH 22 0
BBX 19 30 1 0
BITMAP
030C00
030C00
019800
01F800
00F000
00F000
000000
FFFFE0
F9F3E0
E1F0E0
C1F060
81F020
81F020
81F020
01F000
01F000
01F000
01F000
01F000
01F000
01F000
01F000
01F000
01F000
01F000
01F000
01F000
01F000
03F800
0FFE00
ENDCHAR
STARTCHAR tcaron
ENCODING 357
SWIDTH 649 0
DWIDTH 21 0
BBX 19 23 0 0
BITMAP
0003C0
0007E0
0407E0
0C07E0
1C03E0
1C0060
3C0040
7F80C0
FF8180
3C0300
3C0600
3C0000
3C0000
3C0000
3C0000
3C0000
3C0000
3C0000
3C0000
3C4000
3EC000
3F8000
1E0000
ENDCHAR
STARTCHAR Tbar
ENCODING 358
SWIDTH 667 0
DWIDTH 22 0
BBX 19 23 1 0
BITMAP
FFFFE0
F9F3E0
E1F0E0
C1F060
81F020
81F020
81F020
01F000
01F000
01F000
0FFE00
0FFE00
0FFE00
01F000
01F000
01F000
01F000
01F000
01F000
01F000
01F000
03F800
0FFE00
ENDCHAR
STARTCHAR tbar
ENCODING 359
SWIDTH 333 0
DWIDTH 11 0
BBX 11 21 0 0
BITMAP
0400
0C00
1C00
1C00
3C00
7F80
FF80
3C00
3C00
3C00
3C00
FFE0
FFE0
FFE0
3C00
3C00
3C00
3C40
3EC0
3F80
1E00
ENDCHAR
STARTCHAR Utilde
ENCODING 360
SWIDTH 722 0
DWIDTH 24 0
BBX 23 28 0 0
BITMAP
00C200
01E600
033C00
021800
000000
FFE0FE
3F8038
1F0010
1F0010
1F0010
1F0010
1F0010
1F0010
1F0010
1F0010
1F0010
1F0010
1F0010
1F0010
1F0010
1F0010
1F0010
1F0010
0F8030
0F8060
07C0C0
03FF80
00FE00
ENDCHAR
STARTCHAR utilde
ENCODING 361
SWIDTH 556 0
DWIDTH 18 0
BBX 17 21 0 0
BITMAP
030800
079800
0CF000
086000
000000
FC7E00
7C3E00
3C1E00
3C1E00
3C1E00
3C1E00
3C1E00
3C1E00
3C1E00
3C1E00
3C1E00
3C1E00
3C3E00
3E5F00
1FDF80
078C00
ENDCHAR
STARTCHAR Umacron
ENCODING 362
SWIDTH 722 0
DWIDTH 24 0
BBX 23 26 0 0
BITMAP
03FE00
03FE00
000000
FFE0FE
3F8038
1F0010
1F0010
1F0010
1F0010
1F0010
1F0010
1F0010
1F0010
1F0010
1F0010
1F0010
1F0010
1F0010
1F0010
1F0010
1F0010
0F8030
0F8060
07C0C0
03FF80
00FE00
ENDCHAR
STARTCHAR umacron
ENCODING 363
SWIDTH 556 0
DWIDTH 18 0
BBX 17 19 0 0
BITMAP
0FF800
0FF800
000000
FC7E00
7C3E00
3C1E00
3C1E00
3C1E00
3C1E00
3C1E00
3C1E00
3C1E00
3C1E00
3C1E00
3C1E00
3C3E00
3E5F00
1FDF80
078C00
ENDCHAR
STARTCHAR Ubreve
ENCODING 364
SWIDTH 722 0
DWIDTH 24 0
BBX 23 28 0 0
BITMAP
020200
030600
01FC00
00F800
000000
FFE0FE
3F8038
1F0010
1F0010
1F0010
1F0010
1F0010
1F0010
1F0010
1F0010
1F0010
1F0010
1F0010
1F0010
1F0010
1F0010
1F0010
1F0010
0F8030
0F8060
07C0C0
03FF80
00FE00
ENDCHAR
STARTCHAR ubreve
ENCODING 365
SWIDTH 556 0
DWIDTH 18 0
BBX 17 21 0 0
BITMAP
080800
0C1800
07F000
03E000
000000
FC7E00
7C3E00
3C1E00
3C1E00
3C1E00
3C1E00
3C1E00
3C1E00
3C1E00
3C1E00
3C1E00
3C1E00
3C3E00
3E5F00
1FDF80
078C00
ENDCHAR
STARTCHAR Uring
ENCODING 366
SWIDTH 722 0
DWIDTH 24 0
BBX 23 31 0 0
BITMAP
007000
00D800
018C00
010400
018C00
00D800
007000
000000
FFE0FE
3F8038
1F0010
1F0010
1F0010
1F0010
1F0010
1F0010
1F0010
1F0010
1F0010
1F0010
1F0010
1F0010
1F0010
1F0010
1F0010
1F0010
0F8030
0F8060
07C0C0
03FF80
00FE00
ENDCHAR
STARTCHAR uring
ENCODING 367
SWIDTH 556 0
DWIDTH 18 0
BBX 17 24 0 0
BITMAP
01C000
036000
063000
041000
063000
036000
01C000
000000
FC7E00
7C3E00
3C1E00
3C1E00
3C1E00
3C1E00
3C1E00
3C1E00
3C1E00
3C1E00
3C1E00
3C1E00
3C3E00
3E5F00
1FDF80
078C00
ENDCHAR
STARTCHAR Uhungarumlaut
ENCODING 368
SWIDTH 722 0
DWIDTH 24 0
BBX 23 31 0 0
BITMAP
00C600
01CE00
01CE00
018C00
039C00
031800
031800
000000
FFE0FE
3F8038
1F0010
1F0010
1F0010
1F0010
1F0010
1F0010
1F0010
1F0010
1F0010
1F0010
1F0010
1F0010
1F0010
1F0010
1F0010
1F0010
0F8030
0F8060
07C0C0
03FF80
00FE00
ENDCHAR
STARTCHAR uhungarumlaut
ENCODING 369
SWIDTH 556 0
DWIDTH 18 0
BBX 17 24 0 0
BITMAP
031800
073800
073800
063000
0E7000
0C6000
0C6000
000000
FC7E00
7C3E00
3C1E00
3C1E00
3C1E00
3C1E00
3C1E00
3C1E00
3C1E00
3C1E00
3C1E00
3C1E00
3C3E00
3E5F00
1FDF80
078C00
ENDCHAR
STARTCHAR Uogonek
ENCODING 370
SWIDTH 722 0
DWIDTH 24 0
BBX 23 29 0 -6
BITMAP
FFE0FE
3F8038
1F0010
1F0010
1F0010
1F0010
1F0010
1F0010
1F0010
1F0010
1F0010
1F0010
1F0010
1F0010
1F0010
1F0010
1F0010
1F0010
0F8030
0F8060
07C0C0
03FF80
00FE00
006000
00E000
00C000
00E600
007E00
003C00
ENDCHAR
STARTCHAR uogonek
ENCODING 371
SWIDTH 556 0
DWIDTH 18 0
BBX 17 22 0 -6
BITMAP
FC7E00
7C3E00
3C1E00
3C1E00
3C1E00
3C1E00
3C1E00
3C1E00
3C1E00
3C1E00
3C1E00
3C1E00
3C3E00
3E5F00
1FDF80
07CC00
018000
038000
030000
039800
01F800
00F000
ENDCHAR
STARTCHAR Wcircumflex
ENCODING 372
SWIDTH 1000 0
DWIDTH 33 0
BBX 32 30 0 0
BITMAP
00078000
00078000
000FC000
000CC000
00186000
00186000
00000000
FFEFFF3F
7F03F80E
3F01F80C
1F01F80C
1F01F808
1F81FC18
0F81FC18
0F817C10
0FC37C30
07C27E30
07C63E20
07E63E60
03E43E60
03EC1F40
03F81FC0
01F81FC0
01F80F80
01F00F80
00F00F80
00E00700
00E00700
00E00700
00400200
ENDCHAR
STARTCHAR wcircumflex
ENCODING 373
SWIDTH 722 0
DWIDTH 24 0
BBX 23 23 0 0
BITMAP
007800
007800
00FC00
00CC00
018600
018600
000000
FF7FBE
7E3E1C
3C1E08
3E1E18
1E1F10
1F1F30
1F3F30
0F2FA0
0FE7E0
07E7C0
07C7C0
07C3C0
038380
038380
010100
010100
ENDCHAR
STARTCHAR Ycircumflex
ENCODING 374
SWIDTH 722 0
DWIDTH 24 0
BBX 22 30 1 0
BITMAP
00F000
00F000
01F800
019800
030C00
030C00
000000
FFC3FC
7F00F0
3F0060
3F0060
1F80C0
1F8080
0FC180
0FC300
07E300
03E600
03F400
01FC00
01F800
00F800
00F800
00F800
00F800
00F800
00F800
00F800
00F800
01FC00
07FF00
ENDCHAR
STARTCHAR ycircumflex
ENCODING 375
SWIDTH 500 0
DWIDTH 17 0
BBX 15 30 0 -7
BITMAP
0780
0780
0FC0
0CC0
1860
1860
0000
FFBE
7E0C
3E08
3E08
1F18
1F10
0F10
0FB0
0FA0
07A0
07E0
07C0
03C0
03C0
0180
0180
0180
0100
7300
F300
F600
FE00
7800
ENDCHAR
STARTCHAR Ydieresis
ENCODING 376
SWIDTH 722 0
DWIDTH 24 0
BBX 22 25 1 0
BITMAP
008400
01CE00
01CE00
008400
000000
000000
FFC3FC
7F00F0
3E0060
1F00C0
0F8180
07C300
03E600
01FC00
00F800
00F800
00F800
00F800
00F800
00F800
00F800
00F800
00F800
01FC00
07FF00
ENDCHAR
STARTCHAR Zacute
ENCODING 377
SWIDTH 667 0
DWIDTH 22 0
BBX 19 30 1 0
BITMAP
000C00
001C00
003800
007000
00C000
010000
000000
3FFFC0
7E0F80
781F80
701F00
603F00
407E00
007E00
00FC00
00FC00
01F800
01F000
03F000
03E000
07E000
07C000
0FC020
1F8020
1F8060
3F0060
3F00E0
7E01E0
7E07C0
FFFFC0
ENDCHAR
STARTCHAR zacute
ENCODING 378
SWIDTH 444 0
DWIDTH 15 0
BBX 12 23 1 0
BITMAP
0060
00E0
01C0
0380
0600
0800
0000
FFF0
E3F0
C3E0
87E0
87C0
0F80
0F80
1F00
1F00
3E00
3E10
7C10
7C30
F830
F8F0
FFF0
ENDCHAR
STARTCHAR Zdotaccent
ENCODING 379
SWIDTH 667 0
DWIDTH 22 0
BBX 19 28 1 0
BITMAP
006000
00F000
00F000
006000
000000
3FFFC0
7E0F80
781F80
701F00
603F00
407E00
007E00
00FC00
00FC00
01F800
01F000
03F000
03E000
07E000
07C000
0FC020
1F8020
1F8060
3F0060
3F00E0
7E01E0
7E07C0
FFFFC0
ENDCHAR
STARTCHAR zdotaccent
ENCODING 380
SWIDTH 444 0
DWIDTH 15 0
BBX 12 21 1 0
BITMAP
0600
0F00
0F00
0600
0000
FFF0
E3F0
C3E0
87E0
87C0
0F80
0F80
1F00
1F00
3E00
3E10
7C10
7C30
F830
F8F0
FFF0
ENDCHAR
STARTCHAR Zcaron
ENCODING 381
SWIDTH 667 0
DWIDTH 22 0
BBX 19 27 1 0
BITMAP
061800
061800
033000
03F000
01E000
01E000
000000
000000
3FFFC0
7E0F80
781F80
701F00
603E00
407E00
00FC00
01F800
01F000
03F000
07E000
07C020
0F8020
0F8060
1F0060
3F00E0
3E01E0
7E07C0
FFFFC0
ENDCHAR
STARTCHAR zcaron
ENCODING 382
SWIDTH 444 0
DWIDTH 15 0
BBX 12 24 1 0
BITMAP
30C0
30C0
1980
1F80
0F00
0F00
0000
0000
FFF0
E3F0
C3E0
87E0
87C0
0F80
0F80
1F00
1F00
3E00
3E10
7C10
7C30
F830
F8F0
FFF0
ENDCHAR
STARTCHAR uni0186
ENCODING 390
SWIDTH 722 0
DWIDTH 24 0
BBX 19 23 2 0
BITMAP
0FE000
3FF800
703E00
C00F00
800780
0007C0
0007C0
0003E0
0003E0
0003E0
0003E0
0003E0
0003E0
0003E0
0003E0
8003E0
C007C0
C007C0
E00780
F00F00
FC1E00
DFFC00
87F000
ENDCHAR
STARTCHAR uni0189
ENCODING 393
SWIDTH 722 0
DWIDTH 24 0
BBX 22 23 0 0
BITMAP
FFFE00
3F0F80
1F03E0
1F01F0
1F01F0
1F00F8
1F00F8
1F00FC
1F00FC
1F00FC
FFF07C
FFF07C
FFF07C
1F007C
1F00FC
1F00F8
1F00F8
1F00F8
1F01F0
1F01E0
1F03C0
3F0F80
7FFE00
ENDCHAR
STARTCHAR uni018E
ENCODING 398
SWIDTH 667 0
DWIDTH 22 0
BBX 21 23 0 0
BITMAP
3FFFF8
3FFFE0
7C07C0
7007C0
6007C0
C007C0
8007C0
0107C0
0107C0
0187C0
01C7C0
01FFC0
01C7C0
0187C0
0107C0
0107C0
2007C0
2007C0
3007C0
3007C0
3807C0
3FFFE0
3FFFF8
ENDCHAR
STARTCHAR florin
ENCODING 402
SWIDTH 500 0
DWIDTH 17 0
BBX 17 29 0 -5
BITMAP
003F00
007380
00E780
00C780
01C300
01C000
03C000
03C000
03C000
3FFC00
03C000
03C000
03C000
03C000
03C000
03C000
03C000
03C000
03C000
03C000
078000
078000
078000
078000
670000
E70000
E60000
EE0000
780000
ENDCHAR
STARTCHAR uni0197
ENCODING 407
SWIDTH 389 0
DWIDTH 13 0
BBX 11 23 1 0
BITMAP
FFE0
3F80
1F00
1F00
1F00
1F00
1F00
1F00
1F00
1F00
FFE0
FFE0
FFE0
1F00
1F00
1F00
1F00
1F00
1F00
1F00
1F00
3F80
FFE0
ENDCHAR
STARTCHAR uni019A
ENCODING 410
SWIDTH 278 0
DWIDTH 9 0
BBX 11 22 -1 0
BITMAP
7E00
3E00
1E00
1E00
1E00
1E00
1E00
1E00
1E00
FFE0
FFE0
FFE0
1E00
1E00
1E00
1E00
1E00
1E00
1E00
1E00
3F00
7F80
ENDCHAR
STARTCHAR uni019D
ENCODING 413
SWIDTH 722 0
DWIDTH 24 0
BBX 25 30 -2 -7
BITMAP
1FC03F80
0FE00E00
07F00400
03F00400
03F80400
03FC0400
02FE0400
027F0400
023F0400
023F8400
021FC400
020FE400
0207E400
0203F400
0203FC00
0201FC00
03C0FC00
03C07C00
03C07C00
03C03C00
03C01C00
03C00C00
03C00400
03C00000
03C00000
63C00000
F3C00000
F3800000
77800000
3E000000
ENDCHAR
STARTCHAR uni019F
ENCODING 415
SWIDTH 778 0
DWIDTH 25 0
BBX 21 23 2 0
BITMAP
01FC00
07FF00
0F8F80
1E03C0
3C01E0
7C01F0
7800F0
F800F8
F800F8
F800F8
FFFFF8
FFFFF8
FFFFF8
F800F8
F800F8
F800F8
7800F0
7C01F0
3C01E0
1E03C0
0F8F80
07FF00
01FC00
ENDCHAR
STARTCHAR Ohorn
ENCODING 416
SWIDTH 778 0
DWIDTH 25 0
BBX 25 23 2 0
BITMAP
01FC0F00
07FF1F80
0F8F9F80
1E03DF80
3C01EF80
7C01F180
7800F100
F800FB00
F800FE00
F800FC00
F800F800
F800F800
F800F800
F800F800
F800F800
F800F800
7800F000
7C01F000
3C01E000
1E03C000
0F8F8000
07FF0000
01FC0000
ENDCHAR
STARTCHAR ohorn
ENCODING 417
SWIDTH 500 0
DWIDTH 17 0
BBX 19 16 1 0
BITMAP
0FC3C0
3CF7E0
787FE0
787FE0
F03FE0
F03C60
F03C40
F03CC0
F03D80
F03F00
F03E00
F03C00
787800
787800
3CF000
0FC000
ENDCHAR
STARTCHAR uni01A7
ENCODING 423
SWIDTH 556 0
DWIDTH 18 0
BBX 15 23 1 0
BITMAP
47E0
7C38
781C
701C
601E
601E
403E
007E
01FE
07FC
1FF8
3FF0
7FE0
7F80
FF00
FC02
F802
F006
F006
700E
701E
383E
0FE2
ENDCHAR
STARTCHAR uni01A8
ENCODING 424
SWIDTH 389 0
DWIDTH 13 0
BBX 10 16 1 0
BITMAP
BE00
E380
C180
C1C0
83C0
0FC0
3F80
7F80
7F00
FC00
F000
E040
E0C0
E0C0
71C0
3F40
ENDCHAR
STARTCHAR uni01AE
ENCODING 430
SWIDTH 667 0
DWIDTH 22 0
BBX 19 30 1 -7
BITMAP
FFFFE0
F9F3E0
E1F0E0
C1F060
81F020
81F020
81F020
01F000
01F000
01F000
01F000
01F000
01F000
01F000
01F000
01F000
01F000
00F000
00F000
00F000
00F000
00F000
00F000
00F000
00F000
00F180
00F3C0
0073C0
007B80
001F00
ENDCHAR
STARTCHAR Uhorn
ENCODING 431
SWIDTH 722 0
DWIDTH 24 0
BBX 27 23 0 0
BITMAP
FFE0FFC0
3F803FE0
1F0017E0
1F0017E0
1F0013E0
1F001060
1F001040
1F0010C0
1F001180
1F001300
1F001600
1F001000
1F001000
1F001000
1F001000
1F001000
1F001000
1F001000
0F803000
0F806000
07C0C000
03FF8000
00FE0000
ENDCHAR
STARTCHAR uhorn
ENCODING 432
SWIDTH 556 0
DWIDTH 18 0
BBX 21 16 0 0
BITMAP
FC7EF0
7C3FF8
3C1FF8
3C1FF8
3C1EF8
3C1E18
3C1E10
3C1E30
3C1E60
3C1EC0
3C1F80
3C1E00
3C3E00
3E5F00
1FDF80
078C00
ENDCHAR
STARTCHAR uni01B5
ENCODING 437
SWIDTH 667 0
DWIDTH 22 0
BBX 19 23 1 0
BITMAP
3FFFC0
7E0F80
781F80
701F00
603F00
407E00
007E00
00FC00
00FC00
01F800
0FFE00
0FFE00
0FFE00
07E000
07C000
0FC020
1F8020
1F8060
3F0060
3F00E0
7E01E0
7E07C0
FFFFC0
ENDCHAR
STARTCHAR uni01B6
ENCODING 438
SWIDTH 444 0
DWIDTH 15 0
BBX 12 16 1 0
BITMAP
FFF0
E3F0
C3E0
87E0
87C0
0F80
7FF0
7FF0
7FF0
3E00
3E10
7C10
7C30
F830
F8F0
FFF0
ENDCHAR
STARTCHAR uni01BB
ENCODING 443
SWIDTH 500 0
DWIDTH 16 0
BBX 16 23 0 0
BITMAP
03C0
0FF0
1FF8
3FF8
30FC
607C
407C
007C
0078
0078
FFFF
FFFF
FFFF
01C0
0180
0300
0701
0E03
1C06
3FFE
7FFE
FFFC
FFFC
ENDCHAR
STARTCHAR uni01BC
ENCODING 444
SWIDTH 500 0
DWIDTH 16 0
BBX 13 23 1 0
BITMAP
1FF8
1FF8
1FF8
1FF8
3000
3000
2000
3E00
7F80
7FE0
7FF0
7FF0
03F8
00F8
0078
0038
0038
0038
6030
F030
F860
7FC0
1F00
ENDCHAR
STARTCHAR uni01C0
ENCODING 448
SWIDTH 220 0
DWIDTH 7 0
BBX 2 30 3 -7
BITMAP
C0
C0
C0
C0
C0
C0
C0
C0
C0
C0
C0
C0
C0
C0
C0
C0
C0
C0
C0
C0
C0
C0
C0
C0
C0
C0
C0
C0
C0
C0
ENDCHAR
STARTCHAR uni01C2
ENCODING 450
SWIDTH 570 0
DWIDTH 19 0
BBX 15 30 2 -7
BITMAP
0180
0180
0180
0180
0180
0180
0180
0180
0180
0180
FFFE
FFFE
FFFE
0180
0180
0180
0180
FFFE
FFFE
FFFE
0180
0180
0180
0180
0180
0180
0180
0180
0180
0180
ENDCHAR
STARTCHAR uni01C3
ENCODING 451
SWIDTH 333 0
DWIDTH 11 0
BBX 5 23 3 0
BITMAP
70
F8
F8
F8
F8
F8
F8
70
70
70
70
20
20
20
20
00
00
00
70
F8
F8
F8
70
ENDCHAR
STARTCHAR uni01CD
ENCODING 461
SWIDTH 722 0
DWIDTH 24 0
BBX 21 30 1 0
BITMAP
030C00
030C00
019800
01F800
00F000
00F000
000000
002000
006000
007000
00F000
00F800
00F800
01F800
017C00
017C00
033E00
023E00
063E00
061F00
041F00
0C0F00
0FFF80
180F80
1807C0
1007C0
3003E0
3003E0
7007F0
FC1FF8
ENDCHAR
STARTCHAR uni01CE
ENCODING 462
SWIDTH 500 0
DWIDTH 16 0
BBX 14 23 1 0
BITMAP
1860
1860
0CC0
0FC0
0780
0780
0000
1F80
31E0
70F0
78F0
78F0
30F0
01F0
07F0
1CF0
38F0
78F0
F0F0
F9F0
FFF4
7EFC
3C78
ENDCHAR
STARTCHAR uni01CF
ENCODING 463
SWIDTH 389 0
DWIDTH 13 0
BBX 11 30 1 0
BITMAP
30C0
30C0
1980
1F80
0F00
0F00
0000
FFE0
3F80
1F00
1F00
1F00
1F00
1F00
1F00
1F00
1F00
1F00
1F00
1F00
1F00
1F00
1F00
1F00
1F00
1F00
1F00
1F00
3F80
FFE0
ENDCHAR
STARTCHAR uni01D0
ENCODING 464
SWIDTH 278 0
DWIDTH 9 0
BBX 8 23 0 0
BITMAP
C3
C3
66
7E
3C
3C
00
FC
7C
3C
3C
3C
3C
3C
3C
3C
3C
3C
3C
3C
3C
7E
FF
ENDCHAR
STARTCHAR uni01D1
ENCODING 465
SWIDTH 778 0
DWIDTH 25 0
BBX 21 30 2 0
BITMAP
018600
018600
00CC00
00FC00
007800
007800
000000
01FC00
07FF00
0F8F80
1E03C0
3C01E0
7C01F0
7800F0
F800F8
F800F8
F800F8
F800F8
F800F8
F800F8
F800F8
F800F8
F800F8
7800F0
7C01F0
3C01E0
1E03C0
0F8F80
07FF00
01FC00
ENDCHAR
STARTCHAR uni01D2
ENCODING 466
SWIDTH 500 0
DWIDTH 17 0
BBX 14 23 1 0
BITMAP
1860
1860
0CC0
0FC0
0780
0780
0000
0FC0
3CF0
7878
7878
F03C
F03C
F03C
F03C
F03C
F03C
F03C
F03C
7878
7878
3CF0
0FC0
ENDCHAR
STARTCHAR uni01D3
ENCODING 467
SWIDTH 722 0
DWIDTH 24 0
BBX 23 30 0 0
BITMAP
030C00
030C00
019800
01F800
00F000
00F000
000000
FFE0FE
3F8038
1F0010
1F0010
1F0010
1F0010
1F0010
1F0010
1F0010
1F0010
1F0010
1F0010
1F0010
1F0010
1F0010
1F0010
1F0010
1F0010
0F8030
0F8060
07C0C0
03FF80
00FE00
ENDCHAR
STARTCHAR uni01D4
ENCODING 468
SWIDTH 556 0
DWIDTH 18 0
BBX 17 23 0 0
BITMAP
0C3000
0C3000
066000
07E000
03C000
03C000
000000
FC7E00
7C3E00
3C1E00
3C1E00
3C1E00
3C1E00
3C1E00
3C1E00
3C1E00
3C1E00
3C1E00
3C1E00
3C3E00
3E5F00
1FDF80
078C00
ENDCHAR
STARTCHAR uni01D5
ENCODING 469
SWIDTH 722 0
DWIDTH 24 0
BBX 23 32 0 0
BITMAP
01FF00
01FF00
000000
002100
007380
007380
002100
000000
000000
FFE0FE
3F8038
1F0010
1F0010
1F0010
1F0010
1F0010
1F0010
1F0010
1F0010
1F0010
1F0010
1F0010
1F0010
1F0010
1F0010
1F0010
1F0030
0F8030
0F8060
07C0C0
03FF80
00FE00
ENDCHAR
STARTCHAR uni01D6
ENCODING 470
SWIDTH 556 0
DWIDTH 18 0
BBX 17 25 0 0
BITMAP
0FF800
0FF800
000000
042000
0E7000
0E7000
042000
000000
000000
FC7E00
7C3E00
3C1E00
3C1E00
3C1E00
3C1E00
3C1E00
3C1E00
3C1E00
3C1E00
3C1E00
3C1E00
3C3E00
3E7F00
1FDF80
078C00
ENDCHAR
STARTCHAR uni01D7
ENCODING 471
SWIDTH 722 0
DWIDTH 24 0
BBX 23 36 0 0
BITMAP
000300
000700
000E00
001C00
003000
004000
000000
002100
007380
007380
002100
000000
000000
FFE0FE
3F8038
1F0010
1F0010
1F0010
1F0010
1F0010
1F0010
1F0010
1F0010
1F0010
1F0010
1F0010
1F0010
1F0010
1F0010
1F0010
1F0030
0F8030
0F8060
07C0C0
03FF80
00FE00
ENDCHAR
STARTCHAR uni01D8
ENCODING 472
SWIDTH 556 0
DWIDTH 18 0
BBX 17 29 0 0
BITMAP
001800
003800
007000
00E000
018000
020000
000000
042000
0E7000
0E7000
042000
000000
000000
FC7E00
7C3E00
3C1E00
3C1E00
3C1E00
3C1E00
3C1E00
3C1E00
3C1E00
3C1E00
3C1E00
3C1E00
3C3E00
3E7F00
1FDF80
078C00
ENDCHAR
STARTCHAR uni01D9
ENCODING 473
SWIDTH 722 0
DWIDTH 24 0
BBX 23 36 0 0
BITMAP
018600
018600
00CC00
00FC00
007800
007800
000000
002100
007380
007380
002100
000000
000000
FFE0FE
3F8038
1F0010
1F0010
1F0010
1F0010
1F0010
1F0010
1F0010
1F0010
1F0010
1F0010
1F0010
1F0010
1F0010
1F0010
1F0010
1F0030
0F8030
0F8060
07C0C0
03FF80
00FE00
ENDCHAR
STARTCHAR uni01DA
ENCODING 474
SWIDTH 556 0
DWIDTH 18 0
BBX 17 29 0 0
BITMAP
0C3000
0C3000
066000
07E000
03C000
03C000
000000
042000
0E7000
0E7000
042000
000000
000000
FC7E00
7C3E00
3C1E00
3C1E00
3C1E00
3C1E00
3C1E00
3C1E00
3C1E00
3C1E00
3C1E00
3C1E00
3C3E00
3E7F00
1FDF80
078C00
ENDCHAR
STARTCHAR uni01DB
ENCODING 475
SWIDTH 722 0
DWIDTH 24 0
BBX 23 36 0 0
BITMAP
018000
01C000
00E000
007000
001800
000400
000000
002100
007380
007380
002100
000000
000000
FFE0FE
3F8038
1F0010
1F0010
1F0010
1F0010
1F0010
1F0010
1F0010
1F0010
1F0010
1F0010
1F0010
1F0010
1F0010
1F0010
1F0010
1F0030
0F8030
0F8060
07C0C0
03FF80
00FE00
ENDCHAR
STARTCHAR uni01DC
ENCODING 476
SWIDTH 556 0
DWIDTH 18 0
BBX 17 29 0 0
BITMAP
180000
1C0000
0E0000
070000
018000
004000
000000
042000
0E7000
0E7000
042000
000000
000000
FC7E00
7C3E00
3C1E00
3C1E00
3C1E00
3C1E00
3C1E00
3C1E00
3C1E00
3C1E00
3C1E00
3C1E00
3C3E00
3E7F00
1FDF80
078C00
ENDCHAR
STARTCHAR uni01DD
ENCODING 477
SWIDTH 444 0
DWIDTH 15 0
BBX 14 16 0 0
BITMAP
1F80
3FE0
61F0
00F8
0078
007C
007C
007C
FFFC
F07C
F07C
F078
7078
38F0
3DE0
0F80
ENDCHAR
STARTCHAR uni01DE
ENCODING 478
SWIDTH 722 0
DWIDTH 24 0
BBX 21 32 1 0
BITMAP
03FE00
03FE00
000000
010800
039C00
039C00
010800
000000
000000
002000
006000
007000
00F000
00F800
00F800
01F800
017C00
017C00
033E00
023E00
063E00
061F00
041F00
0C0F00
0FFF80
180F80
1807C0
1007C0
3003E0
3003E0
7007F0
FC1FF8
ENDCHAR
STARTCHAR uni01DF
ENCODING 479
SWIDTH 500 0
DWIDTH 16 0
BBX 14 25 1 0
BITMAP
1FF0
1FF0
0000
0840
1CE0
1CE0
0840
0000
0000
1F80
31E0
70F0
78F0
78F0
30F0
01F0
07F0
1CF0
38F0
78F0
F0F0
F9F0
FFF4
7EFC
3C78
ENDCHAR
STARTCHAR uni01E0
ENCODING 480
SWIDTH 722 0
DWIDTH 24 0
BBX 21 31 1 0
BITMAP
03FE00
03FE00
000000
006000
00F000
00F000
006000
000000
002000
006000
007000
00F000
00F800
00F800
01F800
017C00
017C00
033E00
023E00
063E00
061F00
041F00
0C0F00
0FFF80
180F80
1807C0
1007C0
3003E0
3003E0
7007F0
FC1FF8
ENDCHAR
STARTCHAR uni01E1
ENCODING 481
SWIDTH 500 0
DWIDTH 16 0
BBX 14 24 1 0
BITMAP
3FE0
3FE0
0000
0300
0780
0780
0300
0000
1F80
31E0
70F0
78F0
78F0
30F0
01F0
07F0
1CF0
38F0
78F0
F0F0
F9F0
FFF4
7EFC
3C78
ENDCHAR
STARTCHAR uni01E2
ENCODING 482
SWIDTH 1000 0
DWIDTH 33 0
BBX 32 26 0 0
BITMAP
0007FC00
0007FC00
00000000
03FFFFFC
00FFFFFC
0063E01C
0063E00C
00C3E00C
00C3E004
0183E004
0183E080
0303E080
0303E180
0203E380
07FFFF80
07FFE380
0C03E180
0C03E080
1803E080
1803E001
3803E003
3003E006
7003E00E
7003E03E
F807FFFC
FE1FFFFC
ENDCHAR
STARTCHAR uni01E3
ENCODING 483
SWIDTH 722 0
DWIDTH 24 0
BBX 21 19 1 0
BITMAP
03FE00
03FE00
000000
1F87C0
31EEE0
70FC70
78F870
78F838
30F838
01F838
07FFF8
1CF800
38F800
78FC00
F8FC08
F8FE18
FFFFF0
7E3FE0
3C0FC0
ENDCHAR
STARTCHAR uni01E4
ENCODING 484
SWIDTH 778 0
DWIDTH 25 0
BBX 25 23 2 0
BITMAP
01FC2000
07FF6000
0F07E000
1E01E000
3C00E000
7C006000
7C006000
F8002000
F8000000
F8000000
F8000000
F8000000
F8000000
F81FFC00
F807F000
F803E000
7C03FF80
7C03FF80
3C03FF80
3E03E000
1E07E000
0F8FE000
03FF0000
ENDCHAR
STARTCHAR uni01E5
ENCODING 485
SWIDTH 500 0
DWIDTH 16 0
BBX 14 23 1 -7
BITMAP
0FC0
3DFC
70FC
F0F0
F078
F078
F078
F078
78F8
3FF0
1FC0
3C00
6000
E000
FFE0
FFFC
FFFC
FFFC
601C
C00C
E01C
7FF8
1FE0
ENDCHAR
STARTCHAR Gcaron
ENCODING 486
SWIDTH 778 0
DWIDTH 25 0
BBX 22 30 2 0
BITMAP
018600
018600
00CC00
00FC00
007800
007800
000000
01FC20
07FF60
0F07E0
1E01E0
3C00E0
7C0060
7C0060
F80020
F80000
F80000
F80000
F80000
F80000
F81FFC
F807F0
F803E0
7C03E0
7C03E0
3C03E0
3E03E0
1E07E0
0F8FE0
03FF00
ENDCHAR
STARTCHAR gcaron
ENCODING 487
SWIDTH 500 0
DWIDTH 16 0
BBX 14 30 1 -7
BITMAP
1860
1860
0CC0
0FC0
0780
0780
0000
0FC0
3DFC
70FC
F0F0
F078
F078
F078
F078
78F8
3FF0
1FC0
3C00
6000
E000
FFE0
FFF8
7FFC
303C
601C
C00C
E01C
7FF8
1FE0
ENDCHAR
STARTCHAR uni01E8
ENCODING 488
SWIDTH 778 0
DWIDTH 25 0
BBX 24 30 1 0
BITMAP
030C00
030C00
019800
01F800
00F000
00F000
000000
FFCFFC
7F03E0
3E01C0
3E0380
3E0700
3E0E00
3E1C00
3E3800
3E7000
3EE000
3FF000
3FF800
3FFC00
3EFE00
3E7F00
3E3F80
3E1FC0
3E0FE0
3E07F0
3E03F8
3E01FC
7F00FE
FFC3FF
ENDCHAR
STARTCHAR uni01E9
ENCODING 489
SWIDTH 556 0
DWIDTH 18 0
BBX 18 29 0 0
BITMAP
618000
618000
330000
3F0000
1E0000
1E0000
000000
FC0000
7C0000
3C0000
3C0000
3C0000
3C0000
3C1F00
3C0E00
3C0C00
3C1800
3C3000
3C6000
3CC000
3DC000
3FE000
3DF000
3CF800
3C7C00
3C3E00
3C1F00
7E0F80
FF1FC0
ENDCHAR
STARTCHAR uni01EA
ENCODING 490
SWIDTH 778 0
DWIDTH 25 0
BBX 21 29 2 -6
BITMAP
01FC00
07FF00
0F8F80
1E03C0
3C01E0
7C01F0
7800F0
F800F8
F800F8
F800F8
F800F8
F800F8
F800F8
F800F8
F800F8
F800F8
7800F0
7C01F0
3C01E0
1E03C0
0F8F80
07FF00
01FC00
006000
00E000
00C000
00E600
007E00
003C00
ENDCHAR
STARTCHAR uni01EB
ENCODING 491
SWIDTH 500 0
DWIDTH 17 0
BBX 14 22 1 -6
BITMAP
0FC0
3CF0
7878
7878
F03C
F03C
F03C
F03C
F03C
F03C
F03C
F03C
7878
7878
3FF0
0FC0
0600
0E00
0C00
0E60
07E0
03C0
ENDCHAR
STARTCHAR uni01EC
ENCODING 492
SWIDTH 778 0
DWIDTH 25 0
BBX 21 32 2 -6
BITMAP
03FE00
03FE00
000000
01FC00
07FF00
0F8F80
1E03C0
3C01E0
7C01F0
7800F0
F800F8
F800F8
F800F8
F800F8
F800F8
F800F8
F800F8
F800F8
F800F8
7800F0
7C01F0
3C01E0
1E03C0
0F8F80
07FF00
01FC00
006000
00E000
00C000
00E600
007E00
003C00
ENDCHAR
STARTCHAR uni01ED
ENCODING 493
SWIDTH 500 0
DWIDTH 17 0
BBX 14 25 1 -6
BITMAP
1FF0
1FF0
0000
0FC0
3CF0
7878
7878
F03C
F03C
F03C
F03C
F03C
F03C
F03C
F03C
7878
7878
3FF0
0FC0
0600
0E00
0C00
0E60
07E0
03C0
ENDCHAR
STARTCHAR uni01F0
ENCODING 496
SWIDTH 333 0
DWIDTH 11 0
BBX 11 30 -2 -7
BITMAP
1860
1860
0CC0
0FC0
0780
0780
0000
0FC0
07C0
03C0
03C0
03C0
03C0
03C0
03C0
03C0
03C0
03C0
03C0
03C0
03C0
03C0
03C0
03C0
03C0
63C0
F3C0
F380
7780
3E00
ENDCHAR
STARTCHAR uni01F4
ENCODING 500
SWIDTH 778 0
DWIDTH 25 0
BBX 22 30 2 0
BITMAP
000300
000700
000E00
001C00
003000
004000
000000
01FC20
07FF60
0F07E0
1E01E0
3C00E0
7C0060
7C0060
F80020
F80000
F80000
F80000
F80000
F80000
F81FFC
F807F0
F803E0
7C03E0
7C03E0
3C03E0
3E03E0
1E07E0
0F8FE0
03FF00
ENDCHAR
STARTCHAR uni01F5
ENCODING 501
SWIDTH 500 0
DWIDTH 16 0
BBX 14 30 1 -7
BITMAP
0030
0070
00E0
01C0
0300
0400
0000
0FC0
3DFC
70FC
F0F0
F078
F078
F078
F078
78F8
3FF0
1FC0
3C00
6000
E000
FFE0
FFF8
7FFC
303C
601C
C00C
E01C
7FF8
1FE0
ENDCHAR
STARTCHAR uni01F8
ENCODING 504
SWIDTH 722 0
DWIDTH 24 0
BBX 22 30 1 0
BITMAP
060000
070000
038000
01C000
006000
001000
000000
FE01FC
7F0070
3F8020
1F8020
1FC020
1FE020
17F020
13F820
11F820
11FC20
10FE20
107F20
103F20
101FA0
101FE0
100FE0
1007E0
1003E0
1003E0
1001E0
1000E0
380060
FE0020
ENDCHAR
STARTCHAR uni01F9
ENCODING 505
SWIDTH 556 0
DWIDTH 18 0
BBX 17 23 0 0
BITMAP
180000
1C0000
0E0000
070000
018000
004000
000000
FC7800
7DFC00
3F3E00
3E1E00
3E1E00
3C1E00
3C1E00
3C1E00
3C1E00
3C1E00
3C1E00
3C1E00
3C1E00
3C1E00
7E3F00
FF7F80
ENDCHAR
STARTCHAR Aringacute
ENCODING 506
SWIDTH 722 0
DWIDTH 24 0
BBX 21 37 1 0
BITMAP
000600
000E00
001C00
003800
006000
008000
000000
00E000
01B000
031800
020800
031800
01B000
00E000
000000
006000
007000
00F000
00F800
00F800
01F800
017C00
017C00
033E00
023E00
063E00
061F00
041F00
0C0F00
0FFF80
180F80
1807C0
1007C0
3003E0
3003E0
7007F0
FC1FF8
ENDCHAR
STARTCHAR aringacute
ENCODING 507
SWIDTH 500 0
DWIDTH 16 0
BBX 14 32 1 0
BITMAP
0030
0070
00E0
01C0
0300
0400
0000
0700
0D80
18C0
1040
18C0
0D80
0700
0000
0000
1F80
31E0
70F0
78F0
78F0
30F0
01F0
07F0
1CF0
38F0
78F0
F0F0
F9F0
FFF4
7EFC
3C78
ENDCHAR
STARTCHAR AEacute
ENCODING 508
SWIDTH 1000 0
DWIDTH 33 0
BBX 32 30 0 0
BITMAP
00000C00
00001C00
00003800
00007000
0000C000
00010000
00000000
03FFFFFC
00FFFFFC
0063E01C
0063E00C
00C3E00C
00C3E004
0183E004
0183E080
0303E080
0303E180
0203E380
07FFFF80
07FFE380
0C03E180
0C03E080
1803E080
1803E001
3803E003
3003E006
7003E00E
7003E03E
F807FFFC
FE1FFFFC
ENDCHAR
STARTCHAR aeacute
ENCODING 509
SWIDTH 722 0
DWIDTH 24 0
BBX 21 23 1 0
BITMAP
000600
000E00
001C00
003800
006000
008000
000000
1F87C0
31EEE0
70FC70
78F870
78F838
30F838
01F838
07FFF8
1CF800
38F800
78FC00
F8FC08
F8FE18
FFFFF0
7E3FE0
3C0FC0
ENDCHAR
STARTCHAR Oslashacute
ENCODING 510
SWIDTH 778 0
DWIDTH 26 0
BBX 21 34 2 -2
BITMAP
000300
000700
000E00
001C00
003000
004000
000000
000030
000060
01FC40
078FC0
0E0380
1E01C0
3C03E0
7C06F0
7804F0
F80CF8
F818F8
F818F8
F830F8
F820F8
F860F8
F8C0F8
F880F8
F980F8
7B00F0
7E01F0
3E01E0
1C03C0
0E0780
1FFE00
11F800
300000
600000
ENDCHAR
STARTCHAR oslashacute
ENCODING 511
SWIDTH 500 0
DWIDTH 17 0
BBX 14 29 1 -3
BITMAP
0018
0038
0070
00E0
0180
0200
0000
0008
0018
0018
0FF0
3CF0
7878
7878
F0FC
F1BC
F13C
F33C
F23C
F63C
FC3C
F83C
7878
7878
3CF0
6FC0
6000
C000
8000
ENDCHAR
STARTCHAR uni0200
ENCODING 512
SWIDTH 722 0
DWIDTH 24 0
BBX 21 31 1 0
BITMAP
063000
073800
073800
031800
039C00
018C00
018C00
000000
002000
006000
007000
00F000
00F800
00F800
01F800
017C00
017C00
033E00
023E00
063E00
061F00
041F00
0C0F00
0FFF80
180F80
1807C0
1007C0
3003E0
3003E0
7007F0
FC1FF8
ENDCHAR
STARTCHAR uni0201
ENCODING 513
SWIDTH 500 0
DWIDTH 16 0
BBX 14 24 1 0
BITMAP
3180
39C0
39C0
18C0
1CE0
0C60
0C60
0000
1F80
31E0
70F0
78F0
78F0
30F0
01F0
07F0
1CF0
38F0
78F0
F0F0
F9F0
FFF4
7EFC
3C78
ENDCHAR
STARTCHAR uni0202
ENCODING 514
SWIDTH 722 0
DWIDTH 24 0
BBX 21 28 1 0
BITMAP
00F800
01FC00
030600
020200
000000
002000
006000
007000
00F000
00F800
00F800
01F800
017C00
017C00
033E00
023E00
063E00
061F00
041F00
0C0F00
0FFF80
180F80
1807C0
1007C0
3003E0
3003E0
7007F0
FC1FF8
ENDCHAR
STARTCHAR uni0203
ENCODING 515
SWIDTH 500 0
DWIDTH 16 0
BBX 14 21 1 0
BITMAP
0F80
1FC0
3060
2020
0000
1F80
31E0
70F0
78F0
78F0
30F0
01F0
07F0
1CF0
38F0
78F0
F0F0
F9F0
FFF4
7EFC
3C78
ENDCHAR
STARTCHAR uni0204
ENCODING 516
SWIDTH 667 0
DWIDTH 22 0
BBX 21 31 0 0
BITMAP
063000
073800
073800
031800
039C00
018C00
018C00
000000
FFFFE0
3FFFE0
1F00E0
1F0060
1F0060
1F0020
1F0020
1F0400
1F0400
1F0C00
1F1C00
1FFC00
1F1C00
1F0C00
1F0400
1F0400
1F0008
1F0018
1F0030
1F0070
1F01F0
3FFFE0
FFFFE0
ENDCHAR
STARTCHAR uni0205
ENCODING 517
SWIDTH 444 0
DWIDTH 15 0
BBX 14 24 0 0
BITMAP
3180
39C0
39C0
18C0
1CE0
0C60
0C60
0000
07C0
1EF0
3C70
7838
783C
F83C
F83C
FFFC
F800
F800
F800
7800
7C00
3E18
1FF0
07E0
ENDCHAR
STARTCHAR uni0206
ENCODING 518
SWIDTH 667 0
DWIDTH 22 0
BBX 21 28 0 0
BITMAP
01F000
03F800
060C00
040400
000000
FFFFE0
3FFFE0
1F00E0
1F0060
1F0060
1F0020
1F0020
1F0400
1F0400
1F0C00
1F1C00
1FFC00
1F1C00
1F0C00
1F0400
1F0400
1F0008
1F0018
1F0030
1F0070
1F01F0
3FFFE0
FFFFE0
ENDCHAR
STARTCHAR uni0207
ENCODING 519
SWIDTH 444 0
DWIDTH 15 0
BBX 14 21 0 0
BITMAP
07C0
0FE0
1830
1010
0000
07C0
1EF0
3C70
7838
783C
F83C
F83C
FFFC
F800
F800
F800
7800
7C00
3E18
1FF0
07E0
ENDCHAR
STARTCHAR uni0208
ENCODING 520
SWIDTH 389 0
DWIDTH 13 0
BBX 11 31 1 0
BITMAP
C600
E700
E700
6300
7380
3180
3180
0000
FFE0
3F80
1F00
1F00
1F00
1F00
1F00
1F00
1F00
1F00
1F00
1F00
1F00
1F00
1F00
1F00
1F00
1F00
1F00
1F00
1F00
3F80
FFE0
ENDCHAR
STARTCHAR uni0209
ENCODING 521
SWIDTH 278 0
DWIDTH 9 0
BBX 9 24 -1 0
BITMAP
C600
E700
E700
6300
7380
3180
3180
0000
7E00
3E00
1E00
1E00
1E00
1E00
1E00
1E00
1E00
1E00
1E00
1E00
1E00
1E00
3F00
7F80
ENDCHAR
STARTCHAR uni020A
ENCODING 522
SWIDTH 389 0
DWIDTH 13 0
BBX 11 28 1 0
BITMAP
1F00
3F80
60C0
4040
0000
FFE0
3F80
1F00
1F00
1F00
1F00
1F00
1F00
1F00
1F00
1F00
1F00
1F00
1F00
1F00
1F00
1F00
1F00
1F00
1F00
1F00
3F80
FFE0
ENDCHAR
STARTCHAR uni020B
ENCODING 523
SWIDTH 278 0
DWIDTH 9 0
BBX 9 21 -1 0
BITMAP
3E00
7F00
C180
8080
0000
7E00
3E00
1E00
1E00
1E00
1E00
1E00
1E00
1E00
1E00
1E00
1E00
1E00
1E00
3F00
7F80
ENDCHAR
STARTCHAR uni020C
ENCODING 524
SWIDTH 778 0
DWIDTH 25 0
BBX 21 31 2 0
BITMAP
063000
073800
073800
031800
039C00
018C00
018C00
000000
01FC00
07FF00
0F8F80
1E03C0
3C01E0
7C01F0
7800F0
F800F8
F800F8
F800F8
F800F8
F800F8
F800F8
F800F8
F800F8
F800F8
7800F0
7C01F0
3C01E0
1E03C0
0F8F80
07FF00
01FC00
ENDCHAR
STARTCHAR uni020D
ENCODING 525
SWIDTH 500 0
DWIDTH 17 0
BBX 14 24 1 0
BITMAP
3180
39C0
39C0
18C0
1CE0
0C60
0C60
0000
0FC0
3CF0
7878
7878
F03C
F03C
F03C
F03C
F03C
F03C
F03C
F03C
7878
7878
3CF0
0FC0
ENDCHAR
STARTCHAR uni020E
ENCODING 526
SWIDTH 778 0
DWIDTH 25 0
BBX 21 28 2 0
BITMAP
00F800
01FC00
030600
020200
000000
01FC00
07FF00
0F8F80
1E03C0
3C01E0
7C01F0
7800F0
F800F8
F800F8
F800F8
F800F8
F800F8
F800F8
F800F8
F800F8
F800F8
7800F0
7C01F0
3C01E0
1E03C0
0F8F80
07FF00
01FC00
ENDCHAR
STARTCHAR uni020F
ENCODING 527
SWIDTH 500 0
DWIDTH 17 0
BBX 14 21 1 0
BITMAP
07C0
0FE0
1830
1010
0000
0FC0
3CF0
7878
7878
F03C
F03C
F03C
F03C
F03C
F03C
F03C
F03C
7878
7878
3CF0
0FC0
ENDCHAR
STARTCHAR uni0210
ENCODING 528
SWIDTH 722 0
DWIDTH 24 0
BBX 22 31 1 0
BITMAP
063000
073800
073800
031800
039C00
018C00
018C00
000000
FFFC00
3F1F80
1F07C0
1F07E0
1F03E0
1F03E0
1F03E0
1F03E0
1F07E0
1F07C0
1F1F80
1FFC00
1F7E00
1F3E00
1F3F00
1F1F80
1F1F80
1F0FC0
1F07E0
1F07E0
1F03F0
3F81F8
FFE1FC
ENDCHAR
STARTCHAR uni0211
ENCODING 529
SWIDTH 444 0
DWIDTH 15 0
BBX 13 24 1 0
BITMAP
3180
39C0
39C0
18C0
1CE0
0C60
0C60
0000
FC70
7CF8
3FF8
3F78
3E30
3C00
3C00
3C00
3C00
3C00
3C00
3C00
3C00
3C00
7E00
FF00
ENDCHAR
STARTCHAR uni0212
ENCODING 530
SWIDTH 722 0
DWIDTH 24 0
BBX 22 28 1 0
BITMAP
00F800
01FC00
030600
020200
000000
FFFC00
3F1F80
1F07C0
1F07E0
1F03E0
1F03E0
1F03E0
1F03E0
1F07E0
1F07C0
1F1F80
1FFC00
1F7E00
1F3E00
1F3F00
1F1F80
1F1F80
1F0FC0
1F07E0
1F07E0
1F03F0
3F81F8
FFE1FC
ENDCHAR
STARTCHAR uni0213
ENCODING 531
SWIDTH 444 0
DWIDTH 15 0
BBX 13 21 1 0
BITMAP
0F80
1FC0
3060
2020
0000
FC70
7CF8
3FF8
3F78
3E30
3C00
3C00
3C00
3C00
3C00
3C00
3C00
3C00
3C00
7E00
FF00
ENDCHAR
STARTCHAR uni0214
ENCODING 532
SWIDTH 722 0
DWIDTH 24 0
BBX 23 31 0 0
BITMAP
063000
073800
073800
031800
039C00
018C00
018C00
000000
FFE0FE
3F8038
1F0010
1F0010
1F0010
1F0010
1F0010
1F0010
1F0010
1F0010
1F0010
1F0010
1F0010
1F0010
1F0010
1F0010
1F0010
1F0010
0F8030
0F8060
07C0C0
03FF80
00FE00
ENDCHAR
STARTCHAR uni0215
ENCODING 533
SWIDTH 556 0
DWIDTH 18 0
BBX 17 24 0 0
BITMAP
18C000
1CE000
1CE000
0C6000
0E7000
063000
063000
000000
FC7E00
7C3E00
3C1E00
3C1E00
3C1E00
3C1E00
3C1E00
3C1E00
3C1E00
3C1E00
3C1E00
3C1E00
3C3E00
3E5F00
1FDF80
078C00
ENDCHAR
STARTCHAR uni0216
ENCODING 534
SWIDTH 722 0
DWIDTH 24 0
BBX 23 28 0 0
BITMAP
00F800
01FC00
030600
020200
000000
FFE0FE
3F8038
1F0010
1F0010
1F0010
1F0010
1F0010
1F0010
1F0010
1F0010
1F0010
1F0010
1F0010
1F0010
1F0010
1F0010
1F0010
1F0010
0F8030
0F8060
07C0C0
03FF80
00FE00
ENDCHAR
STARTCHAR uni0217
ENCODING 535
SWIDTH 556 0
DWIDTH 18 0
BBX 17 21 0 0
BITMAP
03E000
07F000
0C1800
080800
000000
FC7E00
7C3E00
3C1E00
3C1E00
3C1E00
3C1E00
3C1E00
3C1E00
3C1E00
3C1E00
3C1E00
3C1E00
3C3E00
3E5F00
1FDF80
078C00
ENDCHAR
STARTCHAR Scommaaccent
ENCODING 536
SWIDTH 556 0
DWIDTH 18 0
BBX 15 35 1 -12
BITMAP
0FC4
387C
703C
701C
F00C
F00C
F804
FC00
FF00
7FC0
3FF0
1FF8
0FFC
03FC
01FE
807E
803E
C01E
C01E
E01C
F01C
F838
8FE0
0000
0380
07C0
07C0
07C0
03C0
00C0
0080
0180
0300
0600
0C00
ENDCHAR
STARTCHAR scommaaccent
ENCODING 537
SWIDTH 389 0
DWIDTH 13 0
BBX 10 28 1 -12
BITMAP
1F40
71C0
60C0
E0C0
F040
FC00
7F00
7F80
3F80
0FC0
03C0
81C0
C1C0
C1C0
E380
BF00
0000
0E00
1F00
1F00
1F00
0F00
0300
0200
0600
0C00
1800
3000
ENDCHAR
STARTCHAR Tcommaaccent
ENCODING 538
SWIDTH 667 0
DWIDTH 22 0
BBX 19 35 1 -12
BITMAP
FFFFE0
F9F3E0
E1F0E0
C1F060
81F020
81F020
81F020
01F000
01F000
01F000
01F000
01F000
01F000
01F000
01F000
01F000
01F000
01F000
01F000
01F000
01F000
03F800
0FFE00
000000
00E000
01F000
01F000
01F000
00F000
003000
002000
006000
00C000
018000
030000
ENDCHAR
STARTCHAR tcommaaccent
ENCODING 539
SWIDTH 333 0
DWIDTH 11 0
BBX 10 33 0 -12
BITMAP
0400
0C00
1C00
1C00
3C00
7F80
FF80
3C00
3C00
3C00
3C00
3C00
3C00
3C00
3C00
3C00
3C00
3C40
3EC0
3F80
1E00
0000
0E00
1F00
1F00
1F00
0F00
0300
0200
0600
0C00
1800
3000
ENDCHAR
STARTCHAR uni021E
ENCODING 542
SWIDTH 778 0
DWIDTH 25 0
BBX 24 30 0 0
BITMAP
00C300
00C300
006600
007E00
003C00
003C00
000000
FFE7FF
3F81FC
1F00F8
1F00F8
1F00F8
1F00F8
1F00F8
1F00F8
1F00F8
1F00F8
1FFFF8
1FFFF8
1F00F8
1F00F8
1F00F8
1F00F8
1F00F8
1F00F8
1F00F8
1F00F8
1F00F8
3F81FC
FFE7FF
ENDCHAR
STARTCHAR uni021F
ENCODING 543
SWIDTH 556 0
DWIDTH 18 0
BBX 17 29 0 0
BITMAP
618000
618000
330000
3F0000
1E0000
1E0000
000000
FC0000
7C0000
3C0000
3C0000
3C0000
3C0000
3C7800
3DFC00
3FFE00
3E3E00
3C1E00
3C1E00
3C1E00
3C1E00
3C1E00
3C1E00
3C1E00
3C1E00
3C1E00
3C1E00
7E3F00
FF7F80
ENDCHAR
STARTCHAR uni0226
ENCODING 550
SWIDTH 722 0
DWIDTH 24 0
BBX 21 28 1 0
BITMAP
006000
00F000
00F000
006000
000000
002000
006000
007000
00F000
00F800
00F800
01F800
017C00
017C00
033E00
023E00
063E00
061F00
041F00
0C0F00
0FFF80
180F80
1807C0
1007C0
3003E0
3003E0
7007F0
FC1FF8
ENDCHAR
STARTCHAR uni0227
ENCODING 551
SWIDTH 500 0
DWIDTH 16 0
BBX 14 21 1 0
BITMAP
0300
0780
0780
0300
0000
1F80
31E0
70F0
78F0
78F0
30F0
01F0
07F0
1CF0
38F0
78F0
F0F0
F9F0
FFF4
7EFC
3C78
ENDCHAR
STARTCHAR uni0228
ENCODING 552
SWIDTH 667 0
DWIDTH 22 0
BBX 21 30 0 -7
BITMAP
FFFFE0
3FFFE0
1F00E0
1F0060
1F0060
1F0020
1F0020
1F0400
1F0400
1F0C00
1F1C00
1FFC00
1F1C00
1F0C00
1F0400
1F0400
1F0008
1F0018
1F0030
1F0070
1F01F0
3FFFE0
FFFFE0
003000
006000
00E000
007000
063000
077000
03E000
ENDCHAR
STARTCHAR uni0229
ENCODING 553
SWIDTH 444 0
DWIDTH 15 0
BBX 14 23 0 -7
BITMAP
07C0
1EF0
3C70
7838
783C
F83C
F83C
FFFC
F800
F800
F800
7800
7C00
3E18
1FF0
07E0
0180
0300
0700
0380
3180
3B80
1F00
ENDCHAR
STARTCHAR uni022A
ENCODING 554
SWIDTH 778 0
DWIDTH 25 0
BBX 21 32 2 0
BITMAP
03FE00
03FE00
000000
008400
01CE00
01CE00
008400
000000
000000
01FC00
07FF00
0F8F80
1E03C0
3C01E0
7C01F0
7800F0
F800F8
F800F8
F800F8
F800F8
F800F8
F800F8
F800F8
F800F8
F800F8
7800F0
7C01F0
3C01E0
1E03C0
0F8F80
07FF00
01FC00
ENDCHAR
STARTCHAR uni022B
ENCODING 555
SWIDTH 500 0
DWIDTH 17 0
BBX 14 25 1 0
BITMAP
1FF0
1FF0
0000
0840
1CE0
1CE0
0840
0000
0000
0FC0
3CF0
7878
7878
F03C
F03C
F03C
F03C
F03C
F03C
F03C
F03C
7878
7878
3CF0
0FC0
ENDCHAR
STARTCHAR uni022C
ENCODING 556
SWIDTH 778 0
DWIDTH 25 0
BBX 21 32 2 0
BITMAP
03FE00
03FE00
000000
00C200
01F600
037C00
021800
000000
000000
01FC00
07FF00
0F8F80
1E03C0
3C01E0
7C01F0
7800F0
F800F8
F800F8
F800F8
F800F8
F800F8
F800F8
F800F8
F800F8
F800F8
7800F0
7C01F0
3C01E0
1E03C0
0F8F80
07FF00
01FC00
ENDCHAR
STARTCHAR uni022D
ENCODING 557
SWIDTH 500 0
DWIDTH 17 0
BBX 14 25 1 0
BITMAP
3FE0
3FE0
0000
0C20
1F60
37C0
2180
0000
0000
0FC0
3CF0
7878
7878
F03C
F03C
F03C
F03C
F03C
F03C
F03C
F03C
7878
7878
3CF0
0FC0
ENDCHAR
STARTCHAR uni022E
ENCODING 558
SWIDTH 778 0
DWIDTH 25 0
BBX 21 28 2 0
BITMAP
003000
007800
007800
003000
000000
01FC00
07FF00
0F8F80
1E03C0
3C01E0
7C01F0
7800F0
F800F8
F800F8
F800F8
F800F8
F800F8
F800F8
F800F8
F800F8
F800F8
7800F0
7C01F0
3C01E0
1E03C0
0F8F80
07FF00
01FC00
ENDCHAR
STARTCHAR uni022F
ENCODING 559
SWIDTH 500 0
DWIDTH 17 0
BBX 14 21 1 0
BITMAP
0300
0780
0780
0300
0000
0FC0
3CF0
7878
7878
F03C
F03C
F03C
F03C
F03C
F03C
F03C
F03C
7878
7878
3CF0
0FC0
ENDCHAR
STARTCHAR uni0230
ENCODING 560
SWIDTH 778 0
DWIDTH 25 0
BBX 21 31 2 0
BITMAP
03FE00
03FE00
000000
003000
007800
007800
003000
000000
01FC00
07FF00
0F8F80
1E03C0
3C01E0
7C01F0
7800F0
F800F8
F800F8
F800F8
F800F8
F800F8
F800F8
F800F8
F800F8
F800F8
7800F0
7C01F0
3C01E0
1E03C0
0F8F80
07FF00
01FC00
ENDCHAR
STARTCHAR uni0231
ENCODING 561
SWIDTH 500 0
DWIDTH 17 0
BBX 14 24 1 0
BITMAP
1FF0
1FF0
0000
0300
0780
0780
0300
0000
0FC0
3CF0
7878
7878
F03C
F03C
F03C
F03C
F03C
F03C
F03C
F03C
7878
7878
3CF0
0FC0
ENDCHAR
STARTCHAR uni0232
ENCODING 562
SWIDTH 722 0
DWIDTH 24 0
BBX 22 26 1 0
BITMAP
07FC00
07FC00
000000
FFC3FC
7F00F0
3F0060
3F0060
1F80C0
1F8080
0FC180
0FC300
07E300
03E600
03F400
01FC00
01F800
00F800
00F800
00F800
00F800
00F800
00F800
00F800
00F800
01FC00
07FF00
ENDCHAR
STARTCHAR uni0233
ENCODING 563
SWIDTH 500 0
DWIDTH 17 0
BBX 15 26 0 -7
BITMAP
3FE0
3FE0
0000
FFBE
7E0C
3E08
3E08
1F18
1F10
0F10
0FB0
0FA0
07A0
07E0
07C0
03C0
03C0
0180
0180
0180
0100
7300
F300
F600
FE00
7800
ENDCHAR
STARTCHAR uni0250
ENCODING 592
SWIDTH 500 0
DWIDTH 16 0
BBX 14 16 1 0
BITMAP
78F0
FDF8
BFFC
3E7C
3C3C
3C78
3C70
3CE0
3F80
3E00
3C30
3C78
3C78
3C38
1E30
07E0
ENDCHAR
STARTCHAR uni0254
ENCODING 596
SWIDTH 444 0
DWIDTH 15 0
BBX 14 16 1 0
BITMAP
3F80
79E0
F0F0
F0F8
6078
007C
007C
007C
007C
007C
007C
007C
00F8
61F0
3FE0
1FC0
ENDCHAR
STARTCHAR uni0258
ENCODING 600
SWIDTH 444 0
DWIDTH 15 0
BBX 14 16 0 0
BITMAP
0F80
3DE0
38F0
7078
F078
F07C
F07C
FFFC
007C
007C
007C
0078
00F8
61F0
3FE0
1F80
ENDCHAR
STARTCHAR uni0259
ENCODING 601
SWIDTH 444 0
DWIDTH 15 0
BBX 14 16 0 0
BITMAP
1F80
3FE0
61F0
00F8
0078
007C
007C
007C
FFFC
F07C
F07C
F078
7078
38F0
3DE0
0F80
ENDCHAR
STARTCHAR uni025F
ENCODING 607
SWIDTH 333 0
DWIDTH 11 0
BBX 12 23 0 -7
BITMAP
0FF0
07E0
03C0
03C0
03C0
03C0
03C0
03C0
03C0
03C0
03C0
03C0
03C0
03C0
1FF0
1FF0
03C0
03C0
63C0
F3C0
F380
E780
7E00
ENDCHAR
STARTCHAR uni0265
ENCODING 613
SWIDTH 556 0
DWIDTH 18 0
BBX 17 22 0 -6
BITMAP
FF7F80
7E3F00
3C1E00
3C1E00
3C1E00
3C1E00
3C1E00
3C1E00
3C1E00
3C1E00
3C1E00
3C1E00
3E3E00
3FFE00
1FDE00
0F1E00
001E00
001E00
001E00
001E00
001F00
001F80
ENDCHAR
STARTCHAR uni0275
ENCODING 629
SWIDTH 500 0
DWIDTH 17 0
BBX 14 16 1 0
BITMAP
0FC0
3CF0
7878
7878
F03C
F03C
FFFC
FFFC
FFFC
F03C
F03C
F03C
7878
7878
3CF0
0FC0
ENDCHAR
STARTCHAR uni0279
ENCODING 633
SWIDTH 444 0
DWIDTH 15 0
BBX 13 16 1 0
BITMAP
07F8
03F0
01E0
01E0
01E0
01E0
01E0
01E0
01E0
01E0
01E0
63E0
F7E0
FFE0
F9F0
71F8
ENDCHAR
STARTCHAR uni0287
ENCODING 647
SWIDTH 333 0
DWIDTH 11 0
BBX 10 21 0 0
BITMAP
1E00
7F00
DF00
8F00
0F00
0F00
0F00
0F00
0F00
0F00
0F00
0F00
0F00
0F00
7FC0
7F80
0F00
0E00
0E00
0C00
0800
ENDCHAR
STARTCHAR uni0288
ENCODING 648
SWIDTH 333 0
DWIDTH 11 0
BBX 12 28 0 -7
BITMAP
0400
0C00
1C00
1C00
3C00
7F80
FF80
3C00
3C00
3C00
3C00
3C00
3C00
3C00
3C00
3C00
3C00
3C00
3C00
3C00
3C00
3C00
3C00
3C60
3CF0
1CF0
1EE0
07C0
ENDCHAR
STARTCHAR uni0289
ENCODING 649
SWIDTH 556 0
DWIDTH 18 0
BBX 17 16 0 0
BITMAP
FC7E00
7C3E00
3C1E00
3C1E00
3C1E00
3C1E00
FFFF80
FFFF80
FFFF80
3C1E00
3C1E00
3C1E00
3C3E00
3E5F00
1FDF80
078C00
ENDCHAR
STARTCHAR uni028C
ENCODING 652
SWIDTH 500 0
DWIDTH 17 0
BBX 15 16 0 0
BITMAP
0100
0100
0380
0380
07C0
07C0
0FC0
09E0
09E0
19F0
11F0
10F0
30F8
2078
607C
F9FE
ENDCHAR
STARTCHAR uni028D
ENCODING 653
SWIDTH 722 0
DWIDTH 24 0
BBX 23 16 0 0
BITMAP
010100
010100
038380
038380
0787C0
07C7C0
07CFC0
0FCFE0
0BE9E0
19F9F0
19F1F0
11F0F0
30F0F8
20F078
70F8FC
FBFDFE
ENDCHAR
STARTCHAR uni028E
ENCODING 654
SWIDTH 500 0
DWIDTH 17 0
BBX 15 23 0 0
BITMAP
003C
00FE
00DE
019E
019C
0100
0300
0300
0300
0780
0780
07C0
0FC0
0BC0
0BE0
1BE0
11E0
11F0
31F0
20F8
20F8
60FC
FBFE
ENDCHAR
STARTCHAR uni029E
ENCODING 670
SWIDTH 556 0
DWIDTH 18 0
BBX 18 22 0 -6
BITMAP
FE3FC0
7C1F80
3E0F00
1F0F00
0F8F00
07CF00
03EF00
01FF00
00EF00
00CF00
018F00
030F00
060F00
0C0F00
1C0F00
3E0F00
000F00
000F00
000F00
000F00
000F80
000FC0
ENDCHAR
STARTCHAR uni02BB
ENCODING 699
SWIDTH 333 0
DWIDTH 11 0
BBX 6 11 2 12
BITMAP
0C
18
30
60
40
C0
F8
FC
FC
FC
78
ENDCHAR
STARTCHAR afii57929
ENCODING 700
SWIDTH 333 0
DWIDTH 11 0
BBX 6 11 3 12
BITMAP
78
FC
FC
FC
7C
0C
08
18
30
60
C0
ENDCHAR
STARTCHAR afii64937
ENCODING 701
SWIDTH 333 0
DWIDTH 11 0
BBX 6 11 3 12
BITMAP
78
FC
FC
FC
F8
C0
40
60
30
18
0C
ENDCHAR
STARTCHAR circumflex
ENCODING 710
SWIDTH 333 0
DWIDTH 11 0
BBX 8 6 1 17
BITMAP
3C
3C
7E
66
C3
C3
ENDCHAR
STARTCHAR caron
ENCODING 711
SWIDTH 333 0
DWIDTH 11 0
BBX 8 6 1 18
BITMAP
C3
C3
66
7E
3C
3C
ENDCHAR
STARTCHAR uni02C8
ENCODING 712
SWIDTH 278 0
DWIDTH 9 0
BBX 4 11 2 12
BITMAP
60
F0
F0
F0
F0
F0
F0
60
60
60
60
ENDCHAR
STARTCHAR macron
ENCODING 713
SWIDTH 333 0
DWIDTH 11 0
BBX 9 2 1 18
BITMAP
FF80
FF80
ENDCHAR
STARTCHAR uni02CA
ENCODING 714
SWIDTH 333 0
DWIDTH 11 0
BBX 7 6 3 17
BITMAP
06
0E
1C
38
60
80
ENDCHAR
STARTCHAR uni02CB
ENCODING 715
SWIDTH 333 0
DWIDTH 11 0
BBX 7 6 1 17
BITMAP
C0
E0
70
38
0C
02
ENDCHAR
STARTCHAR uni02CD
ENCODING 717
SWIDTH 333 0
DWIDTH 11 0
BBX 9 2 1 -3
BITMAP
FF80
FF80
ENDCHAR
STARTCHAR uni02CE
ENCODING 718
SWIDTH 333 0
DWIDTH 11 0
BBX 7 6 1 -7
BITMAP
C0
E0
70
38
0C
02
ENDCHAR
STARTCHAR uni02CF
ENCODING 719
SWIDTH 333 0
DWIDTH 11 0
BBX 7 6 3 -7
BITMAP
06
0E
1C
38
60
80
ENDCHAR
STARTCHAR breve
ENCODING 728
SWIDTH 333 0
DWIDTH 11 0
BBX 9 4 1 18
BITMAP
8080
C180
7F00
3E00
ENDCHAR
STARTCHAR dotaccent
ENCODING 729
SWIDTH 333 0
DWIDTH 11 0
BBX 4 4 3 17
BITMAP
60
F0
F0
60
ENDCHAR
STARTCHAR ring
ENCODING 730
SWIDTH 333 0
DWIDTH 11 0
BBX 7 7 2 18
BITMAP
38
6C
C6
82
C6
6C
38
ENDCHAR
STARTCHAR ogonek
ENCODING 731
SWIDTH 333 0
DWIDTH 11 0
BBX 7 8 2 -6
BITMAP
30
70
60
E0
C0
E6
7E
3C
ENDCHAR
STARTCHAR tilde
ENCODING 732
SWIDTH 333 0
DWIDTH 11 0
BBX 9 4 1 18
BITMAP
3080
7980
CF00
8600
ENDCHAR
STARTCHAR hungarumlaut
ENCODING 733
SWIDTH 333 0
DWIDTH 11 0
BBX 9 7 1 18
BITMAP
3180
7380
7380
6300
E700
C600
C600
ENDCHAR
STARTCHAR uni02EE
ENCODING 750
SWIDTH 500 0
DWIDTH 17 0
BBX 15 11 1 12
BITMAP
783C
FC7E
FC7E
FC7E
7C3E
0C06
0804
180C
3018
6030
C060
ENDCHAR
STARTCHAR uni037E
ENCODING 894
SWIDTH 333 0
DWIDTH 11 0
BBX 6 22 2 -6
BITMAP
38
7C
7C
7C
38
00
00
00
00
00
00
38
7C
7C
7C
3C
0C
08
18
30
60
C0
ENDCHAR
STARTCHAR tonos
ENCODING 900
SWIDTH 333 0
DWIDTH 11 0
BBX 7 6 3 17
BITMAP
06
0E
1C
38
60
80
ENDCHAR
STARTCHAR dieresistonos
ENCODING 901
SWIDTH 333 0
DWIDTH 11 0
BBX 9 11 2 18
BITMAP
0180
0380
0700
0E00
1800
2000
0000
4200
E700
E700
4200
ENDCHAR
STARTCHAR anoteleia
ENCODING 903
SWIDTH 250 0
DWIDTH 8 0
BBX 4 4 2 9
BITMAP
60
F0
F0
60
ENDCHAR
STARTCHAR mu
ENCODING 956
SWIDTH 556 0
DWIDTH 19 0
BBX 16 22 2 -6
BITMAP
F8FC
787C
783C
783C
783C
783C
783C
783C
783C
783C
783C
783C
787C
7CFC
7FBF
5F38
4000
E000
E000
E000
E000
E000
ENDCHAR
STARTCHAR uni1E00
ENCODING 7680
SWIDTH 722 0
DWIDTH 24 0
BBX 21 31 1 -8
BITMAP
002000
006000
007000
00F000
00F800
00F800
01F800
017C00
017C00
033E00
023E00
063E00
061F00
041F00
0C0F00
0FFF80
180F80
1807C0
1007C0
3003E0
3003E0
7007F0
FC1FF8
000000
003800
006C00
00C600
008200
00C600
006C00
003800
ENDCHAR
STARTCHAR uni1E01
ENCODING 7681
SWIDTH 500 0
DWIDTH 16 0
BBX 14 24 1 -8
BITMAP
1F80
31E0
70F0
78F0
78F0
30F0
01F0
07F0
1CF0
38F0
78F0
F0F0
F9F0
FFF4
7EFC
3C78
0000
0700
0D80
18C0
1040
18C0
0D80
0700
ENDCHAR
STARTCHAR uni1E02
ENCODING 7682
SWIDTH 667 0
DWIDTH 22 0
BBX 19 28 1 0
BITMAP
00C000
01E000
01E000
00C000
000000
FFFC00
3F1F00
1F0F80
1F07C0
1F07C0
1F07C0
1F07C0
1F07C0
1F0780
1F0F80
1F3E00
1FFC00
1F0F80
1F07C0
1F07E0
1F03E0
1F03E0
1F03E0
1F03E0
1F03C0
1F07C0
3F0F00
FFFC00
ENDCHAR
STARTCHAR uni1E03
ENCODING 7683
SWIDTH 556 0
DWIDTH 18 0
BBX 17 27 0 0
BITMAP
0C0000
1E0000
1E0000
0C0000
000000
FC0000
7C0000
3C0000
3C0000
3C0000
3C0000
3C7800
3DFE00
3FFE00
3E1F00
3C1F00
3C0F80
3C0F80
3C0F80
3C0F80
3C0F80
3C0F80
3C0F00
3C1F00
3E3E00
37FC00
21F000
ENDCHAR
STARTCHAR uni1E04
ENCODING 7684
SWIDTH 667 0
DWIDTH 22 0
BBX 19 28 1 -5
BITMAP
FFFC00
3F1F00
1F0F80
1F07C0
1F07C0
1F07C0
1F07C0
1F07C0
1F0780
1F0F80
1F3E00
1FFC00
1F0F80
1F07C0
1F07E0
1F03E0
1F03E0
1F03E0
1F03E0
1F03C0
1F07C0
3F0F00
FFFC00
000000
006000
00F000
00F000
006000
ENDCHAR
STARTCHAR uni1E05
ENCODING 7685
SWIDTH 556 0
DWIDTH 18 0
BBX 17 27 0 -5
BITMAP
FC0000
7C0000
3C0000
3C0000
3C0000
3C0000
3C7800
3DFE00
3FFE00
3E1F00
3C1F00
3C0F80
3C0F80
3C0F80
3C0F80
3C0F80
3C0F80
3C0F00
3C1F00
3E3E00
37FC00
21F000
000000
00C000
01E000
01E000
00C000
ENDCHAR
STARTCHAR uni1E06
ENCODING 7686
SWIDTH 667 0
DWIDTH 22 0
BBX 19 26 1 -3
BITMAP
FFFC00
3F1F00
1F0F80
1F07C0
1F07C0
1F07C0
1F07C0
1F07C0
1F0780
1F0F80
1F3E00
1FFC00
1F0F80
1F07C0
1F07E0
1F03E0
1F03E0
1F03E0
1F03E0
1F03C0
1F07C0
3F0F00
FFFC00
000000
07FC00
07FC00
ENDCHAR
STARTCHAR uni1E07
ENCODING 7687
SWIDTH 556 0
DWIDTH 18 0
BBX 17 25 0 -3
BITMAP
FC0000
7C0000
3C0000
3C0000
3C0000
3C0000
3C7800
3DFE00
3FFE00
3E1F00
3C1F00
3C0F80
3C0F80
3C0F80
3C0F80
3C0F80
3C0F80
3C0F00
3C1F00
3E3E00
37FC00
21F000
000000
0FF800
0FF800
ENDCHAR
STARTCHAR uni1E08
ENCODING 7688
SWIDTH 722 0
DWIDTH 24 0
BBX 19 37 2 -7
BITMAP
000600
000E00
001C00
003800
006000
008000
000000
01FC20
07FF60
0F07E0
1E01E0
3C00E0
7C0060
7C0060
F80020
F80000
F80000
F80000
F80000
F80000
F80000
F80000
F80000
7C0000
7C0000
3C0020
1E0060
0F81C0
03FF80
00FE00
001800
003000
007000
003800
031800
03B800
01F000
ENDCHAR
STARTCHAR uni1E09
ENCODING 7689
SWIDTH 444 0
DWIDTH 15 0
BBX 13 30 1 -7
BITMAP
0060
00E0
01C0
0380
0600
0800
0000
07E0
1EF0
3C78
7878
7830
F000
F000
F000
F000
F000
F800
7800
7800
3C30
1FE0
0FC0
0300
0600
0600
0380
3180
3B80
1F00
ENDCHAR
STARTCHAR uni1E0A
ENCODING 7690
SWIDTH 722 0
DWIDTH 24 0
BBX 22 28 0 0
BITMAP
006000
00F000
00F000
006000
000000
FFFC00
3FFF80
1F07E0
1F01F0
1F01F0
1F00F8
1F00F8
1F00FC
1F007C
1F007C
1F007C
1F007C
1F007C
1F007C
1F007C
1F00F8
1F00F8
1F00F8
1F01F0
1F01E0
1F07C0
3FFF00
FFFC00
ENDCHAR
STARTCHAR uni1E0B
ENCODING 7691
SWIDTH 556 0
DWIDTH 18 0
BBX 16 27 1 0
BITMAP
0060
00F0
00F0
0060
0000
00FC
007C
003C
003C
003C
003C
0FBC
3FFC
7C3C
783C
F83C
F03C
F03C
F03C
F03C
F03C
F03C
F03C
783C
7C7E
3FFF
0FB8
ENDCHAR
STARTCHAR uni1E0C
ENCODING 7692
SWIDTH 722 0
DWIDTH 24 0
BBX 22 28 0 -5
BITMAP
FFFC00
3FFF80
1F07E0
1F01F0
1F01F0
1F00F8
1F00F8
1F00FC
1F007C
1F007C
1F007C
1F007C
1F007C
1F007C
1F007C
1F00F8
1F00F8
1F00F8
1F01F0
1F01E0
1F07C0
3FFF00
FFFC00
000000
006000
00F000
00F000
006000
ENDCHAR
STARTCHAR uni1E0D
ENCODING 7693
SWIDTH 556 0
DWIDTH 18 0
BBX 16 27 1 -5
BITMAP
00FC
007C
003C
003C
003C
003C
0FBC
3FFC
7C3C
783C
F83C
F03C
F03C
F03C
F03C
F03C
F03C
F03C
783C
7C7E
3FFF
0FB8
0000
0180
03C0
03C0
0180
ENDCHAR
STARTCHAR uni1E0E
ENCODING 7694
SWIDTH 722 0
DWIDTH 24 0
BBX 22 26 0 -3
BITMAP
FFFC00
3FFF80
1F07E0
1F01F0
1F01F0
1F00F8
1F00F8
1F00FC
1F007C
1F007C
1F007C
1F007C
1F007C
1F007C
1F007C
1F00F8
1F00F8
1F00F8
1F01F0
1F01E0
1F07C0
3FFF00
FFFC00
000000
03FE00
03FE00
ENDCHAR
STARTCHAR uni1E0F
ENCODING 7695
SWIDTH 556 0
DWIDTH 18 0
BBX 16 25 1 -3
BITMAP
00FC
007C
003C
003C
003C
003C
0FBC
3FFC
7C3C
783C
F83C
F03C
F03C
F03C
F03C
F03C
F03C
F03C
783C
7C7E
3FFF
0FB8
0000
1FF0
1FF0
ENDCHAR
STARTCHAR uni1E10
ENCODING 7696
SWIDTH 722 0
DWIDTH 24 0
BBX 22 30 0 -7
BITMAP
FFFC00
3FFF80
1F07E0
1F01F0
1F01F0
1F00F8
1F00F8
1F00FC
1F007C
1F007C
1F007C
1F007C
1F007C
1F007C
1F007C
1F00F8
1F00F8
1F00F8
1F01F0
1F01E0
1F07C0
3FFF00
FFFC00
003000
006000
00E000
007000
063000
077000
03E000
ENDCHAR
STARTCHAR uni1E11
ENCODING 7697
SWIDTH 556 0
DWIDTH 18 0
BBX 16 29 1 -7
BITMAP
00FC
007C
003C
003C
003C
003C
0FBC
3FFC
7C3C
783C
F83C
F03C
F03C
F03C
F03C
F03C
F03C
F03C
783C
7C7E
3FFF
0FB8
00C0
0180
0380
01C0
18C0
1DC0
0F80
ENDCHAR
STARTCHAR uni1E12
ENCODING 7698
SWIDTH 722 0
DWIDTH 24 0
BBX 22 30 0 -7
BITMAP
FFFC00
3FFF80
1F07E0
1F01F0
1F01F0
1F00F8
1F00F8
1F00FC
1F007C
1F007C
1F007C
1F007C
1F007C
1F007C
1F007C
1F00F8
1F00F8
1F00F8
1F01F0
1F01E0
1F07C0
3FFF00
FFFC00
000000
00F000
00F000
01F800
019800
030C00
030C00
ENDCHAR
STARTCHAR uni1E13
ENCODING 7699
SWIDTH 556 0
DWIDTH 18 0
BBX 16 29 1 -7
BITMAP
00FC
007C
003C
003C
003C
003C
0FBC
3FFC
7C3C
783C
F83C
F03C
F03C
F03C
F03C
F03C
F03C
F03C
783C
7C7E
3FFF
0FB8
0000
03C0
03C0
07E0
0660
0C30
0C30
ENDCHAR
STARTCHAR uni1E14
ENCODING 7700
SWIDTH 667 0
DWIDTH 22 0
BBX 21 33 0 0
BITMAP
060000
070000
038000
01C000
006000
001000
000000
07FC00
07FC00
000000
FFFFE0
3FFFE0
1F00E0
1F0060
1F0060
1F0020
1F0020
1F0400
1F0400
1F0C00
1F1C00
1FFC00
1F1C00
1F0C00
1F0400
1F0400
1F0008
1F0018
1F0030
1F0070
1F01F0
3FFFE0
FFFFE0
ENDCHAR
STARTCHAR uni1E15
ENCODING 7701
SWIDTH 444 0
DWIDTH 15 0
BBX 14 26 0 0
BITMAP
1800
1C00
0E00
0700
0180
0040
0000
1FF0
1FF0
0000
07C0
1EF0
3C70
7838
783C
F83C
F83C
FFFC
F800
F800
F800
7800
7C00
3E18
1FF0
07E0
ENDCHAR
STARTCHAR uni1E16
ENCODING 7702
SWIDTH 667 0
DWIDTH 22 0
BBX 21 33 0 0
BITMAP
000600
000E00
001C00
003800
006000
008000
000000
07FC00
07FC00
000000
FFFFE0
3FFFE0
1F00E0
1F0060
1F0060
1F0020
1F0020
1F0400
1F0400
1F0C00
1F1C00
1FFC00
1F1C00
1F0C00
1F0400
1F0400
1F0008
1F0018
1F0030
1F0070
1F01F0
3FFFE0
FFFFE0
ENDCHAR
STARTCHAR uni1E17
ENCODING 7703
SWIDTH 444 0
DWIDTH 15 0
BBX 14 26 0 0
BITMAP
0030
0070
00E0
01C0
0300
0400
0000
1FF0
1FF0
0000
07C0
1EF0
3C70
7838
783C
F83C
F83C
FFFC
F800
F800
F800
7800
7C00
3E18
1FF0
07E0
ENDCHAR
STARTCHAR uni1E18
ENCODING 7704
SWIDTH 667 0
DWIDTH 22 0
BBX 21 30 0 -7
BITMAP
FFFFE0
3FFFE0
1F00E0
1F0060
1F0060
1F0020
1F0020
1F0400
1F0400
1F0C00
1F1C00
1FFC00
1F1C00
1F0C00
1F0400
1F0400
1F0008
1F0018
1F0030
1F0070
1F01F0
3FFFE0
FFFFE0
000000
00F000
00F000
01F800
019800
030C00
030C00
ENDCHAR
STARTCHAR uni1E19
ENCODING 7705
SWIDTH 444 0
DWIDTH 15 0
BBX 14 23 0 -7
BITMAP
07C0
1EF0
3C70
7838
783C
F83C
F83C
FFFC
F800
F800
F800
7800
7C00
3E18
1FF0
07E0
0000
0F00
0F00
1F80
1980
30C0
30C0
ENDCHAR
STARTCHAR uni1E1A
ENCODING 7706
SWIDTH 667 0
DWIDTH 22 0
BBX 21 28 0 -5
BITMAP
FFFFE0
3FFFE0
1F00E0
1F0060
1F0060
1F0020
1F0020
1F0400
1F0400
1F0C00
1F1C00
1FFC00
1F1C00
1F0C00
1F0400
1F0400
1F0008
1F0018
1F0030
1F0070
1F01F0
3FFFE0
FFFFE0
000000
00C200
01E600
033C00
021800
ENDCHAR
STARTCHAR uni1E1B
ENCODING 7707
SWIDTH 444 0
DWIDTH 15 0
BBX 14 21 0 -5
BITMAP
07C0
1EF0
3C70
7838
783C
F83C
F83C
FFFC
F800
F800
F800
7800
7C00
3E18
1FF0
07E0
0000
0C20
1E60
33C0
2180
ENDCHAR
STARTCHAR uni1E1C
ENCODING 7708
SWIDTH 667 0
DWIDTH 22 0
BBX 21 35 0 -7
BITMAP
040400
060C00
03F800
01F000
000000
FFFFE0
3FFFE0
1F00E0
1F0060
1F0060
1F0020
1F0020
1F0400
1F0400
1F0C00
1F1C00
1FFC00
1F1C00
1F0C00
1F0400
1F0400
1F0008
1F0018
1F0030
1F0070
1F01F0
3FFFE0
FFFFE0
003000
006000
00E000
007000
063000
077000
03E000
ENDCHAR
STARTCHAR uni1E1D
ENCODING 7709
SWIDTH 444 0
DWIDTH 15 0
BBX 14 28 0 -7
BITMAP
1010
1830
0FE0
07C0
0000
07C0
1EF0
3C70
7838
783C
F83C
F83C
FFFC
F800
F800
F800
7800
7C00
3E18
1FF0
07E0
0180
0300
0700
0380
3180
3B80
1F00
ENDCHAR
STARTCHAR uni1E1E
ENCODING 7710
SWIDTH 611 0
DWIDTH 20 0
BBX 19 28 0 0
BITMAP
006000
00F000
00F000
006000
000000
FFFFE0
3FFFE0
1F00E0
1F0060
1F0060
1F0020
1F0020
1F0400
1F0400
1F0C00
1F1C00
1FFC00
1F1C00
1F0C00
1F0400
1F0400
1F0000
1F0000
1F0000
1F0000
1F0000
3F8000
FFE000
ENDCHAR
STARTCHAR uni1E1F
ENCODING 7711
SWIDTH 333 0
DWIDTH 11 0
BBX 12 28 0 0
BITMAP
0300
0780
0780
0300
0000
07E0
1E70
1CF0
3CF0
3C60
3C00
3C00
FF80
FF80
3C00
3C00
3C00
3C00
3C00
3C00
3C00
3C00
3C00
3C00
3C00
3C00
7E00
FF00
ENDCHAR
STARTCHAR uni1E20
ENCODING 7712
SWIDTH 778 0
DWIDTH 25 0
BBX 22 26 2 0
BITMAP
03FE00
03FE00
000000
01FC20
07FF60
0F07E0
1E01E0
3C00E0
7C0060
7C0060
F80020
F80000
F80000
F80000
F80000
F80000
F81FFC
F807F0
F803E0
7C03E0
7C03E0
3C03E0
3E03E0
1E07E0
0F8FE0
03FF00
ENDCHAR
STARTCHAR uni1E21
ENCODING 7713
SWIDTH 500 0
DWIDTH 16 0
BBX 14 26 1 -7
BITMAP
1FF0
1FF0
0000
0FC0
3DFC
70FC
F0F0
F078
F078
F078
F078
78F8
3FF0
1FC0
3C00
6000
E000
FFE0
FFF8
7FFC
303C
601C
C00C
E01C
7FF8
1FE0
ENDCHAR
STARTCHAR uni1E22
ENCODING 7714
SWIDTH 778 0
DWIDTH 25 0
BBX 24 28 0 0
BITMAP
001800
003C00
003C00
001800
000000
FFE7FF
3F81FC
1F00F8
1F00F8
1F00F8
1F00F8
1F00F8
1F00F8
1F00F8
1F00F8
1FFFF8
1FFFF8
1F00F8
1F00F8
1F00F8
1F00F8
1F00F8
1F00F8
1F00F8
1F00F8
1F00F8
3F81FC
FFE7FF
ENDCHAR
STARTCHAR uni1E23
ENCODING 7715
SWIDTH 556 0
DWIDTH 18 0
BBX 17 27 0 0
BITMAP
0C0000
1E0000
1E0000
0C0000
000000
FC0000
7C0000
3C0000
3C0000
3C0000
3C0000
3C7800
3DFC00
3FFE00
3E3E00
3C1E00
3C1E00
3C1E00
3C1E00
3C1E00
3C1E00
3C1E00
3C1E00
3C1E00
3C1E00
7E3F00
FF7F80
ENDCHAR
STARTCHAR uni1E24
ENCODING 7716
SWIDTH 778 0
DWIDTH 25 0
BBX 24 28 0 -5
BITMAP
FFE7FF
3F81FC
1F00F8
1F00F8
1F00F8
1F00F8
1F00F8
1F00F8
1F00F8
1F00F8
1FFFF8
1FFFF8
1F00F8
1F00F8
1F00F8
1F00F8
1F00F8
1F00F8
1F00F8
1F00F8
1F00F8
3F81FC
FFE7FF
000000
001800
003C00
003C00
001800
ENDCHAR
STARTCHAR uni1E25
ENCODING 7717
SWIDTH 556 0
DWIDTH 18 0
BBX 17 27 0 -5
BITMAP
FC0000
7C0000
3C0000
3C0000
3C0000
3C0000
3C7800
3DFC00
3FFE00
3E3E00
3C1E00
3C1E00
3C1E00
3C1E00
3C1E00
3C1E00
3C1E00
3C1E00
3C1E00
3C1E00
7E3F00
FF7F80
000000
00C000
01E000
01E000
00C000
ENDCHAR
STARTCHAR uni1E26
ENCODING 7718
SWIDTH 778 0
DWIDTH 25 0
BBX 24 28 0 0
BITMAP
004200
00E700
00E700
004200
000000
FFE7FF
3F81FC
1F00F8
1F00F8
1F00F8
1F00F8
1F00F8
1F00F8
1F00F8
1F00F8
1FFFF8
1FFFF8
1F00F8
1F00F8
1F00F8
1F00F8
1F00F8
1F00F8
1F00F8
1F00F8
1F00F8
3F81FC
FFE7FF
ENDCHAR
STARTCHAR uni1E27
ENCODING 7719
SWIDTH 556 0
DWIDTH 18 0
BBX 17 27 0 0
BITMAP
210000
738000
738000
210000
000000
FC0000
7C0000
3C0000
3C0000
3C0000
3C0000
3C7800
3DFC00
3FFE00
3E3E00
3C1E00
3C1E00
3C1E00
3C1E00
3C1E00
3C1E00
3C1E00
3C1E00
3C1E00
3C1E00
7E3F00
FF7F80
ENDCHAR
STARTCHAR uni1E28
ENCODING 7720
SWIDTH 778 0
DWIDTH 25 0
BBX 24 30 0 -7
BITMAP
FFE7FF
3F81FC
1F00F8
1F00F8
1F00F8
1F00F8
1F00F8
1F00F8
1F00F8
1F00F8
1FFFF8
1FFFF8
1F00F8
1F00F8
1F00F8
1F00F8
1F00F8
1F00F8
1F00F8
1F00F8
1F00F8
3F81FC
FFE7FF
000C00
001800
003800
001C00
018C00
01DC00
00F800
ENDCHAR
STARTCHAR uni1E29
ENCODING 7721
SWIDTH 556 0
DWIDTH 18 0
BBX 17 29 0 -7
BITMAP
FC0000
7C0000
3C0000
3C0000
3C0000
3C0000
3C7800
3DFC00
3FFE00
3E3E00
3C1E00
3C1E00
3C1E00
3C1E00
3C1E00
3C1E00
3C1E00
3C1E00
3C1E00
3C1E00
7E3F00
FF7F80
006000
00C000
01C000
00E000
0C6000
0EE000
07C000
ENDCHAR
STARTCHAR uni1E2A
ENCODING 7722
SWIDTH 778 0
DWIDTH 25 0
BBX 24 28 0 -5
BITMAP
FFE7FF
3F81FC
1F00F8
1F00F8
1F00F8
1F00F8
1F00F8
1F00F8
1F00F8
1F00F8
1FFFF8
1FFFF8
1F00F8
1F00F8
1F00F8
1F00F8
1F00F8
1F00F8
1F00F8
1F00F8
1F00F8
3F81FC
FFE7FF
000000
008080
00C180
007F00
003E00
ENDCHAR
STARTCHAR uni1E2B
ENCODING 7723
SWIDTH 556 0
DWIDTH 18 0
BBX 17 27 0 -5
BITMAP
FC0000
7C0000
3C0000
3C0000
3C0000
3C0000
3C7800
3DFC00
3FFE00
3E3E00
3C1E00
3C1E00
3C1E00
3C1E00
3C1E00
3C1E00
3C1E00
3C1E00
3C1E00
3C1E00
7E3F00
FF7F80
000000
080800
0C1800
07F000
03E000
ENDCHAR
STARTCHAR uni1E2C
ENCODING 7724
SWIDTH 389 0
DWIDTH 13 0
BBX 11 28 1 -5
BITMAP
FFE0
3F80
1F00
1F00
1F00
1F00
1F00
1F00
1F00
1F00
1F00
1F00
1F00
1F00
1F00
1F00
1F00
1F00
1F00
1F00
1F00
3F80
FFE0
0000
1840
3CC0
6780
4300
ENDCHAR
STARTCHAR uni1E2D
ENCODING 7725
SWIDTH 278 0
DWIDTH 9 0
BBX 9 28 -1 -5
BITMAP
0C00
1E00
1E00
1E00
0C00
0000
0000
7E00
3E00
1E00
1E00
1E00
1E00
1E00
1E00
1E00
1E00
1E00
1E00
1E00
1E00
3F00
7F80
0000
3080
7980
CF00
8600
ENDCHAR
STARTCHAR uni1E2E
ENCODING 7726
SWIDTH 389 0
DWIDTH 13 0
BBX 11 36 1 0
BITMAP
00C0
01C0
0380
0700
0C00
1000
0000
1080
39C0
39C0
1080
0000
0000
FFE0
3F80
1F00
1F00
1F00
1F00
1F00
1F00
1F00
1F00
1F00
1F00
1F00
1F00
1F00
1F00
1F00
1F00
1F00
1F00
1F00
3F80
FFE0
ENDCHAR
STARTCHAR uni1E2F
ENCODING 7727
SWIDTH 278 0
DWIDTH 9 0
BBX 9 29 0 0
BITMAP
0180
0380
0700
0E00
1800
2000
0000
4200
E700
E700
4200
0000
0000
FC00
7C00
3C00
3C00
3C00
3C00
3C00
3C00
3C00
3C00
3C00
3C00
3C00
3C00
7E00
FF00
ENDCHAR
STARTCHAR uni1E30
ENCODING 7728
SWIDTH 778 0
DWIDTH 25 0
BBX 24 30 1 0
BITMAP
000600
000E00
001C00
003800
006000
008000
000000
FFCFFC
7F03E0
3E01C0
3E0380
3E0700
3E0E00
3E1C00
3E3800
3E7000
3EE000
3FF000
3FF800
3FFC00
3EFE00
3E7F00
3E3F80
3E1FC0
3E0FE0
3E07F0
3E03F8
3E01FC
7F00FE
FFC3FF
ENDCHAR
STARTCHAR uni1E31
ENCODING 7729
SWIDTH 556 0
DWIDTH 18 0
BBX 18 29 0 0
BITMAP
00C000
01C000
038000
070000
0C0000
100000
000000
FC0000
7C0000
3C0000
3C0000
3C0000
3C0000
3C1F00
3C0E00
3C0C00
3C1800
3C3000
3C6000
3CC000
3DC000
3FE000
3DF000
3CF800
3C7C00
3C3E00
3C1F00
7E0F80
FF1FC0
ENDCHAR
STARTCHAR uni1E32
ENCODING 7730
SWIDTH 778 0
DWIDTH 25 0
BBX 24 28 1 -5
BITMAP
FFCFFC
7F03E0
3E01C0
3E0380
3E0700
3E0E00
3E1C00
3E3800
3E7000
3EE000
3FF000
3FF800
3FFC00
3EFE00
3E7F00
3E3F80
3E1FC0
3E0FE0
3E07F0
3E03F8
3E01FC
7F00FE
FFC3FF
000000
001800
003C00
003C00
001800
ENDCHAR
STARTCHAR uni1E33
ENCODING 7731
SWIDTH 556 0
DWIDTH 18 0
BBX 18 27 0 -5
BITMAP
FC0000
7C0000
3C0000
3C0000
3C0000
3C0000
3C1F00
3C0E00
3C0C00
3C1800
3C3000
3C6000
3CC000
3DC000
3FE000
3DF000
3CF800
3C7C00
3C3E00
3C1F00
7E0F80
FF1FC0
000000
00C000
01E000
01E000
00C000
ENDCHAR
STARTCHAR uni1E34
ENCODING 7732
SWIDTH 778 0
DWIDTH 25 0
BBX 24 26 1 -3
BITMAP
FFCFFC
7F03E0
3E01C0
3E0380
3E0700
3E0E00
3E1C00
3E3800
3E7000
3EE000
3FF000
3FF800
3FFC00
3EFE00
3E7F00
3E3F80
3E1FC0
3E0FE0
3E07F0
3E03F8
3E01FC
7F00FE
FFC3FF
000000
01FF00
01FF00
ENDCHAR
STARTCHAR uni1E35
ENCODING 7733
SWIDTH 556 0
DWIDTH 18 0
BBX 18 25 0 -3
BITMAP
FC0000
7C0000
3C0000
3C0000
3C0000
3C0000
3C1F00
3C0E00
3C0C00
3C1800
3C3000
3C6000
3CC000
3DC000
3FE000
3DF000
3CF800
3C7C00
3C3E00
3C1F00
7E0F80
FF1FC0
000000
0FF800
0FF800
ENDCHAR
STARTCHAR uni1E36
ENCODING 7734
SWIDTH 667 0
DWIDTH 22 0
BBX 20 28 1 -5
BITMAP
FFE000
3F8000
1F0000
1F0000
1F0000
1F0000
1F0000
1F0000
1F0000
1F0000
1F0000
1F0000
1F0000
1F0000
1F0000
1F0000
1F0010
1F0030
1F0060
1F00E0
1F81E0
3FFFC0
FFFFC0
000000
006000
00F000
00F000
006000
ENDCHAR
STARTCHAR uni1E37
ENCODING 7735
SWIDTH 278 0
DWIDTH 9 0
BBX 8 27 0 -5
BITMAP
FC
7C
3C
3C
3C
3C
3C
3C
3C
3C
3C
3C
3C
3C
3C
3C
3C
3C
3C
3C
7E
FF
00
18
3C
3C
18
ENDCHAR
STARTCHAR uni1E38
ENCODING 7736
SWIDTH 667 0
DWIDTH 22 0
BBX 20 31 1 -5
BITMAP
1FF000
1FF000
000000
FFE000
3F8000
1F0000
1F0000
1F0000
1F0000
1F0000
1F0000
1F0000
1F0000
1F0000
1F0000
1F0000
1F0000
1F0000
1F0000
1F0010
1F0030
1F0060
1F00E0
1F81E0
3FFFC0
FFFFC0
000000
006000
00F000
00F000
006000
ENDCHAR
STARTCHAR uni1E39
ENCODING 7737
SWIDTH 278 0
DWIDTH 9 0
BBX 9 30 -1 -5
BITMAP
FF80
FF80
0000
7E00
3E00
1E00
1E00
1E00
1E00
1E00
1E00
1E00
1E00
1E00
1E00
1E00
1E00
1E00
1E00
1E00
1E00
1E00
1E00
3F00
7F80
0000
0C00
1E00
1E00
0C00
ENDCHAR
STARTCHAR uni1E3A
ENCODING 7738
SWIDTH 667 0
DWIDTH 22 0
BBX 20 26 1 -3
BITMAP
FFE000
3F8000
1F0000
1F0000
1F0000
1F0000
1F0000
1F0000
1F0000
1F0000
1F0000
1F0000
1F0000
1F0000
1F0000
1F0000
1F0010
1F0030
1F0060
1F00E0
1F81E0
3FFFC0
FFFFC0
000000
07FC00
07FC00
ENDCHAR
STARTCHAR uni1E3B
ENCODING 7739
SWIDTH 278 0
DWIDTH 9 0
BBX 9 25 0 -3
BITMAP
FC00
7C00
3C00
3C00
3C00
3C00
3C00
3C00
3C00
3C00
3C00
3C00
3C00
3C00
3C00
3C00
3C00
3C00
3C00
3C00
7E00
FF00
0000
FF80
FF80
ENDCHAR
STARTCHAR uni1E3C
ENCODING 7740
SWIDTH 667 0
DWIDTH 22 0
BBX 20 30 1 -7
BITMAP
FFE000
3F8000
1F0000
1F0000
1F0000
1F0000
1F0000
1F0000
1F0000
1F0000
1F0000
1F0000
1F0000
1F0000
1F0000
1F0000
1F0010
1F0030
1F0060
1F00E0
1F81E0
3FFFC0
FFFFC0
000000
00F000
00F000
01F800
019800
030C00
030C00
ENDCHAR
STARTCHAR uni1E3D
ENCODING 7741
SWIDTH 278 0
DWIDTH 9 0
BBX 8 29 0 -7
BITMAP
FC
7C
3C
3C
3C
3C
3C
3C
3C
3C
3C
3C
3C
3C
3C
3C
3C
3C
3C
3C
7E
FF
00
3C
3C
7E
66
C3
C3
ENDCHAR
STARTCHAR uni1E3E
ENCODING 7742
SWIDTH 944 0
DWIDTH 31 0
BBX 28 30 1 0
BITMAP
00006000
0000E000
0001C000
00038000
00060000
00080000
00000000
FF000FF0
3F001FC0
1F801F80
1F803F80
17C03F80
17C02F80
17C06F80
13E04F80
13E0CF80
13E0CF80
11F08F80
11F18F80
10F90F80
10FB0F80
10FB0F80
107E0F80
107E0F80
107C0F80
103C0F80
103C0F80
10180F80
38181FC0
FE183FF0
ENDCHAR
STARTCHAR uni1E3F
ENCODING 7743
SWIDTH 833 0
DWIDTH 27 0
BBX 26 23 0 0
BITMAP
00018000
00038000
00070000
000E0000
00180000
00200000
00000000
FC783C00
7DFEFE00
3F3F9F00
3E3F1F00
3E1E0F00
3C1E0F00
3C1E0F00
3C1E0F00
3C1E0F00
3C1E0F00
3C1E0F00
3C1E0F00
3C1E0F00
3C1E0F00
7E3F1F80
FF7FBFC0
ENDCHAR
STARTCHAR uni1E40
ENCODING 7744
SWIDTH 944 0
DWIDTH 31 0
BBX 28 28 1 0
BITMAP
00060000
000F0000
000F0000
00060000
00000000
FF000FF0
3F001FC0
1F801F80
1F803F80
17C03F80
17C02F80
17C06F80
13E04F80
13E0CF80
13E0CF80
11F08F80
11F18F80
10F90F80
10FB0F80
10FB0F80
107E0F80
107E0F80
107C0F80
103C0F80
103C0F80
10180F80
38181FC0
FE183FF0
ENDCHAR
STARTCHAR uni1E41
ENCODING 7745
SWIDTH 833 0
DWIDTH 27 0
BBX 26 21 0 0
BITMAP
00180000
003C0000
003C0000
00180000
00000000
FC783C00
7DFEFE00
3F3F9F00
3E3F1F00
3E1E0F00
3C1E0F00
3C1E0F00
3C1E0F00
3C1E0F00
3C1E0F00
3C1E0F00
3C1E0F00
3C1E0F00
3C1E0F00
7E3F1F80
FF7FBFC0
ENDCHAR
STARTCHAR uni1E42
ENCODING 7746
SWIDTH 944 0
DWIDTH 31 0
BBX 28 28 1 -5
BITMAP
FF000FF0
3F001FC0
1F801F80
1F803F80
17C03F80
17C02F80
17C06F80
13E04F80
13E0CF80
13E0CF80
11F08F80
11F18F80
10F90F80
10FB0F80
10FB0F80
107E0F80
107E0F80
107C0F80
103C0F80
103C0F80
10180F80
38181FC0
FE183FF0
00000000
00030000
00078000
00078000
00030000
ENDCHAR
STARTCHAR uni1E43
ENCODING 7747
SWIDTH 833 0
DWIDTH 27 0
BBX 26 21 0 -5
BITMAP
FC783C00
7DFEFE00
3F3F9F00
3E3F1F00
3E1E0F00
3C1E0F00
3C1E0F00
3C1E0F00
3C1E0F00
3C1E0F00
3C1E0F00
3C1E0F00
3C1E0F00
3C1E0F00
7E3F1F80
FF7FBFC0
00000000
000C0000
001E0000
001E0000
000C0000
ENDCHAR
STARTCHAR uni1E44
ENCODING 7748
SWIDTH 722 0
DWIDTH 24 0
BBX 22 28 1 0
BITMAP
006000
00F000
00F000
006000
000000
FE01FC
7F0070
3F8020
1F8020
1FC020
1FE020
17F020
13F820
11F820
11FC20
10FE20
107F20
103F20
101FA0
101FE0
100FE0
1007E0
1003E0
1003E0
1001E0
1000E0
380060
FE0020
ENDCHAR
STARTCHAR uni1E45
ENCODING 7749
SWIDTH 556 0
DWIDTH 18 0
BBX 17 21 0 0
BITMAP
018000
03C000
03C000
018000
000000
FC7800
7DFC00
3F3E00
3E1E00
3E1E00
3C1E00
3C1E00
3C1E00
3C1E00
3C1E00
3C1E00
3C1E00
3C1E00
3C1E00
7E3F00
FF7F80
ENDCHAR
STARTCHAR uni1E46
ENCODING 7750
SWIDTH 722 0
DWIDTH 24 0
BBX 22 28 1 -5
BITMAP
FE01FC
7F0070
3F8020
1F8020
1FC020
1FE020
17F020
13F820
11F820
11FC20
10FE20
107F20
103F20
101FA0
101FE0
100FE0
1007E0
1003E0
1003E0
1001E0
1000E0
380060
FE0020
000000
003000
007800
007800
003000
ENDCHAR
STARTCHAR uni1E47
ENCODING 7751
SWIDTH 556 0
DWIDTH 18 0
BBX 17 21 0 -5
BITMAP
FC7800
7DFC00
3F3E00
3E1E00
3E1E00
3C1E00
3C1E00
3C1E00
3C1E00
3C1E00
3C1E00
3C1E00
3C1E00
3C1E00
7E3F00
FF7F80
000000
00C000
01E000
01E000
00C000
ENDCHAR
STARTCHAR uni1E48
ENCODING 7752
SWIDTH 722 0
DWIDTH 24 0
BBX 22 26 1 -3
BITMAP
FE01FC
7F0070
3F8020
1F8020
1FC020
1FE020
17F020
13F820
11F820
11FC20
10FE20
107F20
103F20
101FA0
101FE0
100FE0
1007E0
1003E0
1003E0
1001E0
1000E0
380060
FE0020
000000
01FF00
01FF00
ENDCHAR
STARTCHAR uni1E49
ENCODING 7753
SWIDTH 556 0
DWIDTH 18 0
BBX 17 19 0 -3
BITMAP
FC7800
7DFC00
3F3E00
3E1E00
3E1E00
3C1E00
3C1E00
3C1E00
3C1E00
3C1E00
3C1E00
3C1E00
3C1E00
3C1E00
7E3F00
FF7F80
000000
0FF800
0FF800
ENDCHAR
STARTCHAR uni1E4A
ENCODING 7754
SWIDTH 722 0
DWIDTH 24 0
BBX 22 30 1 -7
BITMAP
FE01FC
7F0070
3F8020
1F8020
1FC020
1FE020
17F020
13F820
11F820
11FC20
10FE20
107F20
103F20
101FA0
101FE0
100FE0
1007E0
1003E0
1003E0
1001E0
1000E0
380060
FE0020
000000
007800
007800
00FC00
00CC00
018600
018600
ENDCHAR
STARTCHAR uni1E4B
ENCODING 7755
SWIDTH 556 0
DWIDTH 18 0
BBX 17 23 0 -7
BITMAP
FC7800
7DFC00
3F3E00
3E1E00
3E1E00
3C1E00
3C1E00
3C1E00
3C1E00
3C1E00
3C1E00
3C1E00
3C1E00
3C1E00
7E3F00
FF7F80
000000
01E000
01E000
03F000
033000
061800
061800
ENDCHAR
STARTCHAR uni1E4C
ENCODING 7756
SWIDTH 778 0
DWIDTH 25 0
BBX 21 36 2 0
BITMAP
000600
000E00
001C00
003800
006000
008000
000000
00C200
01F600
037C00
021800
000000
000000
01FC00
07FF00
0F8F80
1E03C0
3C01E0
7C01F0
7800F0
F800F8
F800F8
F800F8
F800F8
F800F8
F800F8
F800F8
F800F8
F800F8
7800F0
7C01F0
3C01E0
1E03C0
0F8F80
07FF00
01FC00
ENDCHAR
STARTCHAR uni1E4D
ENCODING 7757
SWIDTH 500 0
DWIDTH 17 0
BBX 14 29 1 0
BITMAP
0030
0070
00E0
01C0
0300
0400
0000
0C20
1F60
37C0
2180
0000
0000
0FC0
3CF0
7878
7878
F03C
F03C
F03C
F03C
F03C
F03C
F03C
F03C
7878
7878
3CF0
0FC0
ENDCHAR
STARTCHAR uni1E4E
ENCODING 7758
SWIDTH 778 0
DWIDTH 25 0
BBX 21 34 2 0
BITMAP
008400
01CE00
01CE00
008400
000000
00C200
01F600
037C00
021800
000000
000000
01FC00
07FF00
0F8F80
1E03C0
3C01E0
7C01F0
7800F0
F800F8
F800F8
F800F8
F800F8
F800F8
F800F8
F800F8
F800F8
F800F8
7800F0
7C01F0
3C01E0
1E03C0
0F8F80
07FF00
01FC00
ENDCHAR
STARTCHAR uni1E4F
ENCODING 7759
SWIDTH 500 0
DWIDTH 17 0
BBX 14 27 1 0
BITMAP
0840
1CE0
1CE0
0840
0000
0C20
1F60
37C0
2180
0000
0000
0FC0
3CF0
7878
7878
F03C
F03C
F03C
F03C
F03C
F03C
F03C
F03C
7878
7878
3CF0
0FC0
ENDCHAR
STARTCHAR uni1E50
ENCODING 7760
SWIDTH 778 0
DWIDTH 25 0
BBX 21 33 2 0
BITMAP
030000
038000
01C000
00E000
003000
000800
000000
03FE00
03FE00
000000
01FC00
07FF00
0F8F80
1E03C0
3C01E0
7C01F0
7800F0
F800F8
F800F8
F800F8
F800F8
F800F8
F800F8
F800F8
F800F8
F800F8
7800F0
7C01F0
3C01E0
1E03C0
0F8F80
07FF00
01FC00
ENDCHAR
STARTCHAR uni1E51
ENCODING 7761
SWIDTH 500 0
DWIDTH 17 0
BBX 14 26 1 0
BITMAP
3000
3800
1C00
0E00
0300
0080
0000
1FF0
1FF0
0000
0FC0
3CF0
7878
7878
F03C
F03C
F03C
F03C
F03C
F03C
F03C
F03C
7878
7878
3CF0
0FC0
ENDCHAR
STARTCHAR uni1E52
ENCODING 7762
SWIDTH 778 0
DWIDTH 25 0
BBX 21 33 2 0
BITMAP
000600
000E00
001C00
003800
006000
008000
000000
03FE00
03FE00
000000
01FC00
07FF00
0F8F80
1E03C0
3C01E0
7C01F0
7800F0
F800F8
F800F8
F800F8
F800F8
F800F8
F800F8
F800F8
F800F8
F800F8
7800F0
7C01F0
3C01E0
1E03C0
0F8F80
07FF00
01FC00
ENDCHAR
STARTCHAR uni1E53
ENCODING 7763
SWIDTH 500 0
DWIDTH 17 0
BBX 14 26 1 0
BITMAP
0030
0070
00E0
01C0
0300
0400
0000
1FF0
1FF0
0000
0FC0
3CF0
7878
7878
F03C
F03C
F03C
F03C
F03C
F03C
F03C
F03C
7878
7878
3CF0
0FC0
ENDCHAR
STARTCHAR uni1E54
ENCODING 7764
SWIDTH 611 0
DWIDTH 20 0
BBX 19 30 0 0
BITMAP
000600
000E00
001C00
003800
006000
008000
000000
FFFC00
3F1F80
1F0FC0
1F07C0
1F07E0
1F03E0
1F03E0
1F03E0
1F03E0
1F07C0
1F07C0
1F1F80
1FFE00
1F0000
1F0000
1F0000
1F0000
1F0000
1F0000
1F0000
1F0000
3F8000
FFE000
ENDCHAR
STARTCHAR uni1E55
ENCODING 7765
SWIDTH 556 0
DWIDTH 18 0
BBX 17 30 0 -7
BITMAP
001800
003800
007000
00E000
018000
020000
000000
FCF800
7DFE00
3F1F00
3E0F00
3C0F80
3C0780
3C0780
3C0780
3C0780
3C0780
3C0780
3C0780
3E0F00
3F0F00
3FFE00
3CF800
3C0000
3C0000
3C0000
3C0000
3C0000
7E0000
FF0000
ENDCHAR
STARTCHAR uni1E56
ENCODING 7766
SWIDTH 611 0
DWIDTH 20 0
BBX 19 28 0 0
BITMAP
006000
00F000
00F000
006000
000000
FFFC00
3F1F80
1F0FC0
1F07C0
1F07E0
1F03E0
1F03E0
1F03E0
1F03E0
1F07C0
1F07C0
1F1F80
1FFE00
1F0000
1F0000
1F0000
1F0000
1F0000
1F0000
1F0000
1F0000
3F8000
FFE000
ENDCHAR
STARTCHAR uni1E57
ENCODING 7767
SWIDTH 556 0
DWIDTH 18 0
BBX 17 28 0 -7
BITMAP
018000
03C000
03C000
018000
000000
FCF800
7DFE00
3F1F00
3E0F00
3C0F80
3C0780
3C0780
3C0780
3C0780
3C0780
3C0780
3C0780
3E0F00
3F0F00
3FFE00
3CF800
3C0000
3C0000
3C0000
3C0000
3C0000
7E0000
FF0000
ENDCHAR
STARTCHAR uni1E58
ENCODING 7768
SWIDTH 722 0
DWIDTH 24 0
BBX 22 28 1 0
BITMAP
006000
00F000
00F000
006000
000000
FFFC00
3F1F80
1F07C0
1F07E0
1F03E0
1F03E0
1F03E0
1F03E0
1F07E0
1F07C0
1F1F80
1FFC00
1F7E00
1F3E00
1F3F00
1F1F80
1F1F80
1F0FC0
1F07E0
1F07E0
1F03F0
3F81F8
FFE1FC
ENDCHAR
STARTCHAR uni1E59
ENCODING 7769
SWIDTH 444 0
DWIDTH 15 0
BBX 13 21 1 0
BITMAP
0300
0780
0780
0300
0000
FC70
7CF8
3FF8
3F78
3E30
3C00
3C00
3C00
3C00
3C00
3C00
3C00
3C00
3C00
7E00
FF00
ENDCHAR
STARTCHAR uni1E5A
ENCODING 7770
SWIDTH 722 0
DWIDTH 24 0
BBX 22 28 1 -5
BITMAP
FFFC00
3F1F80
1F07C0
1F07E0
1F03E0
1F03E0
1F03E0
1F03E0
1F07E0
1F07C0
1F1F80
1FFC00
1F7E00
1F3E00
1F3F00
1F1F80
1F1F80
1F0FC0
1F07E0
1F07E0
1F03F0
3F81F8
FFE1FC
000000
003000
007800
007800
003000
ENDCHAR
STARTCHAR uni1E5B
ENCODING 7771
SWIDTH 444 0
DWIDTH 15 0
BBX 13 21 1 -5
BITMAP
FC70
7CF8
3FF8
3F78
3E30
3C00
3C00
3C00
3C00
3C00
3C00
3C00
3C00
3C00
7E00
FF00
0000
0C00
1E00
1E00
0C00
ENDCHAR
STARTCHAR uni1E5C
ENCODING 7772
SWIDTH 722 0
DWIDTH 24 0
BBX 22 31 1 -5
BITMAP
03FE00
03FE00
000000
FFFC00
3F1F80
1F07C0
1F07E0
1F03E0
1F03E0
1F03E0
1F03E0
1F07E0
1F07C0
1F1F80
1FFC00
1F7E00
1F3E00
1F3F00
1F1F80
1F1F80
1F0FC0
1F07E0
1F07E0
1F03F0
3F81F8
FFE1FC
000000
003000
007800
007800
003000
ENDCHAR
STARTCHAR uni1E5D
ENCODING 7773
SWIDTH 444 0
DWIDTH 15 0
BBX 13 24 1 -5
BITMAP
3FE0
3FE0
0000
FC70
7CF8
3FF8
3F78
3E30
3C00
3C00
3C00
3C00
3C00
3C00
3C00
3C00
3C00
7E00
FF00
0000
0C00
1E00
1E00
0C00
ENDCHAR
STARTCHAR uni1E5E
ENCODING 7774
SWIDTH 722 0
DWIDTH 24 0
BBX 22 26 1 -3
BITMAP
FFFC00
3F1F80
1F07C0
1F07E0
1F03E0
1F03E0
1F03E0
1F03E0
1F07E0
1F07C0
1F1F80
1FFC00
1F7E00
1F3E00
1F3F00
1F1F80
1F1F80
1F0FC0
1F07E0
1F07E0
1F03F0
3F81F8
FFE1FC
000000
01FF00
01FF00
ENDCHAR
STARTCHAR uni1E5F
ENCODING 7775
SWIDTH 444 0
DWIDTH 15 0
BBX 13 19 1 -3
BITMAP
FC70
7CF8
3FF8
3F78
3E30
3C00
3C00
3C00
3C00
3C00
3C00
3C00
3C00
3C00
7E00
FF00
0000
FF80
FF80
ENDCHAR
STARTCHAR uni1E60
ENCODING 7776
SWIDTH 556 0
DWIDTH 18 0
BBX 15 28 1 0
BITMAP
0300
0780
0780
0300
0000
0FC4
387C
703C
701C
F00C
F00C
F804
FC00
FF00
7FC0
3FF0
1FF8
0FFC
03FC
01FE
807E
803E
C01E
C01E
E01C
F01C
F838
8FE0
ENDCHAR
STARTCHAR uni1E61
ENCODING 7777
SWIDTH 389 0
DWIDTH 13 0
BBX 10 21 1 0
BITMAP
0C00
1E00
1E00
0C00
0000
1F40
71C0
60C0
E0C0
F040
FC00
7F00
7F80
3F80
0FC0
03C0
81C0
C1C0
C1C0
E380
BF00
ENDCHAR
STARTCHAR uni1E62
ENCODING 7778
SWIDTH 556 0
DWIDTH 18 0
BBX 15 28 1 -5
BITMAP
0FC4
387C
703C
701C
F00C
F00C
F804
FC00
FF00
7FC0
3FF0
1FF8
0FFC
03FC
01FE
807E
803E
C01E
C01E
E01C
F01C
F838
8FE0
0000
0300
0780
0780
0300
ENDCHAR
STARTCHAR uni1E63
ENCODING 7779
SWIDTH 389 0
DWIDTH 13 0
BBX 10 21 1 -5
BITMAP
1F40
71C0
60C0
E0C0
F040
FC00
7F00
7F80
3F80
0FC0
03C0
81C0
C1C0
C1C0
E380
BF00
0000
0C00
1E00
1E00
0C00
ENDCHAR
STARTCHAR uni1E64
ENCODING 7780
SWIDTH 556 0
DWIDTH 18 0
BBX 15 35 1 0
BITMAP
0180
03C0
03C0
0180
0000
0030
0070
00E0
01C0
0300
0400
0000
0FC4
387C
703C
701C
F00C
F00C
F804
FC00
FF00
7FC0
3FF0
1FF8
0FFC
03FC
01FE
807E
803E
C01E
C01E
E01C
F01C
F838
8FE0
ENDCHAR
STARTCHAR uni1E65
ENCODING 7781
SWIDTH 389 0
DWIDTH 13 0
BBX 10 28 1 0
BITMAP
0600
0F00
0F00
0600
0000
00C0
01C0
0380
0700
0C00
1000
0000
1F40
71C0
60C0
E0C0
F040
FC00
7F00
7F80
3F80
0FC0
03C0
81C0
C1C0
C1C0
E380
BF00
ENDCHAR
STARTCHAR uni1E66
ENCODING 7782
SWIDTH 556 0
DWIDTH 18 0
BBX 15 32 1 0
BITMAP
0300
0780
0780
0300
0000
1860
1860
0CC0
0FC0
0780
0780
0000
0000
0FC4
387C
703C
701C
F00C
F00C
FC04
7F80
7FE0
1FF8
07FC
80FE
803E
C01E
C01E
E01C
F01C
F838
8FE0
ENDCHAR
STARTCHAR uni1E67
ENCODING 7783
SWIDTH 389 0
DWIDTH 13 0
BBX 10 29 1 0
BITMAP
0C00
1E00
1E00
0C00
0000
6180
6180
3300
3F00
1E00
1E00
0000
0000
1F40
71C0
60C0
E0C0
F040
FC00
7F00
7F80
3F80
0FC0
03C0
81C0
C1C0
C1C0
E380
BF00
ENDCHAR
STARTCHAR uni1E68
ENCODING 7784
SWIDTH 556 0
DWIDTH 18 0
BBX 15 33 1 -5
BITMAP
0300
0780
0780
0300
0000
0FC4
387C
703C
701C
F00C
F00C
F804
FC00
FF00
7FC0
3FF0
1FF8
0FFC
03FC
01FE
807E
803E
C01E
C01E
E01C
F01C
F838
8FE0
0000
0300
0780
0780
0300
ENDCHAR
STARTCHAR uni1E69
ENCODING 7785
SWIDTH 389 0
DWIDTH 13 0
BBX 10 26 1 -5
BITMAP
0C00
1E00
1E00
0C00
0000
1F40
71C0
60C0
E0C0
F040
FC00
7F00
7F80
3F80
0FC0
03C0
81C0
C1C0
C1C0
E380
BF00
0000
0C00
1E00
1E00
0C00
ENDCHAR
STARTCHAR uni1E6A
ENCODING 7786
SWIDTH 667 0
DWIDTH 22 0
BBX 19 28 1 0
BITMAP
006000
00F000
00F000
006000
000000
FFFFE0
F9F3E0
E1F0E0
C1F060
81F020
81F020
81F020
01F000
01F000
01F000
01F000
01F000
01F000
01F000
01F000
01F000
01F000
01F000
01F000
01F000
01F000
03F800
0FFE00
ENDCHAR
STARTCHAR uni1E6B
ENCODING 7787
SWIDTH 333 0
DWIDTH 11 0
BBX 10 26 0 0
BITMAP
0C00
1E00
1E00
0C00
0000
0400
0C00
1C00
1C00
3C00
7F80
FF80
3C00
3C00
3C00
3C00
3C00
3C00
3C00
3C00
3C00
3C00
3C40
3EC0
3F80
1E00
ENDCHAR
STARTCHAR uni1E6C
ENCODING 7788
SWIDTH 667 0
DWIDTH 22 0
BBX 19 28 1 -5
BITMAP
FFFFE0
F9F3E0
E1F0E0
C1F060
81F020
81F020
81F020
01F000
01F000
01F000
01F000
01F000
01F000
01F000
01F000
01F000
01F000
01F000
01F000
01F000
01F000
03F800
0FFE00
000000
006000
00F000
00F000
006000
ENDCHAR
STARTCHAR uni1E6D
ENCODING 7789
SWIDTH 333 0
DWIDTH 11 0
BBX 10 26 0 -5
BITMAP
0400
0C00
1C00
1C00
3C00
7F80
FF80
3C00
3C00
3C00
3C00
3C00
3C00
3C00
3C00
3C00
3C00
3C40
3EC0
3F80
1E00
0000
0C00
1E00
1E00
0C00
ENDCHAR
STARTCHAR uni1E6E
ENCODING 7790
SWIDTH 667 0
DWIDTH 22 0
BBX 19 26 1 -3
BITMAP
FFFFE0
F9F3E0
E1F0E0
C1F060
81F020
81F020
81F020
01F000
01F000
01F000
01F000
01F000
01F000
01F000
01F000
01F000
01F000
01F000
01F000
01F000
01F000
03F800
0FFE00
000000
07FC00
07FC00
ENDCHAR
STARTCHAR uni1E6F
ENCODING 7791
SWIDTH 333 0
DWIDTH 11 0
BBX 10 24 0 -3
BITMAP
0400
0C00
1C00
1C00
3C00
7F80
FF80
3C00
3C00
3C00
3C00
3C00
3C00
3C00
3C00
3C00
3C00
3C40
3EC0
3F80
1E00
0000
7FC0
7FC0
ENDCHAR
STARTCHAR uni1E70
ENCODING 7792
SWIDTH 667 0
DWIDTH 22 0
BBX 19 30 1 -7
BITMAP
FFFFE0
F9F3E0
E1F0E0
C1F060
81F020
81F020
81F020
01F000
01F000
01F000
01F000
01F000
01F000
01F000
01F000
01F000
01F000
01F000
01F000
01F000
01F000
03F800
0FFE00
000000
00F000
00F000
01F800
019800
030C00
030C00
ENDCHAR
STARTCHAR uni1E71
ENCODING 7793
SWIDTH 333 0
DWIDTH 11 0
BBX 10 28 0 -7
BITMAP
0400
0C00
1C00
1C00
3C00
7F80
FF80
3C00
3C00
3C00
3C00
3C00
3C00
3C00
3C00
3C00
3C00
3C40
3EC0
3F80
1E00
0000
1E00
1E00
3F00
3300
6180
6180
ENDCHAR
STARTCHAR uni1E72
ENCODING 7794
SWIDTH 722 0
DWIDTH 24 0
BBX 23 28 0 -5
BITMAP
FFE0FE
3F8038
1F0010
1F0010
1F0010
1F0010
1F0010
1F0010
1F0010
1F0010
1F0010
1F0010
1F0010
1F0010
1F0010
1F0010
1F0010
1F0010
0F8030
0F8060
07C0C0
03FF80
00FE00
000000
008400
01CE00
01CE00
008400
ENDCHAR
STARTCHAR uni1E73
ENCODING 7795
SWIDTH 556 0
DWIDTH 18 0
BBX 17 21 0 -5
BITMAP
FC7E00
7C3E00
3C1E00
3C1E00
3C1E00
3C1E00
3C1E00
3C1E00
3C1E00
3C1E00
3C1E00
3C1E00
3C3E00
3E5F00
1FDF80
078C00
000000
021000
073800
073800
021000
ENDCHAR
STARTCHAR uni1E74
ENCODING 7796
SWIDTH 722 0
DWIDTH 24 0
BBX 23 28 0 -5
BITMAP
FFE0FE
3F8038
1F0010
1F0010
1F0010
1F0010
1F0010
1F0010
1F0010
1F0010
1F0010
1F0010
1F0010
1F0010
1F0010
1F0010
1F0010
1F0010
0F8030
0F8060
07C0C0
03FF80
00FE00
000000
00C200
01E600
033C00
021800
ENDCHAR
STARTCHAR uni1E75
ENCODING 7797
SWIDTH 556 0
DWIDTH 18 0
BBX 17 21 0 -5
BITMAP
FC7E00
7C3E00
3C1E00
3C1E00
3C1E00
3C1E00
3C1E00
3C1E00
3C1E00
3C1E00
3C1E00
3C1E00
3C3E00
3E5F00
1FDF80
078C00
000000
030800
079800
0CF000
086000
ENDCHAR
STARTCHAR uni1E76
ENCODING 7798
SWIDTH 722 0
DWIDTH 24 0
BBX 23 30 0 -7
BITMAP
FFE0FE
3F8038
1F0010
1F0010
1F0010
1F0010
1F0010
1F0010
1F0010
1F0010
1F0010
1F0010
1F0010
1F0010
1F0010
1F0010
1F0010
1F0010
0F8030
0F8060
07C0C0
03FF80
00FE00
000000
007800
007800
00FC00
00CC00
018600
018600
ENDCHAR
STARTCHAR uni1E77
ENCODING 7799
SWIDTH 556 0
DWIDTH 18 0
BBX 17 23 0 -7
BITMAP
FC7E00
7C3E00
3C1E00
3C1E00
3C1E00
3C1E00
3C1E00
3C1E00
3C1E00
3C1E00
3C1E00
3C1E00
3C3E00
3E5F00
1FDF80
078C00
000000
01E000
01E000
03F000
033000
061800
061800
ENDCHAR
STARTCHAR uni1E78
ENCODING 7800
SWIDTH 722 0
DWIDTH 24 0
BBX 23 35 0 0
BITMAP
000600
000E00
001C00
003800
006000
008000
000000
00C200
01E600
033C00
021800
000000
FFE0FE
3F8038
1F0010
1F0010
1F0010
1F0010
1F0010
1F0010
1F0010
1F0010
1F0010
1F0010
1F0010
1F0010
1F0010
1F0010
1F0010
1F0010
0F8030
0F8060
07C0C0
03FF80
00FE00
ENDCHAR
STARTCHAR uni1E79
ENCODING 7801
SWIDTH 556 0
DWIDTH 18 0
BBX 17 28 0 0
BITMAP
001800
003800
007000
00E000
018000
020000
000000
030800
079800
0CF000
086000
000000
FC7E00
7C3E00
3C1E00
3C1E00
3C1E00
3C1E00
3C1E00
3C1E00
3C1E00
3C1E00
3C1E00
3C1E00
3C3E00
3E5F00
1FDF80
078C00
ENDCHAR
STARTCHAR uni1E7A
ENCODING 7802
SWIDTH 722 0
DWIDTH 24 0
BBX 23 31 0 0
BITMAP
010800
039C00
039C00
010800
000000
03FE00
03FE00
000000
FFE0FE
3F8038
1F0010
1F0010
1F0010
1F0010
1F0010
1F0010
1F0010
1F0010
1F0010
1F0010
1F0010
1F0010
1F0010
1F0010
1F0010
1F0010
0F8030
0F8060
07C0C0
03FF80
00FE00
ENDCHAR
STARTCHAR uni1E7B
ENCODING 7803
SWIDTH 556 0
DWIDTH 18 0
BBX 17 24 0 0
BITMAP
042000
0E7000
0E7000
042000
000000
0FF800
0FF800
000000
FC7E00
7C3E00
3C1E00
3C1E00
3C1E00
3C1E00
3C1E00
3C1E00
3C1E00
3C1E00
3C1E00
3C1E00
3C3E00
3E5F00
1FDF80
078C00
ENDCHAR
STARTCHAR uni1E7C
ENCODING 7804
SWIDTH 722 0
DWIDTH 24 0
BBX 22 28 1 0
BITMAP
018400
03CC00
067800
043000
000000
FFC3FC
7F00F0
3E0060
3F0040
1F00C0
1F80C0
0F8080
0F8180
0FC100
07C100
07C300
03E200
03E600
03F600
01F400
01FC00
00F800
00F800
00F800
007000
007000
002000
002000
ENDCHAR
STARTCHAR uni1E7D
ENCODING 7805
SWIDTH 500 0
DWIDTH 17 0
BBX 15 21 0 0
BITMAP
0610
0F30
19E0
10C0
0000
FF3E
7C0C
3C08
3E18
1E10
1F10
1F30
0F20
0F20
07E0
07C0
07C0
0380
0380
0100
0100
ENDCHAR
STARTCHAR uni1E7E
ENCODING 7806
SWIDTH 722 0
DWIDTH 24 0
BBX 22 28 1 -5
BITMAP
FFC3FC
7F00F0
3E0060
3F0040
1F00C0
1F80C0
0F8080
0F8180
0FC100
07C100
07C300
03E200
03E600
03F600
01F400
01FC00
00F800
00F800
00F800
007000
007000
002000
002000
000000
003000
007800
007800
003000
ENDCHAR
STARTCHAR uni1E7F
ENCODING 7807
SWIDTH 500 0
DWIDTH 17 0
BBX 15 21 0 -5
BITMAP
FF3E
7C0C
3C08
3E18
1E10
1F10
1F30
0F20
0F20
07E0
07C0
07C0
0380
0380
0100
0100
0000
0180
03C0
03C0
0180
ENDCHAR
STARTCHAR Wgrave
ENCODING 7808
SWIDTH 1000 0
DWIDTH 33 0
BBX 32 30 0 0
BITMAP
00300000
00380000
001C0000
000E0000
00030000
00008000
00000000
FFEFFF3F
7F03F80E
3F01F80C
1F01F80C
1F01F808
1F81FC18
0F81FC18
0F817C10
0FC37C30
07C27E30
07C63E20
07E63E60
03E43E60
03EC1F40
03F81FC0
01F81FC0
01F80F80
01F00F80
00F00F80
00E00700
00E00700
00E00700
00400200
ENDCHAR
STARTCHAR wgrave
ENCODING 7809
SWIDTH 722 0
DWIDTH 24 0
BBX 23 23 0 0
BITMAP
030000
038000
01C000
00E000
003000
000800
000000
FF7FBE
7E3E1C
3C1E08
3E1E18
1E1F10
1F1F30
1F3F30
0F2FA0
0FE7E0
07E7C0
07C7C0
07C3C0
038380
038380
010100
010100
ENDCHAR
STARTCHAR Wacute
ENCODING 7810
SWIDTH 1000 0
DWIDTH 33 0
BBX 32 30 0 0
BITMAP
00003000
00007000
0000E000
0001C000
00030000
00040000
00000000
FFEFFF3F
7F03F80E
3F01F80C
1F01F80C
1F01F808
1F81FC18
0F81FC18
0F817C10
0FC37C30
07C27E30
07C63E20
07E63E60
03E43E60
03EC1F40
03F81FC0
01F81FC0
01F80F80
01F00F80
00F00F80
00E00700
00E00700
00E00700
00400200
ENDCHAR
STARTCHAR wacute
ENCODING 7811
SWIDTH 722 0
DWIDTH 24 0
BBX 23 23 0 0
BITMAP
000300
000700
000E00
001C00
003000
004000
000000
FF7FBE
7E3E1C
3C1E08
3E1E18
1E1F10
1F1F30
1F3F30
0F2FA0
0FE7E0
07E7C0
07C7C0
07C3C0
038380
038380
010100
010100
ENDCHAR
STARTCHAR Wdieresis
ENCODING 7812
SWIDTH 1000 0
DWIDTH 33 0
BBX 32 28 0 0
BITMAP
00084000
001CE000
001CE000
00084000
00000000
FFEFFF3F
7F03F80E
3F01F80C
1F01F80C
1F01F808
1F81FC18
0F81FC18
0F817C10
0FC37C30
07C27E30
07C63E20
07E63E60
03E43E60
03EC1F40
03F81FC0
01F81FC0
01F80F80
01F00F80
00F00F80
00E00700
00E00700
00E00700
00400200
ENDCHAR
STARTCHAR wdieresis
ENCODING 7813
SWIDTH 722 0
DWIDTH 24 0
BBX 23 21 0 0
BITMAP
008400
01CE00
01CE00
008400
000000
FF7FBE
7E3E1C
3C1E08
3E1E18
1E1F10
1F1F30
1F3F30
0F2FA0
0FE7E0
07E7C0
07C7C0
07C3C0
038380
038380
010100
010100
ENDCHAR
STARTCHAR uni1E86
ENCODING 7814
SWIDTH 1000 0
DWIDTH 33 0
BBX 32 28 0 0
BITMAP
00030000
00078000
00078000
00030000
00000000
FFEFFF3F
7F03F80E
3F01F80C
1F01F80C
1F01F808
1F81FC18
0F81FC18
0F817C10
0FC37C30
07C27E30
07C63E20
07E63E60
03E43E60
03EC1F40
03F81FC0
01F81FC0
01F80F80
01F00F80
00F00F80
00E00700
00E00700
00E00700
00400200
ENDCHAR
STARTCHAR uni1E87
ENCODING 7815
SWIDTH 722 0
DWIDTH 24 0
BBX 23 21 0 0
BITMAP
003000
007800
007800
003000
000000
FF7FBE
7E3E1C
3C1E08
3E1E18
1E1F10
1F1F30
1F3F30
0F2FA0
0FE7E0
07E7C0
07C7C0
07C3C0
038380
038380
010100
010100
ENDCHAR
STARTCHAR uni1E88
ENCODING 7816
SWIDTH 1000 0
DWIDTH 33 0
BBX 32 28 0 -5
BITMAP
FFEFFF3F
7F03F80E
3F01F80C
1F01F80C
1F01F808
1F81FC18
0F81FC18
0F817C10
0FC37C30
07C27E30
07C63E20
07E63E60
03E43E60
03EC1F40
03F81FC0
01F81FC0
01F80F80
01F00F80
00F00F80
00E00700
00E00700
00E00700
00400200
00000000
00018000
0003C000
0003C000
00018000
ENDCHAR
STARTCHAR uni1E89
ENCODING 7817
SWIDTH 722 0
DWIDTH 24 0
BBX 23 21 0 -5
BITMAP
FF7FBE
7E3E1C
3C1E08
3E1E18
1E1F10
1F1F30
1F3F30
0F2FA0
0FE7E0
07E7C0
07C7C0
07C3C0
038380
038380
010100
010100
000000
003000
007800
007800
003000
ENDCHAR
STARTCHAR uni1E8A
ENCODING 7818
SWIDTH 722 0
DWIDTH 24 0
BBX 21 28 1 0
BITMAP
00C000
01E000
01E000
00C000
000000
FFCFE0
7F0300
3F0200
1F8600
1F8400
0FCC00
0FC800
07F800
03F000
03F000
01F800
00F800
01FC00
017C00
033E00
023F00
061F00
041F80
0C0FC0
080FC0
1807E0
3807F0
FE3FF8
ENDCHAR
STARTCHAR uni1E8B
ENCODING 7819
SWIDTH 500 0
DWIDTH 17 0
BBX 16 21 0 0
BITMAP
0300
0780
0780
0300
0000
FF3E
7E18
3E18
1F30
1F60
0FC0
0FC0
07C0
03E0
03E0
07F0
0DF8
18F8
187C
307C
FCFF
ENDCHAR
STARTCHAR uni1E8C
ENCODING 7820
SWIDTH 722 0
DWIDTH 24 0
BBX 21 28 1 0
BITMAP
021000
073800
073800
021000
000000
FFCFE0
7F0300
3F0200
1F8600
1F8400
0FCC00
0FC800
07F800
03F000
03F000
01F800
00F800
01FC00
017C00
033E00
023F00
061F00
041F80
0C0FC0
080FC0
1807E0
3807F0
FE3FF8
ENDCHAR
STARTCHAR uni1E8D
ENCODING 7821
SWIDTH 500 0
DWIDTH 17 0
BBX 16 21 0 0
BITMAP
0840
1CE0
1CE0
0840
0000
FF3E
7E18
3E18
1F30
1F60
0FC0
0FC0
07C0
03E0
03E0
07F0
0DF8
18F8
187C
307C
FCFF
ENDCHAR
STARTCHAR uni1E8E
ENCODING 7822
SWIDTH 722 0
DWIDTH 24 0
BBX 22 28 1 0
BITMAP
006000
00F000
00F000
006000
000000
FFC3FC
7F00F0
3F0060
3F0060
1F80C0
1F8080
0FC180
0FC300
07E300
03E600
03F400
01FC00
01F800
00F800
00F800
00F800
00F800
00F800
00F800
00F800
00F800
01FC00
07FF00
ENDCHAR
STARTCHAR uni1E8F
ENCODING 7823
SWIDTH 500 0
DWIDTH 17 0
BBX 15 28 0 -7
BITMAP
0300
0780
0780
0300
0000
FFBE
7E0C
3E08
3E08
1F18
1F10
0F10
0FB0
0FA0
07A0
07E0
07C0
03C0
03C0
0180
0180
0180
0100
7300
F300
F600
FE00
7800
ENDCHAR
STARTCHAR uni1E90
ENCODING 7824
SWIDTH 667 0
DWIDTH 22 0
BBX 19 30 1 0
BITMAP
00F000
00F000
01F800
019800
030C00
030C00
000000
3FFFC0
7E0F80
781F80
701F00
603F00
407E00
007E00
00FC00
00FC00
01F800
01F000
03F000
03E000
07E000
07C000
0FC020
1F8020
1F8060
3F0060
3F00E0
7E01E0
7E07C0
FFFFC0
ENDCHAR
STARTCHAR uni1E91
ENCODING 7825
SWIDTH 444 0
DWIDTH 15 0
BBX 12 23 1 0
BITMAP
0F00
0F00
1F80
1980
30C0
30C0
0000
FFF0
E3F0
C3E0
87E0
87C0
0F80
0F80
1F00
1F00
3E00
3E10
7C10
7C30
F830
F8F0
FFF0
ENDCHAR
STARTCHAR uni1E92
ENCODING 7826
SWIDTH 667 0
DWIDTH 22 0
BBX 19 28 1 -5
BITMAP
3FFFC0
7E0F80
781F80
701F00
603F00
407E00
007E00
00FC00
00FC00
01F800
01F000
03F000
03E000
07E000
07C000
0FC020
1F8020
1F8060
3F0060
3F00E0
7E01E0
7E07C0
FFFFC0
000000
00C000
01E000
01E000
00C000
ENDCHAR
STARTCHAR uni1E93
ENCODING 7827
SWIDTH 444 0
DWIDTH 15 0
BBX 12 21 1 -5
BITMAP
FFF0
E3F0
C3E0
87E0
87C0
0F80
0F80
1F00
1F00
3E00
3E10
7C10
7C30
F830
F8F0
FFF0
0000
0600
0F00
0F00
0600
ENDCHAR
STARTCHAR uni1E94
ENCODING 7828
SWIDTH 667 0
DWIDTH 22 0
BBX 19 26 1 -3
BITMAP
3FFFC0
7E0F80
781F80
701F00
603F00
407E00
007E00
00FC00
00FC00
01F800
01F000
03F000
03E000
07E000
07C000
0FC020
1F8020
1F8060
3F0060
3F00E0
7E01E0
7E07C0
FFFFC0
000000
07FC00
07FC00
ENDCHAR
STARTCHAR uni1E95
ENCODING 7829
SWIDTH 444 0
DWIDTH 15 0
BBX 12 19 1 -3
BITMAP
FFF0
E3F0
C3E0
87E0
87C0
0F80
0F80
1F00
1F00
3E00
3E10
7C10
7C30
F830
F8F0
FFF0
0000
7FC0
7FC0
ENDCHAR
STARTCHAR uni1E96
ENCODING 7830
SWIDTH 556 0
DWIDTH 18 0
BBX 17 25 0 -3
BITMAP
FC0000
7C0000
3C0000
3C0000
3C0000
3C0000
3C7800
3DFC00
3FFE00
3E3E00
3C1E00
3C1E00
3C1E00
3C1E00
3C1E00
3C1E00
3C1E00
3C1E00
3C1E00
3C1E00
7E3F00
FF7F80
000000
0FF800
0FF800
ENDCHAR
STARTCHAR uni1E97
ENCODING 7831
SWIDTH 333 0
DWIDTH 11 0
BBX 10 26 0 0
BITMAP
2100
7380
7380
2100
0000
0400
0C00
1C00
1C00
3C00
7F80
FF80
3C00
3C00
3C00
3C00
3C00
3C00
3C00
3C00
3C00
3C00
3C40
3EC0
3F80
1E00
ENDCHAR
STARTCHAR uni1E98
ENCODING 7832
SWIDTH 722 0
DWIDTH 24 0
BBX 23 24 0 0
BITMAP
007000
00D800
018C00
010400
018C00
00D800
007000
000000
FF7FBE
7E3E1C
3C1E08
3E1E18
1E1F10
1F1F30
1F3F30
0F2FA0
0FE7E0
07E7C0
07C7C0
07C3C0
038380
038380
010100
010100
ENDCHAR
STARTCHAR uni1E99
ENCODING 7833
SWIDTH 500 0
DWIDTH 17 0
BBX 15 31 0 -7
BITMAP
0700
0D80
18C0
1040
18C0
0D80
0700
0000
FFBE
7E0C
3E08
3E08
1F18
1F10
0F10
0FB0
0FA0
07A0
07E0
07C0
03C0
03C0
0180
0180
0180
0100
7300
F300
F600
FE00
7800
ENDCHAR
STARTCHAR uni1EA0
ENCODING 7840
SWIDTH 722 0
DWIDTH 24 0
BBX 21 28 1 -5
BITMAP
002000
006000
007000
00F000
00F800
00F800
01F800
017C00
017C00
033E00
023E00
063E00
061F00
041F00
0C0F00
0FFF80
180F80
1807C0
1007C0
3003E0
3003E0
7007F0
FC1FF8
000000
001800
003C00
003C00
001800
ENDCHAR
STARTCHAR uni1EA1
ENCODING 7841
SWIDTH 500 0
DWIDTH 16 0
BBX 14 21 1 -5
BITMAP
1F80
31E0
70F0
78F0
78F0
30F0
01F0
07F0
1CF0
38F0
78F0
F0F0
F9F0
FFF4
7EFC
3C78
0000
0300
0780
0780
0300
ENDCHAR
STARTCHAR uni1EA4
ENCODING 7844
SWIDTH 722 0
DWIDTH 24 0
BBX 21 37 1 0
BITMAP
000600
000E00
001C00
003800
006000
008000
000000
006000
00F000
01F800
019800
030C00
020400
000000
002000
006000
007000
00F000
00F800
00F800
01F800
017C00
017C00
033E00
023E00
063E00
061F00
041F00
0C0F00
0FFF80
180F80
1807C0
1007C0
3003E0
3003E0
7007F0
FC1FF8
ENDCHAR
STARTCHAR uni1EA5
ENCODING 7845
SWIDTH 500 0
DWIDTH 16 0
BBX 14 30 1 0
BITMAP
0030
0070
00E0
01C0
0300
0400
0000
0300
0780
0FC0
0CC0
1860
1020
0000
1F80
31E0
70F0
78F0
78F0
30F0
01F0
07F0
1CF0
38F0
78F0
F0F0
F9F0
FFF4
7EFC
3C78
ENDCHAR
STARTCHAR uni1EA6
ENCODING 7846
SWIDTH 722 0
DWIDTH 24 0
BBX 21 37 1 0
BITMAP
060000
070000
038000
01C000
006000
001000
000000
006000
00F000
01F800
019800
030C00
020400
000000
002000
006000
007000
00F000
00F800
00F800
01F800
017C00
017C00
033E00
023E00
063E00
061F00
041F00
0C0F00
0FFF80
180F80
1807C0
1007C0
3003E0
3003E0
7007F0
FC1FF8
ENDCHAR
STARTCHAR uni1EA7
ENCODING 7847
SWIDTH 500 0
DWIDTH 16 0
BBX 14 30 1 0
BITMAP
3000
3800
1C00
0E00
0300
0080
0000
0300
0780
0FC0
0CC0
1860
1020
0000
1F80
31E0
70F0
78F0
78F0
30F0
01F0
07F0
1CF0
38F0
78F0
F0F0
F9F0
FFF4
7EFC
3C78
ENDCHAR
STARTCHAR uni1EAA
ENCODING 7850
SWIDTH 722 0
DWIDTH 24 0
BBX 21 35 1 0
BITMAP
00C200
01E600
033C00
021800
000000
006000
00F000
01F800
019800
030C00
020400
000000
002000
006000
007000
00F000
00F800
00F800
01F800
017C00
017C00
033E00
023E00
063E00
061F00
041F00
0C0F00
0FFF80
180F80
1807C0
1007C0
3003E0
3003E0
7007F0
FC1FF8
ENDCHAR
STARTCHAR uni1EAB
ENCODING 7851
SWIDTH 500 0
DWIDTH 16 0
BBX 14 28 1 0
BITMAP
0610
0F30
19E0
10C0
0000
0300
0780
0FC0
0CC0
1860
1020
0000
1F80
31E0
70F0
78F0
78F0
30F0
01F0
07F0
1CF0
38F0
78F0
F0F0
F9F0
FFF4
7EFC
3C78
ENDCHAR
STARTCHAR uni1EAC
ENCODING 7852
SWIDTH 722 0
DWIDTH 24 0
BBX 21 35 1 -5
BITMAP
00F000
00F000
01F800
019800
030C00
030C00
000000
002000
006000
007000
00F000
00F800
00F800
01F800
017C00
017C00
033E00
023E00
063E00
061F00
041F00
0C0F00
0FFF80
180F80
1807C0
1007C0
3003E0
3003E0
7007F0
FC1FF8
000000
001800
003C00
003C00
001800
ENDCHAR
STARTCHAR uni1EAD
ENCODING 7853
SWIDTH 500 0
DWIDTH 16 0
BBX 14 28 1 -5
BITMAP
0780
0780
0FC0
0CC0
1860
1860
0000
1F80
31E0
70F0
78F0
78F0
30F0
01F0
07F0
1CF0
38F0
78F0
F0F0
F9F0
FFF4
7EFC
3C78
0000
0300
0780
0780
0300
ENDCHAR
STARTCHAR uni1EAE
ENCODING 7854
SWIDTH 722 0
DWIDTH 24 0
BBX 21 35 1 0
BITMAP
000600
000E00
001C00
003800
006000
008000
000000
020200
030600
01FC00
00F800
000000
002000
006000
007000
00F000
00F800
00F800
01F800
017C00
017C00
033E00
023E00
063E00
061F00
041F00
0C0F00
0FFF80
180F80
1807C0
1007C0
3003E0
3003E0
7007F0
FC1FF8
ENDCHAR
STARTCHAR uni1EAF
ENCODING 7855
SWIDTH 500 0
DWIDTH 16 0
BBX 14 28 1 0
BITMAP
0060
00E0
01C0
0380
0600
0800
0000
2020
3060
1FC0
0F80
0000
1F80
31E0
70F0
78F0
78F0
30F0
01F0
07F0
1CF0
38F0
78F0
F0F0
F9F0
FFF4
7EFC
3C78
ENDCHAR
STARTCHAR uni1EB0
ENCODING 7856
SWIDTH 722 0
DWIDTH 24 0
BBX 21 35 1 0
BITMAP
030000
038000
01C000
00E000
003000
000800
000000
020200
030600
01FC00
00F800
000000
002000
006000
007000
00F000
00F800
00F800
01F800
017C00
017C00
033E00
023E00
063E00
061F00
041F00
0C0F00
0FFF80
180F80
1807C0
1007C0
3003E0
3003E0
7007F0
FC1FF8
ENDCHAR
STARTCHAR uni1EB1
ENCODING 7857
SWIDTH 500 0
DWIDTH 16 0
BBX 14 28 1 0
BITMAP
3000
3800
1C00
0E00
0300
0080
0000
2020
3060
1FC0
0F80
0000
1F80
31E0
70F0
78F0
78F0
30F0
01F0
07F0
1CF0
38F0
78F0
F0F0
F9F0
FFF4
7EFC
3C78
ENDCHAR
STARTCHAR uni1EB4
ENCODING 7860
SWIDTH 722 0
DWIDTH 24 0
BBX 21 33 1 0
BITMAP
00C200
01E600
033C00
021800
000000
020200
030600
01FC00
00F800
000000
002000
006000
007000
00F000
00F800
00F800
01F800
017C00
017C00
033E00
023E00
063E00
061F00
041F00
0C0F00
0FFF80
180F80
1807C0
1007C0
3003E0
3003E0
7007F0
FC1FF8
ENDCHAR
STARTCHAR uni1EB5
ENCODING 7861
SWIDTH 500 0
DWIDTH 16 0
BBX 14 26 1 0
BITMAP
0C20
1E60
33C0
2180
0000
2020
3060
1FC0
0F80
0000
1F80
31E0
70F0
78F0
78F0
30F0
01F0
07F0
1CF0
38F0
78F0
F0F0
F9F0
FFF4
7EFC
3C78
ENDCHAR
STARTCHAR uni1EB6
ENCODING 7862
SWIDTH 722 0
DWIDTH 24 0
BBX 21 33 1 -5
BITMAP
020200
030600
01FC00
00F800
000000
002000
006000
007000
00F000
00F800
00F800
01F800
017C00
017C00
033E00
023E00
063E00
061F00
041F00
0C0F00
0FFF80
180F80
1807C0
1007C0
3003E0
3003E0
7007F0
FC1FF8
000000
001800
003C00
003C00
001800
ENDCHAR
STARTCHAR uni1EB7
ENCODING 7863
SWIDTH 500 0
DWIDTH 16 0
BBX 14 26 1 -5
BITMAP
2020
3060
1FC0
0F80
0000
1F80
31E0
70F0
78F0
78F0
30F0
01F0
07F0
1CF0
38F0
78F0
F0F0
F9F0
FFF4
7EFC
3C78
0000
0300
0780
0780
0300
ENDCHAR
STARTCHAR uni1EB8
ENCODING 7864
SWIDTH 667 0
DWIDTH 22 0
BBX 21 28 0 -5
BITMAP
FFFFE0
3FFFE0
1F00E0
1F0060
1F0060
1F0020
1F0020
1F0400
1F0400
1F0C00
1F1C00
1FFC00
1F1C00
1F0C00
1F0400
1F0400
1F0008
1F0018
1F0030
1F0070
1F01F0
3FFFE0
FFFFE0
000000
006000
00F000
00F000
006000
ENDCHAR
STARTCHAR uni1EB9
ENCODING 7865
SWIDTH 444 0
DWIDTH 15 0
BBX 14 21 0 -5
BITMAP
07C0
1EF0
3C70
7838
783C
F83C
F83C
FFFC
F800
F800
F800
7800
7C00
3E18
1FF0
07E0
0000
0600
0F00
0F00
0600
ENDCHAR
STARTCHAR uni1EBC
ENCODING 7868
SWIDTH 667 0
DWIDTH 22 0
BBX 21 28 0 0
BITMAP
00C200
01E600
033C00
021800
000000
FFFFE0
3FFFE0
1F00E0
1F0060
1F0060
1F0020
1F0020
1F0400
1F0400
1F0C00
1F1C00
1FFC00
1F1C00
1F0C00
1F0400
1F0400
1F0008
1F0018
1F0030
1F0070
1F01F0
3FFFE0
FFFFE0
ENDCHAR
STARTCHAR uni1EBD
ENCODING 7869
SWIDTH 444 0
DWIDTH 15 0
BBX 14 21 0 0
BITMAP
0610
0F30
19E0
10C0
0000
07C0
1EF0
3C70
7838
783C
F83C
F83C
FFFC
F800
F800
F800
7800
7C00
3E18
1FF0
07E0
ENDCHAR
STARTCHAR uni1EBE
ENCODING 7870
SWIDTH 667 0
DWIDTH 22 0
BBX 21 37 0 0
BITMAP
000600
000E00
001C00
003800
006000
008000
000000
003000
007800
00FC00
00CC00
018600
010200
000000
FFFFE0
3FFFE0
1F00E0
1F0060
1F0060
1F0020
1F0020
1F0400
1F0400
1F0C00
1F1C00
1FFC00
1F1C00
1F0C00
1F0400
1F0400
1F0008
1F0018
1F0030
1F0070
1F01F0
3FFFE0
FFFFE0
ENDCHAR
STARTCHAR uni1EBF
ENCODING 7871
SWIDTH 444 0
DWIDTH 15 0
BBX 14 30 0 0
BITMAP
0030
0070
00E0
01C0
0300
0400
0000
0300
0780
0FC0
0CC0
1860
1020
0000
07C0
1EF0
3C70
7838
783C
F83C
F83C
FFFC
F800
F800
F800
7800
7C00
3E18
1FF0
07E0
ENDCHAR
STARTCHAR uni1EC0
ENCODING 7872
SWIDTH 667 0
DWIDTH 22 0
BBX 21 37 0 0
BITMAP
030000
038000
01C000
00E000
003000
000800
000000
003000
007800
00FC00
00CC00
018600
010200
000000
FFFFE0
3FFFE0
1F00E0
1F0060
1F0060
1F0020
1F0020
1F0400
1F0400
1F0C00
1F1C00
1FFC00
1F1C00
1F0C00
1F0400
1F0400
1F0008
1F0018
1F0030
1F0070
1F01F0
3FFFE0
FFFFE0
ENDCHAR
STARTCHAR uni1EC1
ENCODING 7873
SWIDTH 444 0
DWIDTH 15 0
BBX 14 30 0 0
BITMAP
3000
3800
1C00
0E00
0300
0080
0000
0300
0780
0FC0
0CC0
1860
1020
0000
07C0
1EF0
3C70
7838
783C
F83C
F83C
FFFC
F800
F800
F800
7800
7C00
3E18
1FF0
07E0
ENDCHAR
STARTCHAR uni1EC4
ENCODING 7876
SWIDTH 667 0
DWIDTH 22 0
BBX 21 35 0 0
BITMAP
00C200
01E600
033C00
021800
000000
003000
007800
00FC00
00CC00
018600
010200
000000
FFFFE0
3FFFE0
1F00E0
1F0060
1F0060
1F0020
1F0020
1F0400
1F0400
1F0C00
1F1C00
1FFC00
1F1C00
1F0C00
1F0400
1F0400
1F0008
1F0018
1F0030
1F0070
1F01F0
3FFFE0
FFFFE0
ENDCHAR
STARTCHAR uni1EC5
ENCODING 7877
SWIDTH 444 0
DWIDTH 15 0
BBX 14 28 0 0
BITMAP
0610
0F30
19E0
10C0
0000
0300
0780
0FC0
0CC0
1860
1020
0000
07C0
1EF0
3C70
7838
783C
F83C
F83C
FFFC
F800
F800
F800
7800
7C00
3E18
1FF0
07E0
ENDCHAR
STARTCHAR uni1EC6
ENCODING 7878
SWIDTH 667 0
DWIDTH 22 0
BBX 21 35 0 -5
BITMAP
00F000
00F000
01F800
019800
030C00
030C00
000000
FFFFE0
3FFFE0
1F00E0
1F0060
1F0060
1F0020
1F0020
1F0400
1F0400
1F0C00
1F1C00
1FFC00
1F1C00
1F0C00
1F0400
1F0400
1F0008
1F0018
1F0030
1F0070
1F01F0
3FFFE0
FFFFE0
000000
006000
00F000
00F000
006000
ENDCHAR
STARTCHAR uni1EC7
ENCODING 7879
SWIDTH 444 0
DWIDTH 15 0
BBX 14 28 0 -5
BITMAP
0780
0780
0FC0
0CC0
1860
1860
0000
07C0
1EF0
3C70
7838
783C
F83C
F83C
FFFC
F800
F800
F800
7800
7C00
3E18
1FF0
07E0
0000
0600
0F00
0F00
0600
ENDCHAR
STARTCHAR uni1ECA
ENCODING 7882
SWIDTH 389 0
DWIDTH 13 0
BBX 11 28 1 -5
BITMAP
FFE0
3F80
1F00
1F00
1F00
1F00
1F00
1F00
1F00
1F00
1F00
1F00
1F00
1F00
1F00
1F00
1F00
1F00
1F00
1F00
1F00
3F80
FFE0
0000
0600
0F00
0F00
0600
ENDCHAR
STARTCHAR uni1ECB
ENCODING 7883
SWIDTH 278 0
DWIDTH 9 0
BBX 8 28 0 -5
BITMAP
18
3C
3C
3C
18
00
00
FC
7C
3C
3C
3C
3C
3C
3C
3C
3C
3C
3C
3C
3C
7E
FF
00
18
3C
3C
18
ENDCHAR
STARTCHAR uni1ECC
ENCODING 7884
SWIDTH 778 0
DWIDTH 25 0
BBX 21 28 2 -5
BITMAP
01FC00
07FF00
0F8F80
1E03C0
3C01E0
7C01F0
7800F0
F800F8
F800F8
F800F8
F800F8
F800F8
F800F8
F800F8
F800F8
F800F8
7800F0
7C01F0
3C01E0
1E03C0
0F8F80
07FF00
01FC00
000000
003000
007800
007800
003000
ENDCHAR
STARTCHAR uni1ECD
ENCODING 7885
SWIDTH 500 0
DWIDTH 17 0
BBX 14 21 1 -5
BITMAP
0FC0
3CF0
7878
7878
F03C
F03C
F03C
F03C
F03C
F03C
F03C
F03C
7878
7878
3CF0
0FC0
0000
0300
0780
0780
0300
ENDCHAR
STARTCHAR uni1ED0
ENCODING 7888
SWIDTH 778 0
DWIDTH 25 0
BBX 21 37 2 0
BITMAP
000300
000700
000E00
001C00
003000
004000
000000
003000
007800
00FC00
00CC00
018600
010200
000000
01FC00
07FF00
0F8F80
1E03C0
3C01E0
7C01F0
7800F0
F800F8
F800F8
F800F8
F800F8
F800F8
F800F8
F800F8
F800F8
F800F8
7800F0
7C01F0
3C01E0
1E03C0
0F8F80
07FF00
01FC00
ENDCHAR
STARTCHAR uni1ED1
ENCODING 7889
SWIDTH 500 0
DWIDTH 17 0
BBX 14 30 1 0
BITMAP
0030
0070
00E0
01C0
0300
0400
0000
0300
0780
0FC0
0CC0
1860
1020
0000
0FC0
3CF0
7878
7878
F03C
F03C
F03C
F03C
F03C
F03C
F03C
F03C
7878
7878
3CF0
0FC0
ENDCHAR
STARTCHAR uni1ED2
ENCODING 7890
SWIDTH 778 0
DWIDTH 25 0
BBX 21 37 2 0
BITMAP
030000
038000
01C000
00E000
003000
000800
000000
003000
007800
00FC00
00CC00
018600
010200
000000
01FC00
07FF00
0F8F80
1E03C0
3C01E0
7C01F0
7800F0
F800F8
F800F8
F800F8
F800F8
F800F8
F800F8
F800F8
F800F8
F800F8
7800F0
7C01F0
3C01E0
1E03C0
0F8F80
07FF00
01FC00
ENDCHAR
STARTCHAR uni1ED3
ENCODING 7891
SWIDTH 500 0
DWIDTH 17 0
BBX 14 30 1 0
BITMAP
3000
3800
1C00
0E00
0300
0080
0000
0300
0780
0FC0
0CC0
1860
1020
0000
0FC0
3CF0
7878
7878
F03C
F03C
F03C
F03C
F03C
F03C
F03C
F03C
7878
7878
3CF0
0FC0
ENDCHAR
STARTCHAR uni1ED6
ENCODING 7894
SWIDTH 778 0
DWIDTH 25 0
BBX 21 35 2 0
BITMAP
00C200
01E600
033C00
021800
000000
003000
007800
00FC00
00CC00
018600
010200
000000
01FC00
07FF00
0F8F80
1E03C0
3C01E0
7C01F0
7800F0
F800F8
F800F8
F800F8
F800F8
F800F8
F800F8
F800F8
F800F8
F800F8
7800F0
7C01F0
3C01E0
1E03C0
0F8F80
07FF00
01FC00
ENDCHAR
STARTCHAR uni1ED7
ENCODING 7895
SWIDTH 500 0
DWIDTH 17 0
BBX 14 28 1 0
BITMAP
0610
0F30
19E0
10C0
0000
0300
0780
0FC0
0CC0
1860
1020
0000
0FC0
3CF0
7878
7878
F03C
F03C
F03C
F03C
F03C
F03C
F03C
F03C
7878
7878
3CF0
0FC0
ENDCHAR
STARTCHAR uni1ED8
ENCODING 7896
SWIDTH 778 0
DWIDTH 25 0
BBX 21 35 2 -5
BITMAP
007800
007800
00FC00
00CC00
018600
018600
000000
01FC00
07FF00
0F8F80
1E03C0
3C01E0
7C01F0
7800F0
F800F8
F800F8
F800F8
F800F8
F800F8
F800F8
F800F8
F800F8
F800F8
7800F0
7C01F0
3C01E0
1E03C0
0F8F80
07FF00
01FC00
000000
003000
007800
007800
003000
ENDCHAR
STARTCHAR uni1ED9
ENCODING 7897
SWIDTH 500 0
DWIDTH 17 0
BBX 14 28 1 -5
BITMAP
0780
0780
0FC0
0CC0
1860
1860
0000
0FC0
3CF0
7878
7878
F03C
F03C
F03C
F03C
F03C
F03C
F03C
F03C
7878
7878
3CF0
0FC0
0000
0300
0780
0780
0300
ENDCHAR
STARTCHAR uni1EDA
ENCODING 7898
SWIDTH 778 0
DWIDTH 25 0
BBX 25 30 2 0
BITMAP
00006000
0000E000
0001C000
00038000
00060000
00080000
00000000
01FC0F00
07FF1F80
0F8F9F80
1E03DF80
3C01EF80
7C01F180
7800F100
F800FB00
F800FE00
F800FC00
F800F800
F800F800
F800F800
F800F800
F800F800
F800F800
7800F000
7C01F000
3C01E000
1E03C000
0F8F8000
07FF0000
01FC0000
ENDCHAR
STARTCHAR uni1EDB
ENCODING 7899
SWIDTH 500 0
DWIDTH 17 0
BBX 19 23 1 0
BITMAP
000600
000E00
001C00
003800
006000
008000
000000
0FC3C0
3CF7E0
787FE0
787FE0
F03FE0
F03C60
F03C40
F03CC0
F03D80
F03F00
F03E00
F03C00
787800
787800
3CF000
0FC000
ENDCHAR
STARTCHAR uni1EDC
ENCODING 7900
SWIDTH 778 0
DWIDTH 25 0
BBX 25 30 2 0
BITMAP
00600000
00700000
00380000
001C0000
00060000
00010000
00000000
01FC0F00
07FF1F80
0F8F9F80
1E03DF80
3C01EF80
7C01F180
7800F100
F800FB00
F800FE00
F800FC00
F800F800
F800F800
F800F800
F800F800
F800F800
F800F800
7800F000
7C01F000
3C01E000
1E03C000
0F8F8000
07FF0000
01FC0000
ENDCHAR
STARTCHAR uni1EDD
ENCODING 7901
SWIDTH 500 0
DWIDTH 17 0
BBX 19 23 1 0
BITMAP
030000
038000
01C000
00E000
003000
000800
000000
0FC3C0
3CF7E0
787FE0
787FE0
F03FE0
F03C60
F03C40
F03CC0
F03D80
F03F00
F03E00
F03C00
787800
787800
3CF000
0FC000
ENDCHAR
STARTCHAR uni1EE0
ENCODING 7904
SWIDTH 778 0
DWIDTH 25 0
BBX 25 28 2 0
BITMAP
000C2000
001E6000
0033C000
00218000
00000000
01FC0F00
07FF1F80
0F8F9F80
1E03DF80
3C01EF80
7C01F180
7800F100
F800FB00
F800FE00
F800FC00
F800F800
F800F800
F800F800
F800F800
F800F800
F800F800
7800F000
7C01F000
3C01E000
1E03C000
0F8F8000
07FF0000
01FC0000
ENDCHAR
STARTCHAR uni1EE1
ENCODING 7905
SWIDTH 500 0
DWIDTH 17 0
BBX 19 21 1 0
BITMAP
00C200
01E600
033C00
021800
000000
0FC3C0
3CF7E0
787FE0
787FE0
F03FE0
F03C60
F03C40
F03CC0
F03D80
F03F00
F03E00
F03C00
787800
787800
3CF000
0FC000
ENDCHAR
STARTCHAR uni1EE2
ENCODING 7906
SWIDTH 778 0
DWIDTH 25 0
BBX 25 28 2 -5
BITMAP
01FC0F00
07FF1F80
0F8F9F80
1E03DF80
3C01EF80
7C01F180
7800F100
F800FB00
F800FE00
F800FC00
F800F800
F800F800
F800F800
F800F800
F800F800
F800F800
7800F000
7C01F000
3C01E000
1E03C000
0F8F8000
07FF0000
01FC0000
00000000
00300000
00780000
00780000
00300000
ENDCHAR
STARTCHAR uni1EE3
ENCODING 7907
SWIDTH 500 0
DWIDTH 17 0
BBX 19 21 1 -5
BITMAP
0FC3C0
3CF7E0
787FE0
787FE0
F03FE0
F03C60
F03C40
F03CC0
F03D80
F03F00
F03E00
F03C00
787800
787800
3CF000
0FC000
000000
018000
03C000
03C000
018000
ENDCHAR
STARTCHAR uni1EE4
ENCODING 7908
SWIDTH 722 0
DWIDTH 24 0
BBX 23 28 0 -5
BITMAP
FFE0FE
3F8038
1F0010
1F0010
1F0010
1F0010
1F0010
1F0010
1F0010
1F0010
1F0010
1F0010
1F0010
1F0010
1F0010
1F0010
1F0010
1F0010
0F8030
0F8060
07C0C0
03FF80
00FE00
000000
003000
007800
007800
003000
ENDCHAR
STARTCHAR uni1EE5
ENCODING 7909
SWIDTH 556 0
DWIDTH 18 0
BBX 17 21 0 -5
BITMAP
FC7E00
7C3E00
3C1E00
3C1E00
3C1E00
3C1E00
3C1E00
3C1E00
3C1E00
3C1E00
3C1E00
3C1E00
3C3E00
3E5F00
1FDF80
078C00
000000
00C000
01E000
01E000
00C000
ENDCHAR
STARTCHAR uni1EE8
ENCODING 7912
SWIDTH 722 0
DWIDTH 24 0
BBX 27 30 0 0
BITMAP
00006000
0000E000
0001C000
00038000
00060000
00080000
00000000
FFE0FFC0
3F803FE0
1F0017E0
1F0017E0
1F0013E0
1F001060
1F001040
1F0010C0
1F001180
1F001300
1F001600
1F001000
1F001000
1F001000
1F001000
1F001000
1F001000
1F001000
0F803000
0F806000
07C0C000
03FF8000
00FE0000
ENDCHAR
STARTCHAR uni1EE9
ENCODING 7913
SWIDTH 556 0
DWIDTH 18 0
BBX 21 23 0 0
BITMAP
000300
000700
000E00
001C00
003000
004000
000000
FC7EF0
7C3FF8
3C1FF8
3C1FF8
3C1EF8
3C1E18
3C1E10
3C1E30
3C1E60
3C1EC0
3C1F80
3C1E00
3C3E00
3E5F00
1FDF80
078C00
ENDCHAR
STARTCHAR uni1EEA
ENCODING 7914
SWIDTH 722 0
DWIDTH 24 0
BBX 27 30 0 0
BITMAP
00600000
00700000
00380000
001C0000
00060000
00010000
00000000
FFE0FFC0
3F803FE0
1F0017E0
1F0017E0
1F0013E0
1F001060
1F001040
1F0010C0
1F001180
1F001300
1F001600
1F001000
1F001000
1F001000
1F001000
1F001000
1F001000
1F001000
0F803000
0F806000
07C0C000
03FF8000
00FE0000
ENDCHAR
STARTCHAR uni1EEB
ENCODING 7915
SWIDTH 556 0
DWIDTH 18 0
BBX 21 23 0 0
BITMAP
018000
01C000
00E000
007000
001800
000400
000000
FC7EF0
7C3FF8
3C1FF8
3C1FF8
3C1EF8
3C1E18
3C1E10
3C1E30
3C1E60
3C1EC0
3C1F80
3C1E00
3C3E00
3E5F00
1FDF80
078C00
ENDCHAR
STARTCHAR uni1EEE
ENCODING 7918
SWIDTH 722 0
DWIDTH 24 0
BBX 27 28 0 0
BITMAP
000C2000
001E6000
0033C000
00218000
00000000
FFE0FFC0
3F803FE0
1F0017E0
1F0017E0
1F0013E0
1F001060
1F001040
1F0010C0
1F001180
1F001300
1F001600
1F001000
1F001000
1F001000
1F001000
1F001000
1F001000
1F001000
0F803000
0F806000
07C0C000
03FF8000
00FE0000
ENDCHAR
STARTCHAR uni1EEF
ENCODING 7919
SWIDTH 556 0
DWIDTH 18 0
BBX 21 21 0 0
BITMAP
006100
00F300
019E00
010C00
000000
FC7EF0
7C3FF8
3C1FF8
3C1FF8
3C1EF8
3C1E18
3C1E10
3C1E30
3C1E60
3C1EC0
3C1F80
3C1E00
3C3E00
3E5F00
1FDF80
078C00
ENDCHAR
STARTCHAR uni1EF0
ENCODING 7920
SWIDTH 722 0
DWIDTH 24 0
BBX 27 28 0 -5
BITMAP
FFE0FFC0
3F803FE0
1F0017E0
1F0017E0
1F0013E0
1F001060
1F001040
1F0010C0
1F001180
1F001300
1F001600
1F001000
1F001000
1F001000
1F001000
1F001000
1F001000
1F001000
0F803000
0F806000
07C0C000
03FF8000
00FE0000
00000000
00300000
00780000
00780000
00300000
ENDCHAR
STARTCHAR uni1EF1
ENCODING 7921
SWIDTH 556 0
DWIDTH 18 0
BBX 21 21 0 -5
BITMAP
FC7EF0
7C3FF8
3C1FF8
3C1FF8
3C1EF8
3C1E18
3C1E10
3C1E30
3C1E60
3C1EC0
3C1F80
3C1E00
3C3E00
3E5F00
1FDF80
078C00
000000
006000
00F000
00F000
006000
ENDCHAR
STARTCHAR Ygrave
ENCODING 7922
SWIDTH 722 0
DWIDTH 24 0
BBX 22 30 1 0
BITMAP
060000
070000
038000
01C000
006000
001000
000000
FFC3FC
7F00F0
3F0060
3F0060
1F80C0
1F8080
0FC180
0FC300
07E300
03E600
03F400
01FC00
01F800
00F800
00F800
00F800
00F800
00F800
00F800
00F800
00F800
01FC00
07FF00
ENDCHAR
STARTCHAR ygrave
ENCODING 7923
SWIDTH 500 0
DWIDTH 17 0
BBX 15 30 0 -7
BITMAP
3000
3800
1C00
0E00
0300
0080
0000
FFBE
7E0C
3E08
3E08
1F18
1F10
0F10
0FB0
0FA0
07A0
07E0
07C0
03C0
03C0
0180
0180
0180
0100
7300
F300
F600
FE00
7800
ENDCHAR
STARTCHAR uni1EF4
ENCODING 7924
SWIDTH 722 0
DWIDTH 24 0
BBX 22 28 1 -5
BITMAP
FFC3FC
7F00F0
3F0060
3F0060
1F80C0
1F8080
0FC180
0FC300
07E300
03E600
03F400
01FC00
01F800
00F800
00F800
00F800
00F800
00F800
00F800
00F800
00F800
01FC00
07FF00
000000
003000
007800
007800
003000
ENDCHAR
STARTCHAR uni1EF5
ENCODING 7925
SWIDTH 500 0
DWIDTH 17 0
BBX 15 28 0 -12
BITMAP
FFBE
7E0C
3E08
3E08
1F18
1F10
0F10
0FB0
0FA0
07A0
07E0
07C0
03C0
03C0
0180
0180
0180
0100
7300
F300
F600
FE00
7800
0000
0C00
1E00
1E00
0C00
ENDCHAR
STARTCHAR uni1EF8
ENCODING 7928
SWIDTH 722 0
DWIDTH 24 0
BBX 22 28 1 0
BITMAP
018400
03CC00
067800
043000
000000
FFC3FC
7F00F0
3F0060
3F0060
1F80C0
1F8080
0FC180
0FC300
07E300
03E600
03F400
01FC00
01F800
00F800
00F800
00F800
00F800
00F800
00F800
00F800
00F800
01FC00
07FF00
ENDCHAR
STARTCHAR uni1EF9
ENCODING 7929
SWIDTH 500 0
DWIDTH 17 0
BBX 15 28 0 -7
BITMAP
0610
0F30
19E0
10C0
0000
FFBE
7E0C
3E08
3E08
1F18
1F10
0F10
0FB0
0FA0
07A0
07E0
07C0
03C0
03C0
0180
0180
0180
0100
7300
F300
F600
FE00
7800
ENDCHAR
STARTCHAR uni2000
ENCODING 8192
SWIDTH 500 0
DWIDTH 17 0
BBX 1 1 0 0
BITMAP
00
ENDCHAR
STARTCHAR uni2001
ENCODING 8193
SWIDTH 1000 0
DWIDTH 33 0
BBX 1 1 0 0
BITMAP
00
ENDCHAR
STARTCHAR uni2002
ENCODING 8194
SWIDTH 500 0
DWIDTH 17 0
BBX 1 1 0 0
BITMAP
00
ENDCHAR
STARTCHAR uni2003
ENCODING 8195
SWIDTH 1000 0
DWIDTH 33 0
BBX 1 1 0 0
BITMAP
00
ENDCHAR
STARTCHAR uni2004
ENCODING 8196
SWIDTH 333 0
DWIDTH 11 0
BBX 1 1 0 0
BITMAP
00
ENDCHAR
STARTCHAR uni2005
ENCODING 8197
SWIDTH 250 0
DWIDTH 8 0
BBX 1 1 0 0
BITMAP
00
ENDCHAR
STARTCHAR uni2006
ENCODING 8198
SWIDTH 167 0
DWIDTH 6 0
BBX 1 1 0 0
BITMAP
00
ENDCHAR
STARTCHAR uni2007
ENCODING 8199
SWIDTH 500 0
DWIDTH 16 0
BBX 1 1 0 0
BITMAP
00
ENDCHAR
STARTCHAR uni2008
ENCODING 8200
SWIDTH 250 0
DWIDTH 8 0
BBX 1 1 0 0
BITMAP
00
ENDCHAR
STARTCHAR uni2009
ENCODING 8201
SWIDTH 200 0
DWIDTH 7 0
BBX 1 1 0 0
BITMAP
00
ENDCHAR
STARTCHAR uni200A
ENCODING 8202
SWIDTH 100 0
DWIDTH 3 0
BBX 1 1 0 0
BITMAP
00
ENDCHAR
STARTCHAR uni200B
ENCODING 8203
SWIDTH 0 0
DWIDTH 0 0
BBX 1 1 0 0
BITMAP
00
ENDCHAR
STARTCHAR uni2010
ENCODING 8208
SWIDTH 333 0
DWIDTH 11 0
BBX 8 4 1 6
BITMAP
FF
FF
FF
FF
ENDCHAR
STARTCHAR uni2011
ENCODING 8209
SWIDTH 333 0
DWIDTH 11 0
BBX 8 4 1 6
BITMAP
FF
FF
FF
FF
ENDCHAR
STARTCHAR figuredash
ENCODING 8210
SWIDTH 500 0
DWIDTH 16 0
BBX 16 3 0 6
BITMAP
FFFF
FFFF
FFFF
ENDCHAR
STARTCHAR endash
ENCODING 8211
SWIDTH 500 0
DWIDTH 16 0
BBX 16 3 0 6
BITMAP
FFFF
FFFF
FFFF
ENDCHAR
STARTCHAR emdash
ENCODING 8212
SWIDTH 1000 0
DWIDTH 32 0
BBX 32 3 0 6
BITMAP
FFFFFFFF
FFFFFFFF
FFFFFFFF
ENDCHAR
STARTCHAR afii00208
ENCODING 8213
SWIDTH 1000 0
DWIDTH 32 0
BBX 32 3 0 6
BITMAP
FFFFFFFF
FFFFFFFF
FFFFFFFF
ENDCHAR
STARTCHAR quoteleft
ENCODING 8216
SWIDTH 333 0
DWIDTH 11 0
BBX 6 11 2 12
BITMAP
0C
18
30
60
40
C0
F8
FC
FC
FC
78
ENDCHAR
STARTCHAR quoteright
ENCODING 8217
SWIDTH 333 0
DWIDTH 11 0
BBX 6 11 3 12
BITMAP
78
FC
FC
FC
7C
0C
08
18
30
60
C0
ENDCHAR
STARTCHAR quotesinglbase
ENCODING 8218
SWIDTH 333 0
DWIDTH 11 0
BBX 6 11 2 -6
BITMAP
78
FC
FC
FC
7C
0C
08
18
30
60
C0
ENDCHAR
STARTCHAR quotereversed
ENCODING 8219
SWIDTH 333 0
DWIDTH 11 0
BBX 6 11 3 12
BITMAP
78
FC
FC
FC
F8
C0
40
60
30
18
0C
ENDCHAR
STARTCHAR quotedblleft
ENCODING 8220
SWIDTH 500 0
DWIDTH 17 0
BBX 14 11 1 12
BITMAP
0C0C
1818
3030
6060
4040
C0C0
F8F8
FCFC
FCFC
FCFC
7878
ENDCHAR
STARTCHAR quotedblright
ENCODING 8221
SWIDTH 500 0
DWIDTH 17 0
BBX 15 11 1 12
BITMAP
783C
FC7E
FC7E
FC7E
7C3E
0C06
0804
180C
3018
6030
C060
ENDCHAR
STARTCHAR quotedblbase
ENCODING 8222
SWIDTH 500 0
DWIDTH 17 0
BBX 15 11 0 -6
BITMAP
783C
FC7E
FC7E
FC7E
7C3E
0C06
0804
180C
3018
6030
C060
ENDCHAR
STARTCHAR uni201F
ENCODING 8223
SWIDTH 500 0
DWIDTH 17 0
BBX 15 11 1 12
BITMAP
783C
FC7E
FC7E
FC7E
F87C
C060
4020
6030
3018
180C
0C06
ENDCHAR
STARTCHAR dagger
ENCODING 8224
SWIDTH 500 0
DWIDTH 17 0
BBX 13 28 1 -5
BITMAP
0700
0700
0700
0700
0200
0200
F278
FFF8
F278
0200
0200
0200
0700
0700
0700
0700
0700
0700
0200
0200
0200
0200
0200
0200
0200
0200
0200
0200
ENDCHAR
STARTCHAR daggerdbl
ENCODING 8225
SWIDTH 500 0
DWIDTH 17 0
BBX 13 28 2 -5
BITMAP
0700
0700
0700
0700
0700
0200
0200
F278
FFF8
F278
0200
0200
0600
0700
0700
0300
0200
0200
F278
FFF8
F278
0200
0200
0700
0700
0700
0700
0700
ENDCHAR
STARTCHAR bullet
ENCODING 8226
SWIDTH 350 0
DWIDTH 12 0
BBX 8 8 2 6
BITMAP
3C
7E
FF
FF
FF
FF
7E
3C
ENDCHAR
STARTCHAR ellipsis
ENCODING 8230
SWIDTH 1000 0
DWIDTH 33 0
BBX 27 5 2 0
BITMAP
700E01C0
F81F03E0
F81F03E0
F81F03E0
700E01C0
ENDCHAR
STARTCHAR perthousand
ENCODING 8240
SWIDTH 1000 0
DWIDTH 33 0
BBX 32 24 0 -1
BITMAP
0000C000
0F838000
3DFF0000
787B0000
70420000
F0460000
F0440000
E0CC0000
E0980000
E1900000
73300000
3E200000
0061F03E
0047B8F7
00CF09E1
018E09C1
011E0BC1
031E0BC1
021C1B83
061C1382
041C3386
0C0E61CC
1807C0F8
18000000
ENDCHAR
STARTCHAR guilsinglleft
ENCODING 8249
SWIDTH 333 0
DWIDTH 11 0
BBX 7 14 3 1
BITMAP
02
06
0E
1C
38
70
E0
E0
70
38
1C
0E
06
02
ENDCHAR
STARTCHAR guilsinglright
ENCODING 8250
SWIDTH 333 0
DWIDTH 11 0
BBX 7 14 1 1
BITMAP
80
C0
E0
70
38
1C
0E
0E
1C
38
70
E0
C0
80
ENDCHAR
STARTCHAR fraction
ENCODING 8260
SWIDTH 167 0
DWIDTH 6 0
BBX 15 23 -5 0
BITMAP
0002
0006
000C
000C
0018
0018
0030
0060
0060
00C0
0180
0180
0300
0200
0600
0C00
0C00
1800
3000
3000
6000
C000
C000
ENDCHAR
STARTCHAR oneinferior
ENCODING 8321
SWIDTH 300 0
DWIDTH 10 0
BBX 9 14 0 -7
BITMAP
0C00
7C00
1C00
1C00
1C00
1C00
1C00
1C00
1C00
1C00
1C00
1C00
1C00
FF80
ENDCHAR
STARTCHAR twoinferior
ENCODING 8322
SWIDTH 300 0
DWIDTH 10 0
BBX 10 14 1 -7
BITMAP
3E00
7F00
C780
8380
0380
0380
0300
0600
0C00
1800
3040
7FC0
FF80
FF80
ENDCHAR
STARTCHAR threeinferior
ENCODING 8323
SWIDTH 300 0
DWIDTH 10 0
BBX 9 14 1 -7
BITMAP
1E00
3F00
6780
4380
0300
0600
1F00
0780
0380
0380
0380
C380
E700
7E00
ENDCHAR
STARTCHAR uni20A5
ENCODING 8357
SWIDTH 833 0
DWIDTH 27 0
BBX 26 25 0 -4
BITMAP
0000C000
0000C000
00008000
00018000
00018000
FC79BC00
7DFFFE00
3F3F9F00
3E3F1F00
3E1E0F00
3C1E0F00
3C1E0F00
3C1E0F00
3C1E0F00
3C1E0F00
3C1E0F00
3C1E0F00
3C1E0F00
3C1E0F00
7E3F1F80
FF7FBFC0
00300000
00300000
00600000
00600000
ENDCHAR
STARTCHAR uni20A6
ENCODING 8358
SWIDTH 722 0
DWIDTH 24 0
BBX 22 23 1 0
BITMAP
FE01FC
7F0070
3F8020
1F8020
1FC020
1FE020
1FFFE0
1FFFE0
1FFFE0
11FC20
10FE20
107F20
103F20
1FFFE0
1FFFE0
1FFFE0
1007E0
1003E0
1003E0
1001E0
1000E0
380060
FE0020
ENDCHAR
STARTCHAR uni20A9
ENCODING 8361
SWIDTH 1000 0
DWIDTH 33 0
BBX 32 23 0 0
BITMAP
FFEFFF3F
7F03F80E
3F01F80C
1F01F80C
1F01F808
1F81FC18
0FFFFF18
0FFFFF10
0FFFFF30
07C27E30
07C63E20
07E63E60
03E43E60
03FFFF40
03FFFFC0
01FFFFC0
01F80F80
01F00F80
00F00F80
00E00700
00E00700
00E00700
00400200
ENDCHAR
STARTCHAR Euro
ENCODING 8364
SWIDTH 722 0
DWIDTH 24 0
BBX 22 23 -1 0
BITMAP
003F84
00FFEC
01E0FC
03C03C
07801C
0F800C
FFFE0C
FFFE04
FFFE00
1F0000
1F0000
1F0000
1F0000
FFFE00
FFFE00
FFFE00
0F8000
0F8000
078004
03C00C
01F038
007FF0
001FC0
ENDCHAR
STARTCHAR uni20AD
ENCODING 8365
SWIDTH 778 0
DWIDTH 25 0
BBX 24 23 1 0
BITMAP
FFCFFC
7F03E0
3E01C0
3E0380
3E0700
3E0E00
3E1C00
3E3800
3E7000
3EE000
FFFFFF
FFFFFF
FFFFFF
3EFE00
3E7F00
3E3F80
3E1FC0
3E0FE0
3E07F0
3E03F8
3E01FC
7F00FE
FFC3FF
ENDCHAR
STARTCHAR uni2103
ENCODING 8451
SWIDTH 1102 0
DWIDTH 36 0
BBX 31 23 2 0
BITMAP
1C001FC2
7F007FF6
6300F07E
C181E01E
C183C00E
C187C006
C187C006
630F8002
7F0F8000
3C0F8000
000F8000
000F8000
000F8000
000F8000
000F8000
000F8000
0007C000
0007C000
0003C002
0001E006
0000F81C
00003FF8
00000FE0
ENDCHAR
STARTCHAR uni2109
ENCODING 8457
SWIDTH 991 0
DWIDTH 32 0
BBX 29 23 2 0
BITMAP
1C3FFFF8
7F0FFFF8
6307C038
C187C018
C187C018
C187C008
C187C008
6307C100
7F07C100
3C07C300
0007C700
0007FF00
0007C700
0007C300
0007C100
0007C100
0007C000
0007C000
0007C000
0007C000
0007C000
000FE000
003FF800
ENDCHAR
STARTCHAR trademark
ENCODING 8482
SWIDTH 1000 0
DWIDTH 33 0
BBX 29 14 1 9
BITMAP
FFF7C0F8
C731E0F0
8711E0F0
871171F0
07017170
07017170
07013B70
07013A70
07013A70
07011E70
07011C70
07010C70
07010C70
1FC7CCF8
ENDCHAR
STARTCHAR uni212A
ENCODING 8490
SWIDTH 778 0
DWIDTH 25 0
BBX 24 23 1 0
BITMAP
FFCFFC
7F03E0
3E01C0
3E0380
3E0700
3E0E00
3E1C00
3E3800
3E7000
3EE000
3FF000
3FF800
3FFC00
3EFE00
3E7F00
3E3F80
3E1FC0
3E0FE0
3E07F0
3E03F8
3E01FC
7F00FE
FFC3FF
ENDCHAR
STARTCHAR uni212B
ENCODING 8491
SWIDTH 722 0
DWIDTH 24 0
BBX 21 30 1 0
BITMAP
00E000
01B000
031800
020800
031800
01B000
00E000
000000
006000
007000
00F000
00F800
00F800
01F800
017C00
017C00
033E00
023E00
063E00
061F00
041F00
0C0F00
0FFF80
180F80
1807C0
1007C0
3003E0
3003E0
7007F0
FC1FF8
ENDCHAR
STARTCHAR uni2132
ENCODING 8498
SWIDTH 611 0
DWIDTH 20 0
BBX 19 23 0 0
BITMAP
00FFE0
003F80
001F00
001F00
001F00
001F00
001F00
041F00
041F00
061F00
071F00
07FF00
071F00
061F00
041F00
041F00
801F00
801F00
C01F00
C01F00
E01F00
FFFF80
FFFFE0
ENDCHAR
STARTCHAR universal
ENCODING 8704
SWIDTH 722 0
DWIDTH 24 0
BBX 21 23 1 0
BITMAP
FC1FF8
7007F0
3003E0
3003E0
1007C0
1807C0
180F80
0FFF80
0C0F00
041F00
061F00
063E00
023E00
033E00
017C00
017C00
01F800
00F800
00F800
00F000
007000
006000
002000
ENDCHAR
STARTCHAR existential
ENCODING 8707
SWIDTH 667 0
DWIDTH 22 0
BBX 21 23 0 0
BITMAP
3FFFF8
3FFFE0
3807C0
3007C0
3007C0
2007C0
2007C0
0107C0
0107C0
0187C0
01C7C0
01FFC0
01C7C0
0187C0
0107C0
0107C0
8007C0
C007C0
6007C0
7007C0
7C07C0
3FFFE0
3FFFF8
ENDCHAR
STARTCHAR uni2204
ENCODING 8708
SWIDTH 667 0
DWIDTH 22 0
BBX 21 25 0 -1
BITMAP
000600
3FFFF8
3FFFE0
380FC0
300FC0
300FC0
201FC0
201FC0
011FC0
0117C0
01B7C0
01F7C0
01FFC0
01E7C0
01E7C0
0167C0
01C7C0
80C7C0
C0C7C0
60C7C0
7187C0
7D87C0
3FFFE0
3FFFF8
030000
ENDCHAR
STARTCHAR minus
ENCODING 8722
SWIDTH 570 0
DWIDTH 19 0
BBX 15 3 2 6
BITMAP
FFFE
FFFE
FFFE
ENDCHAR
STARTCHAR fraction
ENCODING 8725
SWIDTH 167 0
DWIDTH 6 0
BBX 15 23 -5 0
BITMAP
0002
0006
000C
000C
0018
0018
0030
0060
0060
00C0
0180
0180
0300
0200
0600
0C00
0C00
1800
3000
3000
6000
C000
C000
ENDCHAR
STARTCHAR periodcentered
ENCODING 8729
SWIDTH 250 0
DWIDTH 8 0
BBX 4 4 2 9
BITMAP
60
F0
F0
60
ENDCHAR
STARTCHAR uni2236
ENCODING 8758
SWIDTH 333 0
DWIDTH 11 0
BBX 5 16 3 0
BITMAP
70
F8
F8
F8
70
00
00
00
00
00
00
70
F8
F8
F8
70
ENDCHAR
STARTCHAR uni2259
ENCODING 8793
SWIDTH 570 0
DWIDTH 19 0
BBX 15 17 2 3
BITMAP
03C0
03C0
07E0
0660
0C30
0C30
0000
FFFE
FFFE
FFFE
0000
0000
0000
0000
FFFE
FFFE
FFFE
ENDCHAR
STARTCHAR uni225A
ENCODING 8794
SWIDTH 570 0
DWIDTH 19 0
BBX 15 17 2 3
BITMAP
0C30
0C30
0660
07E0
03C0
03C0
0000
FFFE
FFFE
FFFE
0000
0000
0000
0000
FFFE
FFFE
FFFE
ENDCHAR
STARTCHAR notequal
ENCODING 8800
SWIDTH 570 0
DWIDTH 19 0
BBX 15 25 2 -4
BITMAP
0030
0030
0020
0060
0060
0060
00C0
00C0
FFFE
FFFE
FFFE
0180
0180
0300
0300
FFFE
FFFE
FFFE
0600
0600
0C00
0C00
0C00
1800
1800
ENDCHAR
STARTCHAR equivalence
ENCODING 8801
SWIDTH 570 0
DWIDTH 19 0
BBX 15 11 0 2
BITMAP
FFFE
FFFE
FFFE
0000
FFFE
FFFE
FFFE
0000
FFFE
FFFE
FFFE
ENDCHAR
STARTCHAR uni2262
ENCODING 8802
SWIDTH 570 0
DWIDTH 19 0
BBX 15 25 0 -5
BITMAP
0030
0030
0020
0060
0060
0060
00C0
FFFE
FFFE
FFFE
0180
FFFE
FFFE
FFFE
0300
FFFE
FFFE
FFFE
0600
0600
0C00
0C00
0C00
1800
1800
ENDCHAR
STARTCHAR lessequal
ENCODING 8804
SWIDTH 570 0
DWIDTH 19 0
BBX 16 19 1 -4
BITMAP
0003
000F
007F
01FC
0FE0
3F80
FC00
F000
FC00
3F80
0FE0
01FC
007F
000F
0003
0000
FFFF
FFFF
FFFF
ENDCHAR
STARTCHAR greaterequal
ENCODING 8805
SWIDTH 570 0
DWIDTH 19 0
BBX 16 19 2 -4
BITMAP
C000
F000
FE00
3F80
07F0
01FC
003F
000F
003F
01FC
07F0
3F80
FE00
F000
C000
0000
FFFF
FFFF
FFFF
ENDCHAR
STARTCHAR uni226E
ENCODING 8814
SWIDTH 570 0
DWIDTH 19 0
BBX 16 25 1 -5
BITMAP
0018
0018
0010
0030
0030
0033
006F
007F
01FC
0FE0
3FC0
FCC0
F0C0
FD80
3F80
0FE0
03FC
037F
030F
0303
0600
0600
0600
0C00
0C00
ENDCHAR
STARTCHAR uni226F
ENCODING 8815
SWIDTH 570 0
DWIDTH 19 0
BBX 16 25 2 -5
BITMAP
0018
0018
0010
0030
0030
C030
F060
FE60
3FE0
07F0
01FC
00FF
00CF
01BF
01FC
07F0
3F80
FF00
F300
C300
0600
0600
0600
0C00
0C00
ENDCHAR
STARTCHAR uni2270
ENCODING 8816
SWIDTH 570 0
DWIDTH 19 0
BBX 16 25 1 -7
BITMAP
0018
0018
0010
0033
003F
007F
01FC
0FE0
3FE0
FC40
F0C0
FCC0
3FC0
0FE0
01FC
01FF
030F
0303
0300
FFFF
FFFF
FFFF
0600
0C00
0C00
ENDCHAR
STARTCHAR uni2271
ENCODING 8817
SWIDTH 570 0
DWIDTH 19 0
BBX 16 25 2 -7
BITMAP
0018
0018
0010
C030
F030
FE30
3FE0
07F0
01FC
007F
00CF
00FF
01FC
07F0
3F80
FF80
F300
C300
0300
FFFF
FFFF
FFFF
0600
0C00
0C00
ENDCHAR
STARTCHAR fi
ENCODING -1
SWIDTH 556 0
DWIDTH 19 0
BBX 16 23 1 0
BITMAP
07F0
1E38
1C7C
3C7C
3C38
3C00
3C00
FFFC
3C3C
3C3C
3C3C
3C3C
3C3C
3C3C
3C3C
3C3C
3C3C
3C3C
3C3C
3C3C
3C3C
7E3E
FF7F
ENDCHAR
STARTCHAR fl
ENCODING -1
SWIDTH 556 0
DWIDTH 19 0
BBX 16 23 1 0
BITMAP
07E4
1E7C
1CFC
3CFC
3C7C
3C3C
3C3C
FFFC
3C3C
3C3C
3C3C
3C3C
3C3C
3C3C
3C3C
3C3C
3C3C
3C3C
3C3C
3C3C
3C3C
7E3E
FF7F
ENDCHAR
ENDFONT
